<?xml version="1.0" encoding="utf-8" ?>
<svg baseProfile="full" height="1000px" version="1.1" width="1000px" xmlns="http://www.w3.org/2000/svg" xmlns:ev="http://www.w3.org/2001/xml-events" xmlns:xlink="http://www.w3.org/1999/xlink"><defs /><circle cx="500" cy="500" fill="#002868" r="480" /><circle cx="500" cy="500" fill="none" r="450" stroke="#FFD700" stroke-width="20" /><ellipse cx="500" cy="520" fill="#ffffff" rx="80" ry="120" /><polygon fill="#ffffff" points="300,500 420,400 480,500" /><polygon fill="#ffffff" points="700,500 580,400 520,500" /><rect fill="#B22234" height="120" width="70" x="465" y="520" /><rect fill="#ffffff" height="80" width="10" x="467" y="560" /><rect fill="#ffffff" height="80" width="10" x="481" y="560" /><rect fill="#ffffff" height="80" width="10" x="495" y="560" /><rect fill="#ffffff" height="80" width="10" x="509" y="560" /><rect fill="#ffffff" height="80" width="10" x="523" y="560" /><circle cx="420" cy="650" fill="#228B22" r="10" /><circle cx="400" cy="665" fill="#228B22" r="10" /><circle cx="380" cy="680" fill="#228B22" r="10" /><circle cx="360" cy="695" fill="#228B22" r="10" /><circle cx="340" cy="710" fill="#228B22" r="10" /><line stroke="#A9A9A9" stroke-width="3" x1="580" x2="600" y1="650" y2="750" /><line stroke="#A9A9A9" stroke-width="3" x1="590" x2="610" y1="650" y2="750" /><line stroke="#A9A9A9" stroke-width="3" x1="600" x2="620" y1="650" y2="750" /><text fill="#ffffff" font-family="Georgia" font-size="36px" x="250" y="100">DEPARTMENT OF JUSTICE</text><text fill="#ffffff" font-family="Georgia" font-size="24px" x="180" y="950">QUI PRO DOMINA JUSTITIA SEQUITUR</text></svg>