<?xml version="1.0" encoding="utf-8" ?>
<svg baseProfile="tiny" height="1000px" version="1.2" width="1200px" xmlns="http://www.w3.org/2000/svg" xmlns:ev="http://www.w3.org/2001/xml-events" xmlns:xlink="http://www.w3.org/1999/xlink"><defs /><circle cx="1000" cy="100" fill="yellow" r="40" stroke="orange" stroke-width="2" /><rect fill="none" height="370.8204" stroke="black" stroke-width="2" width="600" x="300" y="600" /><rect fill="none" height="200" stroke="gray" stroke-width="2" width="100" x="300" y="400" /><path d="M 390.0,450.0 A 40,40 0 0,1 310.0,450.0" fill="none" stroke="black" stroke-width="2" /><path d="M 390.0,500.0 A 40,40 0 0,1 310.0,500.0" fill="none" stroke="black" stroke-width="2" /><path d="M 390.0,550.0 A 40,40 0 0,1 310.0,550.0" fill="none" stroke="black" stroke-width="2" /><rect fill="none" height="200" stroke="gray" stroke-width="2" width="100" x="800" y="400" /><path d="M 890.0,450.0 A 40,40 0 0,1 810.0,450.0" fill="none" stroke="black" stroke-width="2" /><path d="M 890.0,500.0 A 40,40 0 0,1 810.0,500.0" fill="none" stroke="black" stroke-width="2" /><path d="M 890.0,550.0 A 40,40 0 0,1 810.0,550.0" fill="none" stroke="black" stroke-width="2" /><line stroke="green" stroke-width="2" x1="600" x2="600.0" y1="500" y2="420.0" /><line stroke="green" stroke-width="2" x1="600.0" x2="623.6666" y1="420.0" y2="369.2468" /><line stroke="green" stroke-width="2" x1="623.6666" x2="653.6956" y1="369.2468" y2="344.0495" /><line stroke="green" stroke-width="2" x1="653.6956" x2="680.2006" y1="344.0495" y2="336.9475" /><line stroke="green" stroke-width="2" x1="653.6956" x2="665.2922" y1="344.0495" y2="319.1804" /><line stroke="green" stroke-width="2" x1="623.6666" x2="623.6666" y1="369.2468" y2="330.0468" /><line stroke="green" stroke-width="2" x1="623.6666" x2="635.2633" y1="330.0468" y2="305.1777" /><line stroke="green" stroke-width="2" x1="623.6666" x2="612.07" y1="330.0468" y2="305.1777" /><line stroke="green" stroke-width="2" x1="600.0" x2="576.3334" y1="420.0" y2="369.2468" /><line stroke="green" stroke-width="2" x1="576.3334" x2="576.3334" y1="369.2468" y2="330.0468" /><line stroke="green" stroke-width="2" x1="576.3334" x2="587.93" y1="330.0468" y2="305.1777" /><line stroke="green" stroke-width="2" x1="576.3334" x2="564.7367" y1="330.0468" y2="305.1777" /><line stroke="green" stroke-width="2" x1="576.3334" x2="546.3044" y1="369.2468" y2="344.0495" /><line stroke="green" stroke-width="2" x1="546.3044" x2="534.7078" y1="344.0495" y2="319.1804" /><line stroke="green" stroke-width="2" x1="546.3044" x2="519.7994" y1="344.0495" y2="336.9475" /><polyline fill="none" points="600.5,500.0 600.5091,500.0445 600.5144,500.0907 600.5156,500.1382 600.5127,500.1866 600.5054,500.2357 600.4936,500.285 600.4772,500.3341 600.4561,500.3827 600.4303,500.4303 600.3997,500.4764 600.3646,500.5207 600.3248,500.5626 600.2806,500.6018 600.2321,500.6377 600.1795,500.6699 600.1231,500.6981 600.0631,500.7217 600.0,500.7405 599.934,500.7539 599.8657,500.7618 599.7954,500.7636 599.7236,500.7593 599.651,500.7485 599.578,500.731 599.5052,500.7067 599.4333,500.6754 599.3628,500.6372 599.2945,500.592 599.2289,500.5399 599.1668,500.481 599.1088,500.4156 599.0556,500.3437 599.0078,500.2658 598.9661,500.1823 598.9311,500.0935 598.9034,500.0 598.8834,499.9023 598.8719,499.8011 598.8691,499.697 598.8755,499.5907 598.8916,499.4831 598.9175,499.375 598.9535,499.2672 598.9997,499.1607 599.0563,499.0563 599.1232,498.9551 599.2004,498.858 599.2876,498.7661 599.3846,498.6802 599.4909,498.6014 599.6063,498.5306 599.73,498.4689 599.8615,498.417 600.0,498.3759 600.1447,498.3464 600.2946,498.3292 600.4488,498.3251 600.6061,498.3347 600.7655,498.3584 600.9256,498.3968 601.0852,498.4501 601.243,498.5186 601.3976,498.6024 601.5474,498.7015 601.6912,498.8158 601.8274,498.9449 601.9546,499.0886 602.0713,499.2461 602.1761,499.4169 602.2676,499.6002 602.3444,499.7949 602.4052,500.0 602.4489,500.2143 602.4743,500.4363 602.4804,500.6646 602.4663,500.8977 602.4311,501.1337 602.3743,501.3708 602.2953,501.6072 602.1939,501.8409 602.0697,502.0697 601.923,502.2917 601.7538,502.5046 601.5625,502.7064 601.3498,502.8947 601.1165,503.0676 600.8635,503.2227 600.5921,503.3582 600.3038,503.472 600.0,503.5621 599.6827,503.6268 599.3539,503.6644 599.0157,503.6734 598.6706,503.6525 598.3211,503.6004 597.9699,503.5163 597.6198,503.3993 597.2737,503.2491 596.9348,503.0652 596.606,502.8479 596.2907,502.5973 595.9919,502.3141 595.713,501.9991 595.457,501.6535 595.2272,501.2789 595.0266,500.8769 594.8581,500.4499 594.7246,500.0 594.6288,499.5301 594.5731,499.0431 594.5597,498.5423 594.5907,498.0312 594.6679,497.5136 594.7925,496.9934 594.9657,496.4749 595.1882,495.9624 595.4605,495.4605 595.7824,494.9736 596.1535,494.5066 596.573,494.0642 597.0394,493.6511 597.5512,493.272 598.106,492.9316 598.7013,492.6345 599.3338,492.385 600.0,492.1873 600.6959,492.0454 601.4172,491.9629 602.1588,491.9431 602.9158,491.989 603.6823,492.1032 604.4526,492.2878 605.2205,492.5443 605.9795,492.8739 606.7229,493.2771 607.4439,493.7538 608.1356,494.3034 608.7908,494.9246 609.4026,495.6155 609.964,496.3734 610.468,497.1951 610.9081,498.0766 611.2776,499.0133 611.5703,500.0 611.7805,501.0307 611.9028,502.0988 611.932,503.1972 611.864,504.3181 611.6949,505.4534 611.4216,506.5942 611.0417,507.7315 610.5536,508.8555 609.9565,509.9565 609.2504,511.0242 608.4365,512.0485 607.5165,513.0189 606.4933,513.925 605.3709,514.7564 604.154,515.5029 602.8485,516.1546 601.4612,516.7018 600.0,517.1354 598.4736,517.4467 596.8918,517.6277 595.2651,517.671 593.6049,517.5703 591.9236,517.3198 590.2341,516.915 588.5499,516.3524 586.8853,515.6295 585.2548,514.7452 583.6734,513.6996 582.1565,512.4942 580.7193,511.1317 579.3775,509.6164 578.1462,507.9541 577.0406,506.1519 576.0755,504.2185 575.2651,502.164 574.623,500.0 574.162,497.7395 573.8939,495.3968 573.8297,492.9877 573.9789,490.5291 574.3498,488.0391 574.9493,485.537 575.7825,483.0427 576.8531,480.5774 578.1627,478.1627 579.7112,475.8208 581.4965,473.5742 583.5143,471.4459 585.7583,469.4586 588.2201,467.6351 590.8891,465.9978 593.7525,464.5685 596.7951,463.3683 600.0,462.4173 603.3478,461.7346 606.8172,461.3376 610.385,461.2425 614.0262,461.4635 617.7137,462.0128 621.4194,462.9006 625.1132,464.1346 628.7643,465.7201 632.3404,467.6596 635.8088,469.9528 639.1359,472.5968 642.2879,475.5851 645.231,478.9084 647.9315,482.5544 650.3563,486.5071 652.4731,490.7476 654.2505,495.2537 655.6589,500.0 656.6701,504.958 657.2579,510.0961 657.3988,515.38 657.0716,520.7723 656.258,526.2335 654.9432,531.7215 653.1157,537.192 650.7677,542.5991 647.8953,547.8953 644.499,553.0319 640.5835,557.9592 636.1578,562.6272 631.236,566.9859 625.8365,570.9852 619.9827,574.5763 613.7026,577.7112 607.0291,580.3435 600.0,582.4293 592.6574,583.9268 585.0479,584.7974 577.2227,585.0061 569.2367,584.5214 561.1488,583.3166 553.0213,581.3694 544.9196,578.6629 536.9119,575.1855 529.0683,570.9317 521.4613,565.9018 514.164,560.103 507.2508,553.5488 500.7958,546.2597 494.8728,538.2632 489.5545,529.5938 484.9119,520.2931 481.0134,510.41 477.9245,500.0 475.7067,489.1257 474.4173,477.8564 474.1084,466.2674 474.8261,454.4404 476.6104,442.4625 479.4941,430.4259 483.5024,418.4275 488.6523,406.5682 494.9522,394.9522 502.4012,383.6863 510.9891,372.8793 520.6957,362.6409 531.4907,353.0813 543.3333,344.3095 556.1724,336.4333 569.9464,329.5577 584.5831,323.7841 600.0,319.2095 616.1045,315.925 632.7941,314.0155 649.957,313.5579 667.4725,314.6209 685.2115,317.2634 703.0374,321.5341 720.8066,327.4702 738.37,335.0971 755.573,344.427 772.2574,355.4588 788.2623,368.1773 803.425,382.5525 817.5826,398.5395 830.5734,416.0781 842.2378,435.0926 852.4204,455.4915 860.9709,477.168" stroke="blue" stroke-width="1.5" /></svg>