<?xml version="1.0" encoding="utf-8" ?>
<svg baseProfile="full" height="2000px" version="1.1" width="2000px" xmlns="http://www.w3.org/2000/svg" xmlns:ev="http://www.w3.org/2001/xml-events" xmlns:xlink="http://www.w3.org/1999/xlink"><defs><radialGradient cx="50%" cy="40%" id="light" r="70%"><stop offset="0" stop-color="#fef6d9" stop-opacity="0.8" /><stop offset="1" stop-color="#a1c99a" stop-opacity="1" /></radialGradient></defs><rect fill="url(#light)" height="100%" width="100%" x="0" y="0" /><path d="M0,1800 Q1000,1700 2000,1800 L2000,2000 L0,2000 Z" fill="#5b3c1a" /><path d="M950,1800 C960,1600 970,1500 985,1400 C995,1350 1005,1350 1015,1400 C1030,1500 1040,1600 1050,1800 Z" fill="#6b4a2d" stroke="#4b2e1a" stroke-width="2" /><path d="M950,1800 C969.1784854932628,1600 969.1784854932628,1500 950,1300" fill="none" opacity="0.4" stroke="#3b2614" stroke-width="1.2" /><path d="M960,1800 C975.1360499061585,1600 975.1360499061585,1500 960,1300" fill="none" opacity="0.4" stroke="#3b2614" stroke-width="1.2" /><path d="M970,1800 C967.1775998388026,1600 967.1775998388026,1500 970,1300" fill="none" opacity="0.4" stroke="#3b2614" stroke-width="1.2" /><path d="M980,1800 C961.8140514634864,1600 961.8140514634864,1500 980,1300" fill="none" opacity="0.4" stroke="#3b2614" stroke-width="1.2" /><path d="M990,1800 C973.170580303842,1600 973.170580303842,1500 990,1300" fill="none" opacity="0.4" stroke="#3b2614" stroke-width="1.2" /><path d="M1000,1800 C1000.0,1600 1000.0,1500 1000,1300" fill="none" opacity="0.4" stroke="#3b2614" stroke-width="1.2" /><path d="M1010,1800 C1026.8294196961579,1600 1026.8294196961579,1500 1010,1300" fill="none" opacity="0.4" stroke="#3b2614" stroke-width="1.2" /><path d="M1020,1800 C1038.1859485365137,1600 1038.1859485365137,1500 1020,1300" fill="none" opacity="0.4" stroke="#3b2614" stroke-width="1.2" /><path d="M1030,1800 C1032.8224001611973,1600 1032.8224001611973,1500 1030,1300" fill="none" opacity="0.4" stroke="#3b2614" stroke-width="1.2" /><path d="M1040,1800 C1024.8639500938414,1600 1024.8639500938414,1500 1040,1300" fill="none" opacity="0.4" stroke="#3b2614" stroke-width="1.2" /><path d="M1050,1800 C1030.8215145067372,1600 1030.8215145067372,1500 1050,1300" fill="none" opacity="0.4" stroke="#3b2614" stroke-width="1.2" /><path d="M980,1800 Q960,1830 940,1850" fill="none" opacity="0.6" stroke="#4a3018" stroke-width="3" /><path d="M988,1800 Q968,1830 970,1870" fill="none" opacity="0.6" stroke="#4a3018" stroke-width="3" /><path d="M996,1800 Q976,1830 1000,1850" fill="none" opacity="0.6" stroke="#4a3018" stroke-width="3" /><path d="M1004,1800 Q984,1830 1030,1870" fill="none" opacity="0.6" stroke="#4a3018" stroke-width="3" /><path d="M1012,1800 Q992,1830 1060,1850" fill="none" opacity="0.6" stroke="#4a3018" stroke-width="3" /><path d="M1020,1800 Q1000,1830 1090,1870" fill="none" opacity="0.6" stroke="#4a3018" stroke-width="3" /><path d="M1028,1800 Q1008,1830 1120,1850" fill="none" opacity="0.6" stroke="#4a3018" stroke-width="3" /><path d="M1000,1400 Q1150,1300 1250,1000" fill="none" opacity="0.9" stroke="#3d2a17" stroke-width="8" /><path d="M1000,1400 Q850,1250 750,950" fill="none" opacity="0.9" stroke="#3d2a17" stroke-width="8" /><path d="M1000,1450 Q1050,1300 1200,1200" fill="none" opacity="0.9" stroke="#3d2a17" stroke-width="8" /><path d="M1000,1450 Q950,1300 800,1200" fill="none" opacity="0.9" stroke="#3d2a17" stroke-width="8" /><ellipse cx="1480.0" cy="1000.0" fill="rgb(60,100,50)" opacity="0.7" rx="12" ry="18" /><ellipse cx="1504.6923676446434" cy="1012.3369720843341" fill="rgb(61,101,51)" opacity="0.7" rx="12" ry="18" /><ellipse cx="1528.708946637707" cy="1025.8796517590704" fill="rgb(62,102,52)" opacity="0.7" rx="12" ry="18" /><ellipse cx="1551.9596519293918" cy="1040.6093079794834" fill="rgb(63,103,53)" opacity="0.7" rx="12" ry="18" /><ellipse cx="1574.3554798701107" cy="1056.5042789897866" fill="rgb(64,104,54)" opacity="0.7" rx="12" ry="18" /><ellipse cx="1595.8086905723858" cy="1073.540003241945" fill="rgb(65,105,55)" opacity="0.7" rx="12" ry="18" /><ellipse cx="1616.2329884622977" cy="1091.6890556506319" fill="rgb(66,106,56)" opacity="0.7" rx="12" ry="18" /><ellipse cx="1465.7419486124784" cy="1081.2857569214884" fill="rgb(67,107,57)" opacity="0.7" rx="12" ry="18" /><ellipse cx="1485.437156448851" cy="1097.4378052813092" fill="rgb(68,108,58)" opacity="0.7" rx="12" ry="18" /><ellipse cx="1504.0599536364314" cy="1114.6453049131055" fill="rgb(69,109,59)" opacity="0.7" rx="12" ry="18" /><ellipse cx="1521.5294045361793" cy="1132.8748256820222" fill="rgb(70,110,60)" opacity="0.7" rx="12" ry="18" /><ellipse cx="1537.7666356487366" cy="1152.0902769268603" fill="rgb(71,111,61)" opacity="0.7" rx="12" ry="18" /><ellipse cx="1552.6950018737734" cy="1172.2529683426014" fill="rgb(72,112,62)" opacity="0.7" rx="12" ry="18" /><ellipse cx="1566.2402491684752" cy="1193.321675733983" fill="rgb(73,113,63)" opacity="0.7" rx="12" ry="18" /><ellipse cx="1423.814844572285" cy="1157.7424450960593" fill="rgb(74,114,64)" opacity="0.7" rx="12" ry="18" /><ellipse cx="1437.3428289111416" cy="1176.75" fill="rgb(75,115,65)" opacity="0.7" rx="12" ry="18" /><ellipse cx="1449.4654909629057" cy="1196.600047030519" fill="rgb(76,116,66)" opacity="0.7" rx="12" ry="18" /><ellipse cx="1460.1158527680482" cy="1217.2464429983852" fill="rgb(77,117,67)" opacity="0.7" rx="12" ry="18" /><ellipse cx="1469.2298567374696" cy="1238.640812430744" fill="rgb(78,118,68)" opacity="0.7" rx="12" ry="18" /><ellipse cx="1476.7465059320666" cy="1260.7326348004162" fill="rgb(79,119,69)" opacity="0.7" rx="12" ry="18" /><ellipse cx="1482.6079991649563" cy="1283.4693358717636" fill="rgb(80,120,70)" opacity="0.7" rx="12" ry="18" /><ellipse cx="1356.7095162291494" cy="1224.8278837365763" fill="rgb(81,121,71)" opacity="0.7" rx="12" ry="18" /><ellipse cx="1363.266599171019" cy="1245.5617339572555" fill="rgb(82,122,72)" opacity="0.7" rx="12" ry="18" /><ellipse cx="1368.1689363432686" cy="1266.8750659256395" fill="rgb(83,123,73)" opacity="0.7" rx="12" ry="18" /><ellipse cx="1371.3674865291664" cy="1288.7117646979677" fill="rgb(84,124,74)" opacity="0.7" rx="12" ry="18" /><ellipse cx="1372.8168136181928" cy="1311.014043906305" fill="rgb(85,125,75)" opacity="0.7" rx="12" ry="18" /><ellipse cx="1372.4751925720234" cy="1333.7225541524467" fill="rgb(86,126,76)" opacity="0.7" rx="12" ry="18" /><ellipse cx="1370.304708944258" cy="1356.776494519352" fill="rgb(87,127,77)" opacity="0.7" rx="12" ry="18" /><ellipse cx="1268.4125936659584" cy="1278.556624378494" fill="rgb(88,128,78)" opacity="0.7" rx="12" ry="18" /><ellipse cx="1267.6092284377685" cy="1299.7850019912967" fill="rgb(89,129,79)" opacity="0.7" rx="12" ry="18" /><ellipse cx="1265.0" cy="1321.2954248040267" fill="rgb(90,130,80)" opacity="0.7" rx="12" ry="18" /><ellipse cx="1260.5567173461695" cy="1343.025139825693" fill="rgb(91,131,81)" opacity="0.7" rx="12" ry="18" /><ellipse cx="1254.255265137665" cy="1364.9103827974618" fill="rgb(92,132,82)" opacity="0.7" rx="12" ry="18" /><ellipse cx="1246.0756690608591" cy="1386.8865013116415" fill="rgb(93,133,83)" opacity="0.7" rx="12" ry="18" /><ellipse cx="1236.0021538520245" cy="1408.8880798639532" fill="rgb(94,134,84)" opacity="0.7" rx="12" ry="18" /><ellipse cx="1164.169668796321" cy="1315.736720584065" fill="rgb(95,135,85)" opacity="0.7" rx="12" ry="18" /><ellipse cx="1156.0535821593485" cy="1336.1984785103368" fill="rgb(96,136,86)" opacity="0.7" rx="12" ry="18" /><ellipse cx="1146.0877985830095" cy="1356.6280891931162" fill="rgb(97,137,87)" opacity="0.7" rx="12" ry="18" /><ellipse cx="1134.2666520578155" cy="1376.9598896582247" fill="rgb(98,138,88)" opacity="0.7" rx="12" ry="18" /><ellipse cx="1120.5887806743006" cy="1397.127925897925" fill="rgb(99,139,89)" opacity="0.7" rx="12" ry="18" /><ellipse cx="1105.057147488493" cy="1417.06608340067" fill="rgb(60,140,90)" opacity="0.7" rx="12" ry="18" /><ellipse cx="1087.6790536048413" cy="1436.7082183150326" fill="rgb(61,141,91)" opacity="0.7" rx="12" ry="18" /><ellipse cx="1050.1736623684737" cy="1334.1593568437397" fill="rgb(62,142,92)" opacity="0.7" rx="12" ry="18" /><ellipse cx="1035.2270192407832" cy="1352.6388917668478" fill="rgb(63,143,93)" opacity="0.7" rx="12" ry="18" /><ellipse cx="1018.4967332523256" cy="1370.7739968240844" fill="rgb(64,144,94)" opacity="0.7" rx="12" ry="18" /><ellipse cx="1000.0" cy="1388.5" fill="rgb(65,145,95)" opacity="0.7" rx="12" ry="18" /><ellipse cx="979.7582919125495" cy="1405.7526757697528" fill="rgb(66,146,96)" opacity="0.7" rx="12" ry="18" /><ellipse cx="957.7973333848042" cy="1422.4683752850356" fill="rgb(67,147,97)" opacity="0.7" rx="12" ry="18" /><ellipse cx="934.1470681413782" cy="1438.5841558574084" fill="rgb(68,148,98)" opacity="0.7" rx="12" ry="18" /><ellipse cx="933.1969115391686" cy="1332.7300710971676" fill="rgb(69,149,99)" opacity="0.7" rx="12" ry="18" /><ellipse cx="912.3076702782002" cy="1348.1295406898155" fill="rgb(70,150,100)" opacity="0.7" rx="12" ry="18" /><ellipse cx="889.8068038665875" cy="1362.8927598722419" fill="rgb(71,151,101)" opacity="0.7" rx="12" ry="18" /><ellipse cx="865.7333479421843" cy="1376.9598896582247" fill="rgb(72,152,102)" opacity="0.7" rx="12" ry="18" /><ellipse cx="840.1303336261406" cy="1390.2722485509576" fill="rgb(73,153,103)" opacity="0.7" rx="12" ry="18" /><ellipse cx="813.0447184031568" cy="1402.7724346509976" fill="rgb(74,154,104)" opacity="0.7" rx="12" ry="18" /><ellipse cx="784.5273097048287" cy="1414.4044457665857" fill="rgb(75,155,105)" opacity="0.7" rx="12" ry="18" /><ellipse cx="820.1888351603623" cy="1311.5337751344405" fill="rgb(76,156,106)" opacity="0.7" rx="12" ry="18" /><ellipse cx="794.5979952467209" cy="1322.9383192766593" fill="rgb(77,157,107)" opacity="0.7" rx="12" ry="18" /><ellipse cx="767.6632922017889" cy="1333.4525911769908" fill="rgb(78,158,108)" opacity="0.7" rx="12" ry="18" /><ellipse cx="739.4432826538305" cy="1343.025139825693" fill="rgb(79,159,109)" opacity="0.7" rx="12" ry="18" /><ellipse cx="710.0000000000001" cy="1351.6063139364821" fill="rgb(80,160,50)" opacity="0.7" rx="12" ry="18" /><ellipse cx="679.3988451389112" cy="1359.1483687222465" fill="rgb(81,161,51)" opacity="0.7" rx="12" ry="18" /><ellipse cx="647.7084708134296" cy="1365.6055694967733" fill="rgb(82,162,52)" opacity="0.7" rx="12" ry="18" /><ellipse cx="717.8630788996129" cy="1271.8297101099824" fill="rgb(83,163,53)" opacity="0.7" rx="12" ry="18" /><ellipse cx="689.0909549605426" cy="1278.5618013999763" fill="rgb(84,164,54)" opacity="0.7" rx="12" ry="18" /><ellipse cx="659.3225668661341" cy="1284.2024883971408" fill="rgb(85,165,55)" opacity="0.7" rx="12" ry="18" /><ellipse cx="628.6325134708336" cy="1288.7117646979677" fill="rgb(86,166,56)" opacity="0.7" rx="12" ry="18" /><ellipse cx="597.0981451337816" cy="1292.0519589374924" fill="rgb(87,167,57)" opacity="0.7" rx="12" ry="18" /><ellipse cx="564.799420795116" cy="1294.1878198893853" fill="rgb(88,168,58)" opacity="0.7" rx="12" ry="18" /><ellipse cx="531.8187599492418" cy="1295.0865974042565" fill="rgb(89,169,59)" opacity="0.7" rx="12" ry="18" /><ellipse cx="632.2986673028906" cy="1215.9766368546773" fill="rgb(90,170,60)" opacity="0.7" rx="12" ry="18" /><ellipse cx="602.0545694286054" cy="1217.6363315276203" fill="rgb(91,171,61)" opacity="0.7" rx="12" ry="18" /><ellipse cx="571.220992981278" cy="1218.0683286005076" fill="rgb(92,172,62)" opacity="0.7" rx="12" ry="18" /><ellipse cx="539.8841472319518" cy="1217.2464429983852" fill="rgb(93,173,63)" opacity="0.7" rx="12" ry="18" /><ellipse cx="508.13210422927295" cy="1215.1472212786812" fill="rgb(94,174,64)" opacity="0.7" rx="12" ry="18" /><ellipse cx="476.0546307104146" cy="1211.75" fill="rgb(95,175,65)" opacity="0.7" rx="12" ry="18" /><ellipse cx="443.74301649887605" cy="1207.0369591885778" fill="rgb(96,176,66)" opacity="0.7" rx="12" ry="18" /><ellipse cx="568.5788577763999" cy="1147.29270532113" fill="rgb(97,177,67)" opacity="0.7" rx="12" ry="18" /><ellipse cx="538.6595438904867" cy="1143.7814033272955" fill="rgb(98,178,68)" opacity="0.7" rx="12" ry="18" /><ellipse cx="508.5925570796027" cy="1138.9790461573034" fill="rgb(99,179,69)" opacity="0.7" rx="12" ry="18" /><ellipse cx="478.4705954638209" cy="1132.8748256820222" fill="rgb(60,100,70)" opacity="0.7" rx="12" ry="18" /><ellipse cx="448.387220548811" cy="1125.4608997162286" fill="rgb(61,101,71)" opacity="0.7" rx="12" ry="18" /><ellipse cx="418.4366739573171" cy="1116.7324201884992" fill="rgb(62,102,72)" opacity="0.7" rx="12" ry="18" /><ellipse cx="388.7136924461222" cy="1106.6875559594534" fill="rgb(63,103,73)" opacity="0.7" rx="12" ry="18" /><ellipse cx="530.4891516477733" cy="1069.8583281147671" fill="rgb(64,104,74)" opacity="0.7" rx="12" ry="18" /><ellipse cx="502.67208472883493" cy="1061.3846308052598" fill="rgb(65,105,75)" opacity="0.7" rx="12" ry="18" /><ellipse cx="475.1579235669677" cy="1051.6332204561843" fill="rgb(66,106,76)" opacity="0.7" rx="12" ry="18" /><ellipse cx="448.0403480706083" cy="1040.6093079794834" fill="rgb(67,107,77)" opacity="0.7" rx="12" ry="18" /><ellipse cx="421.412850849302" cy="1028.321128340115" fill="rgb(68,108,78)" opacity="0.7" rx="12" ry="18" /><ellipse cx="395.3685496534471" cy="1014.7799368535092" fill="rgb(69,109,79)" opacity="0.7" rx="12" ry="18" /><ellipse cx="370.0" cy="1000.0" fill="rgb(70,110,80)" opacity="0.7" rx="12" ry="18" /><ellipse cx="520.2924030308341" cy="988.2737691079597" fill="rgb(71,111,81)" opacity="0.7" rx="12" ry="18" /><ellipse cx="496.2301546187888" cy="975.3410865314518" fill="rgb(72,112,82)" opacity="0.7" rx="12" ry="18" /><ellipse cx="472.90339545481515" cy="961.2199401277005" fill="rgb(73,113,83)" opacity="0.7" rx="12" ry="18" /><ellipse cx="450.40122184842846" cy="945.9312502770146" fill="rgb(74,114,84)" opacity="0.7" rx="12" ry="18" /><ellipse cx="428.81150325291935" cy="929.4988398672263" fill="rgb(75,115,85)" opacity="0.7" rx="12" ry="18" /><ellipse cx="408.22070155604763" cy="911.9493989386789" fill="rgb(76,116,86)" opacity="0.7" rx="12" ry="18" /><ellipse cx="388.7136924461222" cy="893.3124440405467" fill="rgb(77,117,87)" opacity="0.7" rx="12" ry="18" /><ellipse cx="538.5943859496069" cy="907.3858484454884" fill="rgb(78,118,88)" opacity="0.7" rx="12" ry="18" /><ellipse cx="519.7164592709474" cy="890.7624924884561" fill="rgb(79,119,89)" opacity="0.7" rx="12" ry="18" /><ellipse cx="501.96291098346853" cy="873.110526826177" fill="rgb(80,120,90)" opacity="0.7" rx="12" ry="18" /><ellipse cx="485.412960715433" cy="854.4653384579182" fill="rgb(81,121,91)" opacity="0.7" rx="12" ry="18" /><ellipse cx="470.14363456729154" cy="834.8649229112251" fill="rgb(82,122,92)" opacity="0.7" rx="12" ry="18" /><ellipse cx="456.229601989004" cy="814.3498193348257" fill="rgb(83,123,93)" opacity="0.7" rx="12" ry="18" /><ellipse cx="443.74301649887605" cy="792.9630408114222" fill="rgb(84,124,94)" opacity="0.7" rx="12" ry="18" /><ellipse cx="584.3078061834694" cy="832.0" fill="rgb(85,125,95)" opacity="0.7" rx="12" ry="18" /><ellipse cx="571.7357114410048" cy="812.6735400935621" fill="rgb(86,126,96)" opacity="0.7" rx="12" ry="18" /><ellipse cx="560.6100865458278" cy="792.539432812353" fill="rgb(87,127,97)" opacity="0.7" rx="12" ry="18" /><ellipse cx="550.9955681219042" cy="771.6454294843743" fill="rgb(88,128,98)" opacity="0.7" rx="12" ry="18" /><ellipse cx="542.9537629081012" cy="750.0414410177827" fill="rgb(89,129,99)" opacity="0.7" rx="12" ry="18" /><ellipse cx="536.5431119130183" cy="727.7794472977507" fill="rgb(90,130,100)" opacity="0.7" rx="12" ry="18" /><ellipse cx="531.8187599492417" cy="704.9134025957435" fill="rgb(91,131,101)" opacity="0.7" rx="12" ry="18" /><ellipse cx="654.7168958374475" cy="766.5947875257768" fill="rgb(92,132,102)" opacity="0.7" rx="12" ry="18" /><ellipse cx="649.1975229182065" cy="745.7133805802869" fill="rgb(93,133,103)" opacity="0.7" rx="12" ry="18" /><ellipse cx="645.3607786298052" cy="724.2932697478867" fill="rgb(94,134,104)" opacity="0.7" rx="12" ry="18" /><ellipse cx="643.2528766239706" cy="702.3917338482771" fill="rgb(95,135,105)" opacity="0.7" rx="12" ry="18" /><ellipse cx="642.9163443111183" cy="680.0676340356708" fill="rgb(96,136,106)" opacity="0.7" rx="12" ry="18" /><ellipse cx="644.3899223630538" cy="657.3813028822099" fill="rgb(97,137,107)" opacity="0.7" rx="12" ry="18" /><ellipse cx="647.7084708134296" cy="634.3944305032267" fill="rgb(98,138,108)" opacity="0.7" rx="12" ry="18" /><ellipse cx="745.6387531680616" cy="715.055839691441" fill="rgb(99,139,109)" opacity="0.7" rx="12" ry="18" /><ellipse cx="747.4999999999998" cy="693.8600197622011" fill="rgb(60,140,50)" opacity="0.7" rx="12" ry="18" /><ellipse cx="751.1800717234779" cy="672.4264430493381" fill="rgb(61,141,51)" opacity="0.7" rx="12" ry="18" /><ellipse cx="756.7040135320618" cy="650.8185130127737" fill="rgb(62,142,52)" opacity="0.7" rx="12" ry="18" /><ellipse cx="764.0927470160359" cy="629.100544197104" fill="rgb(63,143,53)" opacity="0.7" rx="12" ry="18" /><ellipse cx="773.3630109833731" cy="607.3376375909656" fill="rgb(64,144,54)" opacity="0.7" rx="12" ry="18" /><ellipse cx="784.5273097048288" cy="585.5955542334143" fill="rgb(65,145,55)" opacity="0.7" rx="12" ry="18" /><ellipse cx="851.6718427000252" cy="680.4450105248284" fill="rgb(66,146,56)" opacity="0.7" rx="12" ry="18" /><ellipse cx="860.8031353124155" cy="660.1939904858043" fill="rgb(67,147,57)" opacity="0.7" rx="12" ry="18" /><ellipse cx="871.7813953321761" cy="640.0202855516054" fill="rgb(68,148,58)" opacity="0.7" rx="12" ry="18" /><ellipse cx="884.6090115961433" cy="619.9896571149166" fill="rgb(69,149,59)" opacity="0.7" rx="12" ry="18" /><ellipse cx="899.2840569531804" cy="600.1680522770436" fill="rgb(70,150,60)" opacity="0.7" rx="12" ry="18" /><ellipse cx="915.8002739191602" cy="580.6214728879451" fill="rgb(71,151,61)" opacity="0.7" rx="12" ry="18" /><ellipse cx="934.1470681413784" cy="561.4158441425914" fill="rgb(72,152,62)" opacity="0.7" rx="12" ry="18" /><ellipse cx="966.5168926028198" cy="664.8184791126992" fill="rgb(73,153,63)" opacity="0.7" rx="12" ry="18" /><ellipse cx="982.3757541652371" cy="646.7153426487497" fill="rgb(74,154,64)" opacity="0.7" rx="12" ry="18" /><ellipse cx="999.9999999999999" cy="629.0" fill="rgb(75,155,65)" opacity="0.7" rx="12" ry="18" /><ellipse cx="1019.3692206698883" cy="611.7366637030813" fill="rgb(76,156,66)" opacity="0.7" rx="12" ry="18" /><ellipse cx="1040.4587547715926" cy="594.9889955945114" fill="rgb(77,157,67)" opacity="0.7" rx="12" ry="18" /><ellipse cx="1063.23972027693" cy="578.8199773115363" fill="rgb(78,158,68)" opacity="0.7" rx="12" ry="18" /><ellipse cx="1087.6790536048413" cy="563.2917816849674" fill="rgb(79,159,69)" opacity="0.7" rx="12" ry="18" /><ellipse cx="1083.3511252801263" cy="669.104594987898" fill="rgb(80,160,70)" opacity="0.7" rx="12" ry="18" /><ellipse cx="1104.9954038629685" cy="654.2248231405997" fill="rgb(81,161,71)" opacity="0.7" rx="12" ry="18" /><ellipse cx="1128.2186046678237" cy="640.0202855516052" fill="rgb(82,162,72)" opacity="0.7" rx="12" ry="18" /><ellipse cx="1152.9787324784347" cy="626.5498311279632" fill="rgb(83,163,73)" opacity="0.7" rx="12" ry="18" /><ellipse cx="1179.2298567374694" cy="613.8710543841676" fill="rgb(84,164,74)" opacity="0.7" rx="12" ry="18" /><ellipse cx="1206.9221867120298" cy="602.0401750971679" fill="rgb(85,165,75)" opacity="0.7" rx="12" ry="18" /><ellipse cx="1236.0021538520245" cy="591.1119201360468" fill="rgb(86,166,76)" opacity="0.7" rx="12" ry="18" /><ellipse cx="1195.233588676384" cy="693.048726232086" fill="rgb(87,167,77)" opacity="0.7" rx="12" ry="18" /><ellipse cx="1221.377429128484" cy="682.2763046332445" fill="rgb(88,168,78)" opacity="0.7" rx="12" ry="18" /><ellipse cx="1248.819928276522" cy="672.4264430493381" fill="rgb(89,169,79)" opacity="0.7" rx="12" ry="18" /><ellipse cx="1277.5" cy="663.5491306297456" fill="rgb(90,170,80)" opacity="0.7" rx="12" ry="18" /><ellipse cx="1307.3531732552588" cy="655.6924729604909" fill="rgb(91,171,81)" opacity="0.7" rx="12" ry="18" /><ellipse cx="1338.311706599802" cy="648.9025880229399" fill="rgb(92,172,82)" opacity="0.7" rx="12" ry="18" /><ellipse cx="1370.304708944258" cy="643.2235054806481" fill="rgb(93,173,83)" opacity="0.7" rx="12" ry="18" /><ellipse cx="1295.5175081563161" cy="735.2283867881415" fill="rgb(94,174,84)" opacity="0.7" rx="12" ry="18" /><ellipse cx="1324.6077428917024" cy="729.2032893574412" fill="rgb(95,175,85)" opacity="0.7" rx="12" ry="18" /><ellipse cx="1354.6392213701947" cy="724.2932697478866" fill="rgb(96,176,86)" opacity="0.7" rx="12" ry="18" /><ellipse cx="1385.5353956047434" cy="720.536487568434" fill="rgb(97,177,87)" opacity="0.7" rx="12" ry="18" /><ellipse cx="1417.2170841964175" cy="717.968701593647" fill="rgb(98,178,88)" opacity="0.7" rx="12" ry="18" /><ellipse cx="1449.6026194138235" cy="716.6231882070235" fill="rgb(99,179,89)" opacity="0.7" rx="12" ry="18" /><ellipse cx="1482.607999164956" cy="716.5306641282361" fill="rgb(60,100,90)" opacity="0.7" rx="12" ry="18" /><ellipse cx="1378.2451617312265" cy="793.1377442905789" fill="rgb(61,101,91)" opacity="0.7" rx="12" ry="18" /><ellipse cx="1408.5535821593485" cy="792.2179133146107" fill="rgb(62,102,92)" opacity="0.7" rx="12" ry="18" /><ellipse cx="1439.389913454172" cy="792.539432812353" fill="rgb(63,103,93)" opacity="0.7" rx="12" ry="18" /><ellipse cx="1470.6666933668164" cy="794.1263658453998" fill="rgb(64,104,94)" opacity="0.7" rx="12" ry="18" /><ellipse cx="1502.2947341949744" cy="796.9999999999998" fill="rgb(65,105,95)" opacity="0.7" rx="12" ry="18" /><ellipse cx="1534.183293679651" cy="801.1787931601752" fill="rgb(66,106,96)" opacity="0.7" rx="12" ry="18" /><ellipse cx="1566.2402491684752" cy="806.6783242660167" fill="rgb(67,107,97)" opacity="0.7" rx="12" ry="18" /><ellipse cx="1438.5018196684484" cy="863.3364879265312" fill="rgb(68,108,98)" opacity="0.7" rx="12" ry="18" /><ellipse cx="1468.2278465562276" cy="867.576569227475" fill="rgb(69,109,99)" opacity="0.7" rx="12" ry="18" /><ellipse cx="1498.0370890165314" cy="873.110526826177" fill="rgb(70,110,100)" opacity="0.7" rx="12" ry="18" /><ellipse cx="1527.83636654381" cy="879.9468976853328" fill="rgb(71,111,101)" opacity="0.7" rx="12" ry="18" /><ellipse cx="1557.531783644225" cy="888.0912335382984" fill="rgb(72,112,102)" opacity="0.7" rx="12" ry="18" /><ellipse cx="1587.0289143969778" cy="897.5460772135407" fill="rgb(73,113,103)" opacity="0.7" rx="12" ry="18" /><ellipse cx="1616.2329884622975" cy="908.3109443493679" fill="rgb(74,114,104)" opacity="0.7" rx="12" ry="18" /><ellipse cx="1472.70772144586" cy="941.6542123039114" fill="rgb(75,115,105)" opacity="0.7" rx="12" ry="18" /><ellipse cx="1500.085374714493" cy="950.8023088106168" fill="rgb(76,116,106)" opacity="0.7" rx="12" ry="18" /><ellipse cx="1527.0966045451848" cy="961.2199401277006" fill="rgb(77,117,107)" opacity="0.7" rx="12" ry="18" /><ellipse cx="1553.6480478942026" cy="972.8996099504072" fill="rgb(78,118,108)" opacity="0.7" rx="12" ry="18" /><ellipse cx="1579.6466796710756" cy="985.8308043387847" fill="rgb(79,119,109)" opacity="0.7" rx="12" ry="18" /></svg>