<?xml version="1.0" encoding="utf-8" ?>
<svg baseProfile="full" height="2000px" version="1.1" width="2000px" xmlns="http://www.w3.org/2000/svg" xmlns:ev="http://www.w3.org/2001/xml-events" xmlns:xlink="http://www.w3.org/1999/xlink"><defs><radialGradient cx="50%" cy="50%" id="bg_grad" r="70%"><stop offset="0.0" stop-color="#111322" /><stop offset="1.0" stop-color="#07080f" /></radialGradient><radialGradient cx="50%" cy="50%" id="glow" r="50%"><stop offset="0.0" stop-color="#FFD700" stop-opacity="0.6" /><stop offset="1.0" stop-color="#FF8C00" stop-opacity="0.1" /></radialGradient></defs><rect fill="url(#bg_grad)" height="100%" width="100%" x="0" y="0" /><circle cx="1000" cy="1000" fill="#FFD700" r="120" stroke="#DAA520" stroke-width="5" /><circle cx="1000" cy="1000" fill="none" opacity="1.0" r="150" stroke="#FFA500" stroke-width="3" /><circle cx="1000" cy="1000" fill="none" opacity="0.85" r="200" stroke="#FFA500" stroke-width="3" /><circle cx="1000" cy="1000" fill="none" opacity="0.7" r="250" stroke="#FFA500" stroke-width="3" /><circle cx="1000" cy="1000" fill="none" opacity="0.55" r="300" stroke="#FFA500" stroke-width="3" /><circle cx="1000" cy="1000" fill="none" opacity="0.4" r="350" stroke="#FFA500" stroke-width="3" /><circle cx="1000" cy="1000" fill="none" opacity="0.25" r="400" stroke="#FFA500" stroke-width="3" /><path d="M 900,1100 A 100,100 0 0,1 1100,1100" fill="none" opacity="1.0" stroke="#FF4500" stroke-width="3" /><path d="M 850,1100 A 150,150 0 0,1 1150,1100" fill="none" opacity="0.85" stroke="#FF4500" stroke-width="3" /><path d="M 800,1100 A 200,200 0 0,1 1200,1100" fill="none" opacity="0.7" stroke="#FF4500" stroke-width="3" /><path d="M 750,1100 A 250,250 0 0,1 1250,1100" fill="none" opacity="0.55" stroke="#FF4500" stroke-width="3" /><path d="M 700,1100 A 300,300 0 0,1 1300,1100" fill="none" opacity="0.4" stroke="#FF4500" stroke-width="3" /><circle cx="1300.0" cy="1000.0" fill="#FFD700" opacity="0.8" r="15.0" /><circle cx="1292.3345464456322" cy="869.8442742157439" fill="#FFD700" opacity="0.75" r="14.3" /><circle cx="1227.5044061620117" cy="747.330759337686" fill="#FFD700" opacity="0.7000000000000001" r="13.6" /><circle cx="1111.2461179749812" cy="657.6196541337447" fill="#FFD700" opacity="0.65" r="12.9" /><circle cx="960.2791839582917" cy="622.0816797600562" fill="#FFD700" opacity="0.6000000000000001" r="12.2" /><circle cx="800.0000000000001" cy="653.5898384862245" fill="#FFD700" opacity="0.55" r="11.5" /><circle cx="660.2128623625222" cy="753.1301940371612" fill="#FFD700" opacity="0.5" r="10.8" /><circle cx="569.6150556771255" cy="908.5188560401859" fill="#FFD700" opacity="0.45" r="10.100000000000001" /><circle cx="550.0521036624494" cy="1095.6393777761693" fill="#FFD700" opacity="0.4" r="9.4" /><circle cx="611.6718427000252" cy="1282.136921100387" fill="#FFD700" opacity="0.35000000000000003" r="8.7" /><circle cx="749.9999999999998" cy="1433.0127018922192" fill="#FFD700" opacity="0.30000000000000004" r="8.0" /><circle cx="945.6451991008203" cy="1517.1513855915023" fill="#FFD700" opacity="0.25" r="7.300000000000001" /><circle cx="1166.8691769624716" cy="1513.570518799383" fill="#FFD700" opacity="0.19999999999999996" r="6.600000000000001" /><circle cx="1374.7131395609604" cy="1416.161102267341" fill="#FFD700" opacity="0.15000000000000002" r="5.9" /><circle cx="1529.8563654327086" cy="1235.907252983964" fill="#FFD700" opacity="0.09999999999999998" r="5.200000000000001" /><line opacity="0.5" stroke="#FFA500" stroke-width="2" x1="1000" x2="1400.0" y1="1000" y2="1000.0" /><line opacity="0.5" stroke="#FFA500" stroke-width="2" x1="1000" x2="1282.842712474619" y1="1000" y2="1282.842712474619" /><line opacity="0.5" stroke="#FFA500" stroke-width="2" x1="1000" x2="1000.0" y1="1000" y2="1400.0" /><line opacity="0.5" stroke="#FFA500" stroke-width="2" x1="1000" x2="717.157287525381" y1="1000" y2="1282.842712474619" /><line opacity="0.5" stroke="#FFA500" stroke-width="2" x1="1000" x2="600.0" y1="1000" y2="1000.0" /><line opacity="0.5" stroke="#FFA500" stroke-width="2" x1="1000" x2="717.157287525381" y1="1000" y2="717.157287525381" /><line opacity="0.5" stroke="#FFA500" stroke-width="2" x1="1000" x2="999.9999999999999" y1="1000" y2="600.0" /><line opacity="0.5" stroke="#FFA500" stroke-width="2" x1="1000" x2="1282.842712474619" y1="1000" y2="717.157287525381" /><circle cx="1000" cy="1000" fill="url(#glow)" r="250" /></svg>