<?xml version="1.0" encoding="utf-8" ?>
<svg baseProfile="full" height="2000px" version="1.1" width="2000px" xmlns="http://www.w3.org/2000/svg" xmlns:ev="http://www.w3.org/2001/xml-events" xmlns:xlink="http://www.w3.org/1999/xlink"><defs><radialGradient cx="50%" cy="50%" id="space_grad" r="75%"><stop offset="0" stop-color="#2e004f" /><stop offset="1" stop-color="#000014" /></radialGradient><radialGradient cx="50%" cy="50%" id="core_glow" r="30%"><stop offset="0" stop-color="#ffcc33" stop-opacity="0.6" /><stop offset="1" stop-color="#ff6600" stop-opacity="0.1" /></radialGradient></defs><rect fill="url(#space_grad)" height="100%" width="100%" x="0" y="0" /><circle cx="1000.0" cy="1000.0" fill="#990000" opacity="0.8" r="5" /><circle cx="1005.985384301559" cy="1000.4185388424647" fill="#990500" opacity="0.8" r="5" /><circle cx="1008.402703199196" cy="1001.1809229213715" fill="#990a00" opacity="0.8" r="5" /><circle cx="1010.1652080506353" cy="1002.1606816719035" fill="#990f00" opacity="0.8" r="5" /><circle cx="1011.5351403512598" cy="1003.307648269804" fill="#991400" opacity="0.8" r="5" /><circle cx="1012.6072994681933" cy="1004.5886817409025" fill="#991900" opacity="0.8" r="5" /><circle cx="1013.4263213683703" cy="1005.9777834113694" fill="#991e00" opacity="0.8" r="5" /><circle cx="1014.016358508447" cy="1007.4526300164898" fill="#992300" opacity="0.8" r="5" /><circle cx="1014.3918534295492" cy="1008.9930281252964" fill="#992800" opacity="0.8" r="5" /><circle cx="1014.5623058987491" cy="1010.5801345412646" fill="#992d00" opacity="0.8" r="5" /><circle cx="1014.5346713750276" cy="1012.1960373900687" fill="#993200" opacity="0.8" r="5" /><circle cx="1014.3146812869549" cy="1013.8235270337532" fill="#993800" opacity="0.8" r="5" /><circle cx="1013.907618485355" cy="1015.445975141305" fill="#993d00" opacity="0.8" r="5" /><circle cx="1013.3187941056868" cy="1017.0472790664763" fill="#994200" opacity="0.8" r="5" /><circle cx="1012.5538495474174" cy="1018.6118473435822" fill="#994700" opacity="0.8" r="5" /><circle cx="1011.6189500386223" cy="1020.1246117974981" fill="#994c00" opacity="0.8" r="5" /><circle cx="1010.5209075229378" cy="1021.57105711118" fill="#995100" opacity="0.8" r="5" /><circle cx="1009.2672553162397" cy="1022.9372618004771" fill="#995600" opacity="0.8" r="5" /><circle cx="1007.8662884400787" cy="1024.2099464307025" fill="#995b00" opacity="0.8" r="5" /><circle cx="1006.3270785708925" cy="1025.3765260971188" fill="#996000" opacity="0.8" r="5" /><circle cx="1004.6594695531866" cy="1026.4251649660494" fill="#996500" opacity="0.8" r="5" /><circle cx="1002.8740575712086" cy="1027.3448311948964" fill="#996b00" opacity="0.8" r="5" /><circle cx="1000.9821588960599" cy="1028.12535091164" fill="#997000" opacity="0.8" r="5" /><circle cx="998.9957673613984" cy="1028.7574601939664" fill="#997500" opacity="0.8" r="5" /><circle cx="996.927503216764" cy="1029.2328541801344" fill="#997a00" opacity="0.8" r="5" /><circle cx="994.790554669992" cy="1029.5442325903662" fill="#997f00" opacity="0.8" r="5" /><circle cx="992.5986132014316" cy="1029.685341053422" fill="#998400" opacity="0.8" r="5" /><circle cx="990.3658035761266" cy="1029.651007727668" fill="#998900" opacity="0.8" r="5" /><circle cx="988.1066093720369" cy="1029.437174785816" fill="#998e00" opacity="0.8" r="5" /><circle cx="985.8357947670896" cy="1029.0409244019538" fill="#999300" opacity="0.8" r="5" /><circle cx="983.568323274845" cy="1028.4604989415154" fill="#999900" opacity="0.8" r="5" /><circle cx="981.3192740806488" cy="1027.6953151115144" fill="#939900" opacity="0.8" r="5" /><circle cx="979.1037566023318" cy="1026.7459718811153" fill="#8e9900" opacity="0.8" r="5" /><circle cx="976.9368238783334" cy="1025.6142520324327" fill="#899900" opacity="0.8" r="5" /><circle cx="974.8333853690663" cy="1024.3031172489882" fill="#849900" opacity="0.8" r="5" /><circle cx="972.808119742648" cy="1022.8166966949608" fill="#7f9900" opacity="0.8" r="5" /><circle cx="970.8753882025019" cy="1021.160269082529" fill="#7a9900" opacity="0.8" r="5" /><circle cx="969.0491489008537" cy="1019.3402382673656" fill="#759900" opacity="0.8" r="5" /><circle cx="967.342872968156" cy="1017.3641024537984" fill="#709900" opacity="0.8" r="5" /><circle cx="965.769462673456" cy="1015.2404171313019" fill="#6b9900" opacity="0.8" r="5" /><circle cx="964.3411722143637" cy="1012.9787519027961" fill="#669900" opacity="0.8" r="5" /><circle cx="963.0695316173293" cy="1010.5896414026424" fill="#609900" opacity="0.8" r="5" /><circle cx="961.9652742092466" cy="1008.0845305381447" fill="#5b9900" opacity="0.8" r="5" /><circle cx="961.0382680998873" cy="1005.4757143226926" fill="#569900" opacity="0.8" r="5" /><circle cx="960.2974520912911" cy="1002.7762726012905" fill="#519900" opacity="0.8" r="5" /><circle cx="959.7507764050038" cy="1000.0" fill="#4c9900" opacity="0.8" r="5" /><circle cx="959.4051485910095" cy="997.1613314596487" fill="#479900" opacity="0.8" r="5" /><circle cx="959.2663849534096" cy="994.2752637409063" fill="#429900" opacity="0.8" r="5" /><circle cx="959.3391677974589" cy="991.3572733123862" fill="#3d9900" opacity="0.8" r="5" /><circle cx="959.6270087705906" cy="988.4232310556861" fill="#389900" opacity="0.8" r="5" /><circle cx="960.1322185366795" cy="985.4893142411215" fill="#329900" opacity="0.8" r="5" /><circle cx="960.8558829881497" cy="982.5719162452503" fill="#2d9900" opacity="0.8" r="5" /><circle cx="961.7978461647956" cy="979.6875544960391" fill="#289900" opacity="0.8" r="5" /><circle cx="962.9567000115165" cy="976.8527771436136" fill="#239900" opacity="0.8" r="5" /><circle cx="964.3297810697433" cy="974.0840689639066" fill="#1e9900" opacity="0.8" r="5" /><circle cx="965.9131741593579" cy="971.3977570091131" fill="#199900" opacity="0.8" r="5" /><circle cx="967.7017230695487" cy="968.8099165226529" fill="#149900" opacity="0.8" r="5" /><circle cx="969.6890482385098" cy="966.336277637305" fill="#0f9900" opacity="0.8" r="5" /><circle cx="971.8675713633902" cy="963.9921333733023" fill="#0a9900" opacity="0.8" r="5" /><circle cx="974.2285468436042" cy="961.7922494484732" fill="#059900" opacity="0.8" r="5" /><circle cx="976.7620999227555" cy="959.7507764050038" fill="#009900" opacity="0.8" r="5" /><circle cx="979.4572713571827" cy="957.8811645471106" fill="#009905" opacity="0.8" r="5" /><circle cx="982.3020684027182" cy="956.196082170907" fill="#00990a" opacity="0.8" r="5" /><circle cx="985.2835218758423" cy="954.7073375520804" fill="#00990f" opacity="0.8" r="5" /><circle cx="988.387749011216" cy="953.4258051387521" fill="#009914" opacity="0.8" r="5" /><circle cx="991.6000218047612" cy="952.361356376157" fill="#009919" opacity="0.8" r="5" /><circle cx="994.904840500216" cy="951.5227955666608" fill="#00991e" opacity="0.8" r="5" /><circle cx="998.2860118475754" cy="950.9178011432521" fill="#009923" opacity="0.8" r="5" /><circle cx="1001.7267317342237" cy="950.5528727071226" fill="#009928" opacity="0.8" r="5" /><circle cx="1005.2096717639995" cy="950.4332841504363" fill="#00992d" opacity="0.8" r="5" /><circle cx="1008.7170693360645" cy="950.5630431540305" fill="#009933" opacity="0.8" r="5" /><circle cx="1012.2308207544012" cy="950.9448573167531" fill="#009938" opacity="0.8" r="5" /><circle cx="1015.7325768801576" cy="951.580107138595" fill="#00993d" opacity="0.8" r="5" /><circle cx="1019.2038408229971" cy="952.4688260439005" fill="#009942" opacity="0.8" r="5" /><circle cx="1022.6260671541968" cy="953.6096875939191" fill="#009947" opacity="0.8" r="5" /><circle cx="1025.9807621135333" cy="955.0" fill="#00994c" opacity="0.8" r="5" /><circle cx="1029.2495842740889" cy="956.6357080100116" fill="#009951" opacity="0.8" r="5" /><circle cx="1032.4144451240318" cy="958.5114022013139" fill="#009956" opacity="0.8" r="5" /><circle cx="1035.4576090222142" cy="960.6203356740083" fill="#00995b" opacity="0.8" r="5" /><circle cx="1038.3617919851374" cy="962.9544480984688" fill="#009960" opacity="0.8" r="5" /><circle cx="1041.1102587664002" cy="965.5043970315111" fill="#009965" opacity="0.8" r="5" /><circle cx="1043.686917696247" cy="968.2595963762064" fill="#00996b" opacity="0.8" r="5" /><circle cx="1046.0764127581638" cy="971.2082618214995" fill="#009970" opacity="0.8" r="5" /><circle cx="1048.2642123916396" cy="974.3374630596525" fill="#009975" opacity="0.8" r="5" /><circle cx="1050.2366945251636" cy="977.6331825423149" fill="#00997a" opacity="0.8" r="5" /><circle cx="1051.9812273611544" cy="981.0803804999159" fill="#00997f" opacity="0.8" r="5" /><circle cx="1053.486245454791" cy="984.6630659142756" fill="#009984" opacity="0.8" r="5" /><circle cx="1054.7413206514814" cy="988.3643731010449" fill="#009989" opacity="0.8" r="5" /><circle cx="1055.7372274729046" cy="992.1666435269609" fill="#00998e" opacity="0.8" r="5" /><circle cx="1056.4660025690148" cy="996.0515124571547" fill="#009993" opacity="0.8" r="5" /><circle cx="1056.9209978830309" cy="1000.0" fill="#009999" opacity="0.8" r="5" /><circle cx="1057.0969272080267" cy="1003.992606091428" fill="#009399" opacity="0.8" r="5" /><circle cx="1056.98990584721" cy="1008.0094089373775" fill="#008e99" opacity="0.8" r="5" /><circle cx="1056.59748312508" cy="1012.0301664122441" fill="#008999" opacity="0.8" r="5" /><circle cx="1055.9186675332726" cy="1016.0344198929467" fill="#008499" opacity="0.8" r="5" /><circle cx="1054.9539443328088" cy="1020.0015999926643" fill="#007f99" opacity="0.8" r="5" /><circle cx="1053.7052854734811" cy="1023.9111336454777" fill="#007a99" opacity="0.8" r="5" /><circle cx="1052.1761517310345" cy="1027.7425519831913" fill="#007599" opacity="0.8" r="5" /><circle cx="1050.3714870034223" cy="1031.4755984385374" fill="#007099" opacity="0.8" r="5" /><circle cx="1048.29770474853" cy="1035.0903365048534" fill="#006b99" opacity="0.8" r="5" /><circle cx="1045.9626665871388" cy="1038.5672565811924" fill="#006599" opacity="0.8" r="5" /><circle cx="1043.3756531363522" cy="1041.8873813337007" fill="#006099" opacity="0.8" r="5" /><circle cx="1040.547327179983" cy="1045.032369008963" fill="#005b99" opacity="0.8" r="5" /><circle cx="1037.4896893233088" cy="1047.9846141428873" fill="#005699" opacity="0.8" r="5" /><circle cx="1034.2160263199194" cy="1050.727345119517" fill="#005199" opacity="0.8" r="5" /><circle cx="1030.7408522978787" cy="1053.2447180478966" fill="#004c99" opacity="0.8" r="5" /><circle cx="1027.079843150924" cy="1055.5219064417042" fill="#004799" opacity="0.8" r="5" /><circle cx="1023.2497643976828" cy="1057.545186205731" fill="#004299" opacity="0.8" r="5" /><circle cx="1019.2683928477469" cy="1059.302015455336" fill="#003d99" opacity="0.8" r="5" /><circle cx="1015.1544324476631" cy="1060.7811087196442" fill="#003899" opacity="0.8" r="5" /><circle cx="1010.9274247123419" cy="1061.972505106346" fill="#003299" opacity="0.8" r="5" /><circle cx="1006.6076541778347" cy="1062.867630035386" fill="#002d99" opacity="0.8" r="5" /><circle cx="1002.2160493397473" cy="1063.4593501804407" fill="#002899" opacity="0.8" r="5" /><circle cx="997.7740795675682" cy="1063.7420212907348" fill="#002399" opacity="0.8" r="5" /><circle cx="993.30364850876" cy="1063.7115286012333" fill="#001e99" opacity="0.8" r="5" /><circle cx="988.8269845174559" cy="1063.3653195764593" fill="#001999" opacity="0.8" r="5" /><circle cx="984.3665286608968" cy="1062.702428771854" fill="#001499" opacity="0.8" r="5" /><circle cx="979.9448208722445" cy="1061.7234946365938" fill="#000f99" opacity="0.8" r="5" /><circle cx="975.584384831" cy="1060.4307681228636" fill="#000a99" opacity="0.8" r="5" /><circle cx="971.3076121618915" cy="1058.828113008557" fill="#000599" opacity="0.8" r="5" /><circle cx="967.1366465496901" cy="1056.9209978830309" fill="#000099" opacity="0.8" r="5" /><circle cx="963.0932683709307" cy="1054.7164797886328" fill="#050099" opacity="0.8" r="5" /><circle cx="959.1987804439239" cy="1052.2231795540722" fill="#0a0099" opacity="0.8" r="5" /><circle cx="955.4738954957272" cy="1049.4512488990379" fill="#0f0099" opacity="0.8" r="5" /><circle cx="951.9386259389104" cy="1046.4123294325982" fill="#140099" opacity="0.8" r="5" /><circle cx="948.6121765419998" cy="1043.119503710611" fill="#190099" opacity="0.8" r="5" /><circle cx="945.5128405654839" cy="1039.5872385593846" fill="#1e0099" opacity="0.8" r="5" /><circle cx="942.6578999202171" cy="1035.8313209139737" fill="#230099" opacity="0.8" r="5" /><circle cx="940.063529887083" cy="1031.8687864595342" fill="#280099" opacity="0.8" r="5" /><circle cx="937.744708915906" cy="1027.7178414028715" fill="#2d0099" opacity="0.8" r="5" /><circle cx="935.7151339979742" cy="1023.3977777385287" fill="#320099" opacity="0.8" r="5" /><circle cx="933.9871420802216" cy="1018.9288824092483" fill="#380099" opacity="0.8" r="5" /><circle cx="932.5716379602854" cy="1014.3323407942031" fill="#3d0099" opacity="0.8" r="5" /><circle cx="931.4780290704044" cy="1009.6301349898984" fill="#420099" opacity="0.8" r="5" /><circle cx="930.7141675246327" cy="1004.8449373778545" fill="#470099" opacity="0.8" r="5" /><circle cx="930.2862997682665" cy="1000.0" fill="#4c0099" opacity="0.8" r="5" /><circle cx="930.199024130895" cy="995.1190402869275" fill="#510099" opacity="0.8" r="5" /><circle cx="930.4552565452723" cy="990.2261237057089" fill="#560099" opacity="0.8" r="5" /><circle cx="931.0562046534699" cy="985.34554391266" fill="#5b0099" opacity="0.8" r="5" /><circle cx="932.001350479709" cy="980.5017010122261" fill="#600099" opacity="0.8" r="5" /><circle cx="933.2884418060871" cy="975.7189785358981" fill="#660099" opacity="0.8" r="5" /><circle cx="934.9134923433529" cy="971.021619764707" fill="#6b0099" opacity="0.8" r="5" /><circle cx="936.8707907441315" cy="966.4336040253237" fill="#700099" opacity="0.8" r="5" /><circle cx="939.1529184608244" cy="961.9785235930412" fill="#750099" opacity="0.8" r="5" /><circle cx="941.7507764050038" cy="957.679461834942" fill="#7a0099" opacity="0.8" r="5" /><circle cx="944.6536203197473" cy="953.5588732233023" fill="#7f0099" opacity="0.8" r="5" /><circle cx="947.8491047312305" cy="949.6384658428099" fill="#840099" opacity="0.8" r="5" /><circle cx="951.3233353012577" cy="945.9390870054324" fill="#890099" opacity="0.8" r="5" /><circle cx="955.0609293584915" cy="942.4806125738676" fill="#8e0099" opacity="0.8" r="5" /><circle cx="959.0450843431643" cy="939.2818405784442" fill="#930099" opacity="0.8" r="5" /><circle cx="963.2576538582523" cy="936.3603896932107" fill="#990099" opacity="0.8" r="5" /><circle cx="967.6792309796803" cy="933.7326031148414" fill="#990093" opacity="0.8" r="5" /><circle cx="972.2892384393094" cy="931.4134583629809" fill="#99008e" opacity="0.8" r="5" /><circle cx="977.0660252574614" cy="929.4164834928961" fill="#990089" opacity="0.8" r="5" /><circle cx="981.986969366732" cy="927.7536801808913" fill="#990084" opacity="0.8" r="5" /><circle cx="987.028585736038" cy="926.4354541100628" fill="#99007f" opacity="0.8" r="5" /><circle cx="992.1666394734141" cy="925.4705530487411" fill="#99007a" opacity="0.8" r="5" /><circle cx="997.3762633581595" cy="924.8660129765879" fill="#990075" opacity="0.8" r="5" /><circle cx="1002.6320792277322" cy="924.6271125739571" fill="#990070" opacity="0.8" r="5" /><circle cx="1007.9083226223927" cy="924.7573363489824" fill="#99006b" opacity="0.8" r="5" /><circle cx="1013.178970071162" cy="925.258346634133" fill="#990066" opacity="0.8" r="5" /><circle cx="1018.4178683862935" cy="926.1299646398815" fill="#990060" opacity="0.8" r="5" /><circle cx="1023.5988653202363" cy="927.3701607078926" fill="#99005b" opacity="0.8" r="5" /><circle cx="1028.6959409291" cy="928.975053859974" fill="#990056" opacity="0.8" r="5" /><circle cx="1033.6833389799565" cy="930.9389206921776" fill="#990051" opacity="0.8" r="5" /><circle cx="1038.5356977359952" cy="933.2542136161389" fill="#99004c" opacity="0.8" r="5" /><circle cx="1043.228179453607" cy="935.9115884022178" fill="#990047" opacity="0.8" r="5" /><circle cx="1047.7365979289202" cy="938.8999409315129" fill="#990042" opacity="0.8" r="5" /><circle cx="1052.0375434381622" cy="942.2064530166093" fill="#99003d" opacity="0.8" r="5" /><circle cx="1056.1085044264148" cy="945.8166471041982" fill="#990038" opacity="0.8" r="5" /><circle cx="1059.9279853128803" cy="949.7144496267647" fill="#990033" opacity="0.8" r="5" /><circle cx="1063.4756197975732" cy="953.8822627255639" fill="#99002d" opacity="0.8" r="5" /><circle cx="1066.7322790743654" cy="958.301044023369" fill="#990028" opacity="0.8" r="5" /><circle cx="1069.6801743784263" cy="962.9503940831742" fill="#990023" opacity="0.8" r="5" /><circle cx="1072.3029533222257" cy="967.808651148421" fill="#99001e" opacity="0.8" r="5" /><circle cx="1074.5857895032611" cy="972.8529927215684" fill="#990019" opacity="0.8" r="5" /><circle cx="1076.5154648984344" cy="978.0595435011838" fill="#990014" opacity="0.8" r="5" /><circle cx="1078.080444594337" cy="983.4034891633611" fill="#99000f" opacity="0.8" r="5" /><circle cx="1079.2709434394872" cy="988.8591954413683" fill="#99000a" opacity="0.8" r="5" /><circle cx="1080.0789842435913" cy="994.4003319281711" fill="#990005" opacity="0.8" r="5" /><line opacity="0.1" stroke="white" stroke-width="1" x1="1000" x2="1000" y1="0" y2="2000" /><circle cx="1000" cy="1000" fill="none" opacity="0.07" r="200" stroke="white" stroke-width="1.5" /><circle cx="1000" cy="1000" fill="none" opacity="0.1" r="330" stroke="white" stroke-width="1.5" /><circle cx="1000" cy="1000" fill="none" opacity="0.13" r="460" stroke="white" stroke-width="1.5" /><circle cx="1000" cy="1000" fill="none" opacity="0.16" r="590" stroke="white" stroke-width="1.5" /><circle cx="1000" cy="1000" fill="none" opacity="0.19" r="720" stroke="white" stroke-width="1.5" /><circle cx="1000" cy="1000" fill="none" opacity="0.22" r="850" stroke="white" stroke-width="1.5" /><circle cx="1300.0" cy="1000.0" fill="#ffffff" opacity="0.15" r="10" /><circle cx="1500.0" cy="1000.0" fill="#ffffff" opacity="0.25" r="10" /><circle cx="1700.0" cy="1000.0" fill="#ffffff" opacity="0.35" r="10" /><circle cx="1259.8076211353316" cy="1150.0" fill="#ffffff" opacity="0.15" r="10" /><circle cx="1433.0127018922194" cy="1250.0" fill="#ffffff" opacity="0.25" r="10" /><circle cx="1606.217782649107" cy="1350.0" fill="#ffffff" opacity="0.35" r="10" /><circle cx="1150.0" cy="1259.8076211353316" fill="#ffffff" opacity="0.15" r="10" /><circle cx="1250.0" cy="1433.0127018922194" fill="#ffffff" opacity="0.25" r="10" /><circle cx="1350.0" cy="1606.217782649107" fill="#ffffff" opacity="0.35" r="10" /><circle cx="1000.0" cy="1300.0" fill="#ffffff" opacity="0.15" r="10" /><circle cx="1000.0" cy="1500.0" fill="#ffffff" opacity="0.25" r="10" /><circle cx="1000.0" cy="1700.0" fill="#ffffff" opacity="0.35" r="10" /><circle cx="850.0" cy="1259.8076211353316" fill="#ffffff" opacity="0.15" r="10" /><circle cx="750.0000000000001" cy="1433.0127018922194" fill="#ffffff" opacity="0.25" r="10" /><circle cx="650.0000000000002" cy="1606.217782649107" fill="#ffffff" opacity="0.35" r="10" /><circle cx="740.1923788646684" cy="1150.0" fill="#ffffff" opacity="0.15" r="10" /><circle cx="566.9872981077806" cy="1250.0" fill="#ffffff" opacity="0.25" r="10" /><circle cx="393.7822173508929" cy="1350.0" fill="#ffffff" opacity="0.35" r="10" /><circle cx="700.0" cy="1000.0" fill="#ffffff" opacity="0.15" r="10" /><circle cx="500.0" cy="1000.0000000000001" fill="#ffffff" opacity="0.25" r="10" /><circle cx="300.0" cy="1000.0000000000001" fill="#ffffff" opacity="0.35" r="10" /><circle cx="740.1923788646684" cy="850.0" fill="#ffffff" opacity="0.15" r="10" /><circle cx="566.9872981077807" cy="750.0" fill="#ffffff" opacity="0.25" r="10" /><circle cx="393.782217350893" cy="650.0" fill="#ffffff" opacity="0.35" r="10" /><circle cx="849.9999999999999" cy="740.1923788646685" fill="#ffffff" opacity="0.15" r="10" /><circle cx="749.9999999999998" cy="566.9872981077808" fill="#ffffff" opacity="0.25" r="10" /><circle cx="649.9999999999998" cy="393.7822173508931" fill="#ffffff" opacity="0.35" r="10" /><circle cx="1000.0" cy="700.0" fill="#ffffff" opacity="0.15" r="10" /><circle cx="999.9999999999999" cy="500.0" fill="#ffffff" opacity="0.25" r="10" /><circle cx="999.9999999999999" cy="300.0" fill="#ffffff" opacity="0.35" r="10" /><circle cx="1150.0" cy="740.1923788646684" fill="#ffffff" opacity="0.15" r="10" /><circle cx="1250.0" cy="566.9872981077807" fill="#ffffff" opacity="0.25" r="10" /><circle cx="1350.0" cy="393.782217350893" fill="#ffffff" opacity="0.35" r="10" /><circle cx="1259.8076211353314" cy="849.9999999999999" fill="#ffffff" opacity="0.15" r="10" /><circle cx="1433.0127018922192" cy="749.9999999999998" fill="#ffffff" opacity="0.25" r="10" /><circle cx="1606.217782649107" cy="649.9999999999998" fill="#ffffff" opacity="0.35" r="10" /><line opacity="0.7" stroke="#FFD700" stroke-width="2" x1="1080.0" x2="1140.0" y1="1000.0" y2="1000.0" /><line opacity="0.7" stroke="#FFD700" stroke-width="2" x1="1069.2820323027552" x2="1121.2435565298215" y1="1040.0" y2="1070.0" /><line opacity="0.7" stroke="#FFD700" stroke-width="2" x1="1040.0" x2="1070.0" y1="1069.2820323027552" y2="1121.2435565298215" /><line opacity="0.7" stroke="#FFD700" stroke-width="2" x1="1000.0" x2="1000.0" y1="1080.0" y2="1140.0" /><line opacity="0.7" stroke="#FFD700" stroke-width="2" x1="960.0" x2="930.0" y1="1069.2820323027552" y2="1121.2435565298215" /><line opacity="0.7" stroke="#FFD700" stroke-width="2" x1="930.717967697245" x2="878.7564434701786" y1="1040.0" y2="1070.0" /><line opacity="0.7" stroke="#FFD700" stroke-width="2" x1="920.0" x2="860.0" y1="1000.0" y2="1000.0" /><line opacity="0.7" stroke="#FFD700" stroke-width="2" x1="930.717967697245" x2="878.7564434701786" y1="960.0" y2="930.0" /><line opacity="0.7" stroke="#FFD700" stroke-width="2" x1="960.0" x2="930.0" y1="930.717967697245" y2="878.7564434701786" /><line opacity="0.7" stroke="#FFD700" stroke-width="2" x1="1000.0" x2="1000.0" y1="920.0" y2="860.0" /><line opacity="0.7" stroke="#FFD700" stroke-width="2" x1="1040.0" x2="1070.0" y1="930.717967697245" y2="878.7564434701786" /><line opacity="0.7" stroke="#FFD700" stroke-width="2" x1="1069.2820323027552" x2="1121.2435565298215" y1="960.0" y2="930.0" /><circle cx="1000" cy="1000" fill="url(#core_glow)" r="180" /></svg>