<?xml version="1.0" encoding="utf-8" ?>
<svg baseProfile="full" height="1000px" version="1.1" width="1400px" xmlns="http://www.w3.org/2000/svg" xmlns:ev="http://www.w3.org/2001/xml-events" xmlns:xlink="http://www.w3.org/1999/xlink"><defs><radialGradient cx="50%" cy="50%" id="redflare" r="75%"><stop offset="0.0" stop-color="#ff2c2c" /><stop offset="0.5" stop-color="#e64a19" /><stop offset="1.0" stop-color="#300000" /></radialGradient></defs><rect fill="url(#redflare)" height="100%" width="100%" x="0" y="0" /><circle cx="700" cy="440" fill="white" r="30" /><line stroke="white" stroke-width="5" x1="700" x2="700" y1="470" y2="600" /><line stroke="white" stroke-width="4" x1="700" x2="660" y1="600" y2="680" /><line stroke="white" stroke-width="4" x1="700" x2="740" y1="600" y2="680" /><line stroke="white" stroke-width="4" x1="700" x2="640" y1="510" y2="450" /><line stroke="white" stroke-width="4" x1="700" x2="760" y1="510" y2="450" /><line opacity="0.3" stroke="gold" stroke-width="1.5" x1="740.0" x2="1000.0" y1="500.0" y2="500.0" /><line opacity="0.3" stroke="gold" stroke-width="1.5" x1="738.6370330515628" x2="989.7777478867205" y1="510.35276180410085" y2="577.6457135307562" /><line opacity="0.3" stroke="gold" stroke-width="1.5" x1="734.6410161513776" x2="959.8076211353316" y1="520.0" y2="650.0" /><line opacity="0.3" stroke="gold" stroke-width="1.5" x1="728.2842712474619" x2="912.1320343559643" y1="528.2842712474619" y2="712.1320343559643" /><line opacity="0.3" stroke="gold" stroke-width="1.5" x1="720.0" x2="850.0" y1="534.6410161513776" y2="759.8076211353316" /><line opacity="0.3" stroke="gold" stroke-width="1.5" x1="710.3527618041009" x2="777.6457135307562" y1="538.6370330515628" y2="789.7777478867205" /><line opacity="0.3" stroke="gold" stroke-width="1.5" x1="700.0" x2="700.0" y1="540.0" y2="800.0" /><line opacity="0.3" stroke="gold" stroke-width="1.5" x1="689.6472381958991" x2="622.3542864692438" y1="538.6370330515628" y2="789.7777478867205" /><line opacity="0.3" stroke="gold" stroke-width="1.5" x1="680.0" x2="550.0" y1="534.6410161513776" y2="759.8076211353316" /><line opacity="0.3" stroke="gold" stroke-width="1.5" x1="671.7157287525381" x2="487.86796564403573" y1="528.2842712474619" y2="712.1320343559643" /><line opacity="0.3" stroke="gold" stroke-width="1.5" x1="665.3589838486224" x2="440.1923788646684" y1="520.0" y2="650.0" /><line opacity="0.3" stroke="gold" stroke-width="1.5" x1="661.3629669484372" x2="410.2222521132795" y1="510.35276180410085" y2="577.6457135307563" /><line opacity="0.3" stroke="gold" stroke-width="1.5" x1="660.0" x2="400.0" y1="500.0" y2="500.00000000000006" /><line opacity="0.3" stroke="gold" stroke-width="1.5" x1="661.3629669484372" x2="410.2222521132795" y1="489.64723819589915" y2="422.3542864692438" /><line opacity="0.3" stroke="gold" stroke-width="1.5" x1="665.3589838486224" x2="440.1923788646684" y1="480.0" y2="350.0" /><line opacity="0.3" stroke="gold" stroke-width="1.5" x1="671.7157287525381" x2="487.86796564403573" y1="471.7157287525381" y2="287.86796564403573" /><line opacity="0.3" stroke="gold" stroke-width="1.5" x1="680.0" x2="549.9999999999999" y1="465.3589838486225" y2="240.1923788646685" /><line opacity="0.3" stroke="gold" stroke-width="1.5" x1="689.6472381958991" x2="622.3542864692438" y1="461.36296694843725" y2="210.22225211327952" /><line opacity="0.3" stroke="gold" stroke-width="1.5" x1="700.0" x2="700.0" y1="460.0" y2="200.0" /><line opacity="0.3" stroke="gold" stroke-width="1.5" x1="710.3527618041009" x2="777.6457135307561" y1="461.36296694843725" y2="210.22225211327947" /><line opacity="0.3" stroke="gold" stroke-width="1.5" x1="720.0" x2="850.0" y1="465.3589838486225" y2="240.1923788646684" /><line opacity="0.3" stroke="gold" stroke-width="1.5" x1="728.2842712474619" x2="912.1320343559642" y1="471.7157287525381" y2="287.86796564403573" /><line opacity="0.3" stroke="gold" stroke-width="1.5" x1="734.6410161513776" x2="959.8076211353315" y1="480.0" y2="349.9999999999999" /><line opacity="0.3" stroke="gold" stroke-width="1.5" x1="738.6370330515628" x2="989.7777478867205" y1="489.64723819589915" y2="422.3542864692438" /><path d="M 580,470 A 120,120 0 0,1 820,470" fill="none" opacity="0.2" stroke="white" stroke-width="2" /><path d="M 550,470 A 150,150 0 0,1 850,470" fill="none" opacity="0.30000000000000004" stroke="white" stroke-width="2" /><path d="M 520,470 A 180,180 0 0,1 880,470" fill="none" opacity="0.4" stroke="white" stroke-width="2" /><path d="M 490,470 A 210,210 0 0,1 910,470" fill="none" opacity="0.5" stroke="white" stroke-width="2" /><path d="M 460,470 A 240,240 0 0,1 940,470" fill="none" opacity="0.6000000000000001" stroke="white" stroke-width="2" /><text fill="white" font-family="Arial Black" font-size="60px" x="500" y="900">STAND UP.</text><text fill="white" font-family="Arial" font-size="30px" opacity="0.9" x="450" y="960">LET THEM HEAR YOU.</text></svg>