<?xml version="1.0" encoding="utf-8" ?>
<svg baseProfile="full" height="2000px" version="1.1" width="2000px" xmlns="http://www.w3.org/2000/svg" xmlns:ev="http://www.w3.org/2001/xml-events" xmlns:xlink="http://www.w3.org/1999/xlink"><defs><radialGradient cx="50%" cy="50%" id="bg_grad" r="70%"><stop offset="0.0" stop-color="#1a1a2e" /><stop offset="1.0" stop-color="#0d0d1a" /></radialGradient><radialGradient cx="50%" cy="50%" id="glow" r="50%"><stop offset="0.0" stop-color="#FFD700" stop-opacity="0.5" /><stop offset="1.0" stop-color="#FFA500" stop-opacity="0.1" /></radialGradient></defs><rect fill="url(#bg_grad)" height="100%" width="100%" x="0" y="0" /><rect fill="#FFD700" height="100" opacity="1.0" stroke="#DAA520" stroke-width="3" width="80" x="960" y="1700" /><rect fill="#FFD700" height="180" opacity="0.85" stroke="#DAA520" stroke-width="3" width="120" x="940" y="1620" /><rect fill="#FFD700" height="260" opacity="0.7" stroke="#DAA520" stroke-width="3" width="160" x="920" y="1540" /><rect fill="#FFD700" height="340" opacity="0.55" stroke="#DAA520" stroke-width="3" width="200" x="900" y="1460" /><rect fill="#FFD700" height="420" opacity="0.4" stroke="#DAA520" stroke-width="3" width="240" x="880" y="1380" /><polygon fill="#FFD700" points="790,1700 820,1400 850,1700" stroke="#DAA520" stroke-width="3" /><polygon fill="#FFD700" points="970,1700 1000,1400 1030,1700" stroke="#DAA520" stroke-width="3" /><polygon fill="#FFD700" points="1150,1700 1180,1400 1210,1700" stroke="#DAA520" stroke-width="3" /><path d="M 880,1700 A 120,120 0 0,1 1120,1700" fill="none" opacity="1.0" stroke="#FFA500" stroke-width="3" /><path d="M 840,1670 A 160,160 0 0,1 1160,1670" fill="none" opacity="0.85" stroke="#FFA500" stroke-width="3" /><path d="M 800,1640 A 200,200 0 0,1 1200,1640" fill="none" opacity="0.7" stroke="#FFA500" stroke-width="3" /><path d="M 760,1610 A 240,240 0 0,1 1240,1610" fill="none" opacity="0.55" stroke="#FFA500" stroke-width="3" /><path d="M 720,1580 A 280,280 0 0,1 1280,1580" fill="none" opacity="0.4" stroke="#FFA500" stroke-width="3" /><path d="M 680,1550 A 320,320 0 0,1 1320,1550" fill="none" opacity="0.25" stroke="#FFA500" stroke-width="3" /><line stroke="#FFD700" stroke-width="2" x1="1000" x2="1090.0" y1="1500" y2="1500.0" /><line stroke="#FFD700" stroke-width="2" x1="1000" x2="1077.9422863405994" y1="1500" y2="1545.0" /><line stroke="#FFD700" stroke-width="2" x1="1000" x2="1045.0" y1="1500" y2="1577.9422863405994" /><line stroke="#FFD700" stroke-width="2" x1="1000" x2="1000.0" y1="1500" y2="1590.0" /><line stroke="#FFD700" stroke-width="2" x1="1000" x2="955.0" y1="1500" y2="1577.9422863405994" /><line stroke="#FFD700" stroke-width="2" x1="1000" x2="922.0577136594005" y1="1500" y2="1545.0" /><line stroke="#FFD700" stroke-width="2" x1="1000" x2="910.0" y1="1500" y2="1500.0" /><line stroke="#FFD700" stroke-width="2" x1="1000" x2="922.0577136594005" y1="1500" y2="1455.0" /><line stroke="#FFD700" stroke-width="2" x1="1000" x2="955.0" y1="1500" y2="1422.0577136594006" /><line stroke="#FFD700" stroke-width="2" x1="1000" x2="1000.0" y1="1500" y2="1410.0" /><line stroke="#FFD700" stroke-width="2" x1="1000" x2="1045.0" y1="1500" y2="1422.0577136594006" /><line stroke="#FFD700" stroke-width="2" x1="1000" x2="1077.9422863405994" y1="1500" y2="1455.0" /><circle cx="1000" cy="1500" fill="none" r="90" stroke="#FFD700" stroke-width="3" /><line opacity="0.3" stroke="#FFA500" stroke-width="1" x1="1000" x2="1300.0" y1="1500" y2="1500.0" /><line opacity="0.3" stroke="#FFA500" stroke-width="1" x1="1000" x2="1212.1320343559642" y1="1500" y2="1712.1320343559642" /><line opacity="0.3" stroke="#FFA500" stroke-width="1" x1="1000" x2="1000.0" y1="1500" y2="1800.0" /><line opacity="0.3" stroke="#FFA500" stroke-width="1" x1="1000" x2="787.8679656440357" y1="1500" y2="1712.1320343559642" /><line opacity="0.3" stroke="#FFA500" stroke-width="1" x1="1000" x2="700.0" y1="1500" y2="1500.0" /><line opacity="0.3" stroke="#FFA500" stroke-width="1" x1="1000" x2="787.8679656440357" y1="1500" y2="1287.8679656440358" /><line opacity="0.3" stroke="#FFA500" stroke-width="1" x1="1000" x2="1000.0" y1="1500" y2="1200.0" /><line opacity="0.3" stroke="#FFA500" stroke-width="1" x1="1000" x2="1212.1320343559642" y1="1500" y2="1287.8679656440356" /><circle cx="1000" cy="1500" fill="url(#glow)" r="200" /></svg>