<?xml version="1.0" encoding="utf-8" ?>
<svg baseProfile="full" height="1000px" version="1.1" width="1400px" xmlns="http://www.w3.org/2000/svg" xmlns:ev="http://www.w3.org/2001/xml-events" xmlns:xlink="http://www.w3.org/1999/xlink"><defs><linearGradient id="bg" x1="0" x2="0" y1="0" y2="1"><stop offset="0.0" stop-color="#0a1e2b" /><stop offset="1.0" stop-color="#f7e6d2" /></linearGradient><radialGradient id="sun_rad"><stop offset="0.0" stop-color="#ffd070" /><stop offset="1.0" stop-color="#ffebb0" stop-opacity="0.1" /></radialGradient></defs><rect fill="url(#bg)" height="100%" width="100%" x="0" y="0" /><path d="M 0,800 Q 700,600 1400,800 L 1400,1000 L 0,1000 Z" fill="#283e2f" /><circle cx="700" cy="620" fill="white" r="20" /><line stroke="white" stroke-width="4" x1="700" x2="700" y1="640" y2="740" /><line stroke="white" stroke-width="3" x1="700" x2="650" y1="640" y2="660" /><line stroke="white" stroke-width="3" x1="700" x2="750" y1="640" y2="660" /><line stroke="white" stroke-width="3" x1="700" x2="680" y1="740" y2="800" /><line stroke="white" stroke-width="3" x1="700" x2="720" y1="740" y2="800" /><circle cx="700" cy="500" fill="url(#sun_rad)" r="100" /><path d="M 400,300 q 20,-10.0 40,0" fill="none" stroke="white" stroke-width="2" /><path d="M 480,280 q 20,-10.0 40,0" fill="none" stroke="white" stroke-width="2" /><path d="M 560,260 q 20,-10.0 40,0" fill="none" stroke="white" stroke-width="2" /><path d="M 640,240 q 20,-10.0 40,0" fill="none" stroke="white" stroke-width="2" /><path d="M 720,220 q 20,-10.0 40,0" fill="none" stroke="white" stroke-width="2" /><text fill="white" font-family="serif" font-size="28px" opacity="0.8" x="560" y="880">We rise thinking.</text></svg>