<?xml version="1.0" encoding="utf-8" ?>
<svg baseProfile="full" height="2000px" version="1.1" width="2000px" xmlns="http://www.w3.org/2000/svg" xmlns:ev="http://www.w3.org/2001/xml-events" xmlns:xlink="http://www.w3.org/1999/xlink"><defs><linearGradient id="sky" x1="0%" x2="0%" y1="0%" y2="100%"><stop offset="0" stop-color="#b3d9ff" /><stop offset="1" stop-color="#e6f2ff" /></linearGradient></defs><rect fill="url(#sky)" height="100%" width="100%" x="0" y="0" /><rect fill="#4d3319" height="400" width="100%" x="0" y="1600" /><path d="M950,1600 C970,1300 1030,1300 1050,1600 Z" fill="#5c3a21" /><ellipse cx="1000" cy="1600" fill="none" opacity="0.3" rx="80" ry="10" stroke="#4b2d1a" stroke-width="1" /><ellipse cx="1000" cy="1580" fill="none" opacity="0.3" rx="75" ry="10" stroke="#4b2d1a" stroke-width="1" /><ellipse cx="1000" cy="1560" fill="none" opacity="0.3" rx="70" ry="10" stroke="#4b2d1a" stroke-width="1" /><ellipse cx="1000" cy="1540" fill="none" opacity="0.3" rx="65" ry="10" stroke="#4b2d1a" stroke-width="1" /><ellipse cx="1000" cy="1520" fill="none" opacity="0.3" rx="60" ry="10" stroke="#4b2d1a" stroke-width="1" /><ellipse cx="1000" cy="1500" fill="none" opacity="0.3" rx="55" ry="10" stroke="#4b2d1a" stroke-width="1" /><ellipse cx="1000" cy="1480" fill="none" opacity="0.3" rx="50" ry="10" stroke="#4b2d1a" stroke-width="1" /><ellipse cx="1000" cy="1460" fill="none" opacity="0.3" rx="45" ry="10" stroke="#4b2d1a" stroke-width="1" /><ellipse cx="1000" cy="1440" fill="none" opacity="0.3" rx="40" ry="10" stroke="#4b2d1a" stroke-width="1" /><ellipse cx="1000" cy="1420" fill="none" opacity="0.3" rx="35" ry="10" stroke="#4b2d1a" stroke-width="1" /><ellipse cx="1000" cy="1400" fill="none" opacity="0.3" rx="30" ry="10" stroke="#4b2d1a" stroke-width="1" /><ellipse cx="1000" cy="1380" fill="none" opacity="0.3" rx="25" ry="10" stroke="#4b2d1a" stroke-width="1" /><line stroke="#5c3a21" stroke-width="7.5" x1="1000" x2="1100.0" y1="1300" y2="1473.2050807568878" /><line stroke="#5c3a21" stroke-width="6.0" x1="1100.0" x2="1112.201803984672" y1="1473.2050807568878" y2="1612.6723384897323" /><line stroke="#5c3a21" stroke-width="4.5" x1="1112.201803984672" x2="1078.6838299387566" y1="1612.6723384897323" y2="1704.7622153267514" /><line stroke="#5c3a21" stroke-width="3.0" x1="1078.6838299387566" x2="1030.1763047493594" y1="1704.7622153267514" y2="1753.2697405161487" /><line stroke="#5c3a21" stroke-width="1.5" x1="1030.1763047493594" x2="985.05226509922" y1="1753.2697405161487" y2="1769.6935477986474" /><line stroke="#5c3a21" stroke-width="1.5" x1="1030.1763047493594" x2="1009.882175820571" y1="1753.2697405161487" y2="1796.7906404496487" /><line stroke="#5c3a21" stroke-width="3.0" x1="1078.6838299387566" x2="1078.6838299387566" y1="1704.7622153267514" y2="1773.3622153267513" /><line stroke="#5c3a21" stroke-width="1.5" x1="1078.6838299387566" x2="1058.3897010099681" y1="1773.3622153267513" y2="1816.8831152602513" /><line stroke="#5c3a21" stroke-width="1.5" x1="1078.6838299387566" x2="1095.1076372212551" y1="1773.3622153267513" y2="1818.4862549768907" /><line stroke="#5c3a21" stroke-width="4.5" x1="1112.201803984672" x2="1153.6183936352606" y1="1612.6723384897323" y2="1701.490501619324" /><line stroke="#5c3a21" stroke-width="3.0" x1="1153.6183936352606" x2="1153.6183936352606" y1="1701.490501619324" y2="1770.090501619324" /><line stroke="#5c3a21" stroke-width="1.5" x1="1153.6183936352606" x2="1133.3242647064721" y1="1770.090501619324" y2="1813.611401552824" /><line stroke="#5c3a21" stroke-width="1.5" x1="1153.6183936352606" x2="1170.0422009177591" y1="1770.090501619324" y2="1815.2145412694633" /><line stroke="#5c3a21" stroke-width="3.0" x1="1153.6183936352606" x2="1202.125918824658" y1="1701.490501619324" y2="1749.9980268087213" /><line stroke="#5c3a21" stroke-width="1.5" x1="1202.125918824658" x2="1218.5497261071564" y1="1749.9980268087213" y2="1795.1220664588607" /><line stroke="#5c3a21" stroke-width="1.5" x1="1202.125918824658" x2="1245.646818758158" y1="1749.9980268087213" y2="1770.2921557375098" /><line stroke="#5c3a21" stroke-width="6.0" x1="1100.0" x2="1207.246222036657" y1="1473.2050807568878" y2="1563.1953461130033" /><line stroke="#5c3a21" stroke-width="4.5" x1="1207.246222036657" x2="1248.6628116872455" y1="1563.1953461130033" y2="1652.013509242595" /><line stroke="#5c3a21" stroke-width="3.0" x1="1248.6628116872455" x2="1248.6628116872455" y1="1652.013509242595" y2="1720.613509242595" /><line stroke="#5c3a21" stroke-width="1.5" x1="1248.6628116872455" x2="1228.368682758457" y1="1720.613509242595" y2="1764.134409176095" /><line stroke="#5c3a21" stroke-width="1.5" x1="1248.6628116872455" x2="1265.086618969744" y1="1720.613509242595" y2="1765.7375488927344" /><line stroke="#5c3a21" stroke-width="3.0" x1="1248.6628116872455" x2="1297.1703368766428" y1="1652.013509242595" y2="1700.5210344319923" /><line stroke="#5c3a21" stroke-width="1.5" x1="1297.1703368766428" x2="1313.5941441591413" y1="1700.5210344319923" y2="1745.6450740821317" /><line stroke="#5c3a21" stroke-width="1.5" x1="1297.1703368766428" x2="1340.6912368101428" y1="1700.5210344319923" y2="1720.8151633607808" /><line stroke="#5c3a21" stroke-width="4.5" x1="1207.246222036657" x2="1299.336098873676" y1="1563.1953461130033" y2="1596.7133201589188" /><line stroke="#5c3a21" stroke-width="3.0" x1="1299.336098873676" x2="1347.8436240630733" y1="1596.7133201589188" y2="1645.220845348316" /><line stroke="#5c3a21" stroke-width="1.5" x1="1347.8436240630733" x2="1364.2674313455718" y1="1645.220845348316" y2="1690.3448849984554" /><line stroke="#5c3a21" stroke-width="1.5" x1="1347.8436240630733" x2="1391.3645239965733" y1="1645.220845348316" y2="1665.5149742771046" /><line stroke="#5c3a21" stroke-width="3.0" x1="1299.336098873676" x2="1367.936098873676" y1="1596.7133201589188" y2="1596.7133201589188" /><line stroke="#5c3a21" stroke-width="1.5" x1="1367.936098873676" x2="1411.456998807176" y1="1596.7133201589188" y2="1617.0074490877073" /><line stroke="#5c3a21" stroke-width="1.5" x1="1367.936098873676" x2="1413.0601385238153" y1="1596.7133201589188" y2="1580.2895128764203" /><line stroke="#5c3a21" stroke-width="7.5" x1="1000" x2="1000.0" y1="1300" y2="1520.0" /><line stroke="#5c3a21" stroke-width="6.0" x1="1000.0" x2="934.9167876919323" y1="1520.0" y2="1659.5713992036442" /><line stroke="#5c3a21" stroke-width="4.5" x1="934.9167876919323" x2="852.3371967237065" y1="1659.5713992036442" y2="1728.8639035278532" /><line stroke="#5c3a21" stroke-width="3.0" x1="852.3371967237065" x2="779.4484338719334" y1="1728.8639035278532" y2="1748.3943886712893" /><line stroke="#5c3a21" stroke-width="1.5" x1="779.4484338719334" x2="727.4289187423226" y1="1748.3943886712893" y2="1739.2219446305667" /><line stroke="#5c3a21" stroke-width="1.5" x1="779.4484338719334" x2="736.1791845885002" y1="1748.3943886712893" y2="1778.6918431922243" /><line stroke="#5c3a21" stroke-width="3.0" x1="852.3371967237065" x2="814.6071967237065" y1="1728.8639035278532" y2="1794.214180497427" /><line stroke="#5c3a21" stroke-width="1.5" x1="814.6071967237065" x2="771.3379474402733" y1="1794.214180497427" y2="1824.5116350183619" /><line stroke="#5c3a21" stroke-width="1.5" x1="814.6071967237065" x2="805.4347526829839" y1="1794.214180497427" y2="1846.2336956270378" /><line stroke="#5c3a21" stroke-width="4.5" x1="934.9167876919323" x2="925.5213986237347" y1="1659.5713992036442" y2="1766.9611876579343" /><line stroke="#5c3a21" stroke-width="3.0" x1="925.5213986237347" x2="887.7913986237347" y1="1766.9611876579343" y2="1832.311464627508" /><line stroke="#5c3a21" stroke-width="1.5" x1="887.7913986237347" x2="844.5221493403016" y1="1832.311464627508" y2="1862.608919148443" /><line stroke="#5c3a21" stroke-width="1.5" x1="887.7913986237347" x2="878.6189545830122" y1="1832.311464627508" y2="1884.330979757119" /><line stroke="#5c3a21" stroke-width="3.0" x1="925.5213986237347" x2="945.0518837671709" y1="1766.9611876579343" y2="1839.8499505097075" /><line stroke="#5c3a21" stroke-width="1.5" x1="945.0518837671709" x2="935.8794397264484" y1="1839.8499505097075" y2="1891.8694656393184" /><line stroke="#5c3a21" stroke-width="1.5" x1="945.0518837671709" x2="975.3493382881059" y1="1839.8499505097075" y2="1883.1191997931405" /><line stroke="#5c3a21" stroke-width="6.0" x1="1000.0" x2="1052.671102072153" y1="1520.0" y2="1664.7126636010298" /><line stroke="#5c3a21" stroke-width="4.5" x1="1052.671102072153" x2="1043.2757130039554" y1="1664.7126636010298" y2="1772.10245205532" /><line stroke="#5c3a21" stroke-width="3.0" x1="1043.2757130039554" x2="1005.5457130039554" y1="1772.10245205532" y2="1837.4527290248939" /><line stroke="#5c3a21" stroke-width="1.5" x1="1005.5457130039554" x2="962.2764637205222" y1="1837.4527290248939" y2="1867.7501835458288" /><line stroke="#5c3a21" stroke-width="1.5" x1="1005.5457130039554" x2="996.3732689632328" y1="1837.4527290248939" y2="1889.4722441545048" /><line stroke="#5c3a21" stroke-width="3.0" x1="1043.2757130039554" x2="1062.8061981473916" y1="1772.10245205532" y2="1844.9912149070933" /><line stroke="#5c3a21" stroke-width="1.5" x1="1062.8061981473916" x2="1053.633754106669" y1="1844.9912149070933" y2="1897.0107300367042" /><line stroke="#5c3a21" stroke-width="1.5" x1="1062.8061981473916" x2="1093.1036526683265" y1="1844.9912149070933" y2="1888.2604641905264" /><line stroke="#5c3a21" stroke-width="4.5" x1="1052.671102072153" x2="1121.963606396362" y1="1664.7126636010298" y2="1747.2922545692556" /><line stroke="#5c3a21" stroke-width="3.0" x1="1121.963606396362" x2="1141.494091539798" y1="1747.2922545692556" y2="1820.1810174210286" /><line stroke="#5c3a21" stroke-width="1.5" x1="1141.494091539798" x2="1132.3216474990754" y1="1820.1810174210286" y2="1872.2005325506395" /><line stroke="#5c3a21" stroke-width="1.5" x1="1141.494091539798" x2="1171.791546060733" y1="1820.1810174210286" y2="1863.4502667044617" /><line stroke="#5c3a21" stroke-width="3.0" x1="1121.963606396362" x2="1187.3138833659357" y1="1747.2922545692556" y2="1785.0222545692557" /><line stroke="#5c3a21" stroke-width="1.5" x1="1187.3138833659357" x2="1217.6113378868706" y1="1785.0222545692557" y2="1828.2915038526887" /><line stroke="#5c3a21" stroke-width="1.5" x1="1187.3138833659357" x2="1239.3333984955466" y1="1785.0222545692557" y2="1794.1946986099783" /><line stroke="#5c3a21" stroke-width="7.5" x1="1000" x2="900.0" y1="1300" y2="1473.2050807568878" /><line stroke="#5c3a21" stroke-width="6.0" x1="900.0" x2="785.3187137995411" y1="1473.2050807568878" y2="1553.5057818460343" /><line stroke="#5c3a21" stroke-width="4.5" x1="785.3187137995411" x2="688.8075540043448" y1="1553.5057818460343" y2="1570.5233032573935" /><line stroke="#5c3a21" stroke-width="3.0" x1="688.8075540043448" x2="622.5450423209147" y1="1570.5233032573935" y2="1552.7683167633606" /><line stroke="#5c3a21" stroke-width="1.5" x1="622.5450423209147" x2="585.7595881623414" y1="1552.7683167633606" y2="1521.901655746213" /><line stroke="#5c3a21" stroke-width="1.5" x1="622.5450423209147" x2="574.7077729185492" y1="1552.7683167633606" y2="1556.9535355301032" /><line stroke="#5c3a21" stroke-width="3.0" x1="688.8075540043448" x2="629.3982113047323" y1="1570.5233032573935" y2="1604.8233032573935" /><line stroke="#5c3a21" stroke-width="1.5" x1="629.3982113047323" x2="581.5609419023667" y1="1604.8233032573935" y2="1609.008522024136" /><line stroke="#5c3a21" stroke-width="1.5" x1="629.3982113047323" x2="598.5315502875847" y1="1604.8233032573935" y2="1641.608757415967" /><line stroke="#5c3a21" stroke-width="4.5" x1="785.3187137995411" x2="729.1082230371386" y1="1553.5057818460343" y2="1633.7826821863555" /><line stroke="#5c3a21" stroke-width="3.0" x1="729.1082230371386" x2="669.6988803375261" y1="1633.7826821863555" y2="1668.0826821863554" /><line stroke="#5c3a21" stroke-width="1.5" x1="669.6988803375261" x2="621.8616109351606" y1="1668.0826821863554" y2="1672.267900953098" /><line stroke="#5c3a21" stroke-width="1.5" x1="669.6988803375261" x2="638.8322193203785" y1="1668.0826821863554" y2="1704.8681363449289" /><line stroke="#5c3a21" stroke-width="3.0" x1="729.1082230371386" x2="711.3532365431057" y1="1633.7826821863555" y2="1700.0451938697856" /><line stroke="#5c3a21" stroke-width="1.5" x1="711.3532365431057" x2="680.4865755259581" y1="1700.0451938697856" y2="1736.830648028359" /><line stroke="#5c3a21" stroke-width="1.5" x1="711.3532365431057" x2="715.5384553098482" y1="1700.0451938697856" y2="1747.8824632721512" /><line stroke="#5c3a21" stroke-width="6.0" x1="900.0" x2="875.6892551266297" y1="1473.2050807568878" y2="1611.078166178597" /><line stroke="#5c3a21" stroke-width="4.5" x1="875.6892551266297" x2="819.4787643642272" y1="1611.078166178597" y2="1691.3550665189182" /><line stroke="#5c3a21" stroke-width="3.0" x1="819.4787643642272" x2="760.0694216646148" y1="1691.3550665189182" y2="1725.6550665189181" /><line stroke="#5c3a21" stroke-width="1.5" x1="760.0694216646148" x2="712.2321522622492" y1="1725.6550665189181" y2="1729.8402852856607" /><line stroke="#5c3a21" stroke-width="1.5" x1="760.0694216646148" x2="729.2027606474671" y1="1725.6550665189181" y2="1762.4405206774916" /><line stroke="#5c3a21" stroke-width="3.0" x1="819.4787643642272" x2="801.7237778701943" y1="1691.3550665189182" y2="1757.6175782023483" /><line stroke="#5c3a21" stroke-width="1.5" x1="801.7237778701943" x2="770.8571168530467" y1="1757.6175782023483" y2="1794.4030323609218" /><line stroke="#5c3a21" stroke-width="1.5" x1="801.7237778701943" x2="805.9089966369369" y1="1757.6175782023483" y2="1805.454847604714" /><line stroke="#5c3a21" stroke-width="4.5" x1="875.6892551266297" x2="892.706776537989" y1="1611.078166178597" y2="1707.5893259737934" /><line stroke="#5c3a21" stroke-width="3.0" x1="892.706776537989" x2="874.9517900439561" y1="1707.5893259737934" y2="1773.8518376572235" /><line stroke="#5c3a21" stroke-width="1.5" x1="874.9517900439561" x2="844.0851290268084" y1="1773.8518376572235" y2="1810.637291815797" /><line stroke="#5c3a21" stroke-width="1.5" x1="874.9517900439561" x2="879.1370088106986" y1="1773.8518376572235" y2="1821.689107059589" /><line stroke="#5c3a21" stroke-width="3.0" x1="892.706776537989" x2="927.0067765379889" y1="1707.5893259737934" y2="1766.998668673406" /><line stroke="#5c3a21" stroke-width="1.5" x1="927.0067765379889" x2="931.1919953047314" y1="1766.998668673406" y2="1814.8359380757715" /><line stroke="#5c3a21" stroke-width="1.5" x1="927.0067765379889" x2="963.7922306965622" y1="1766.998668673406" y2="1797.8653296905536" /><circle cx="1300.0" cy="1100.0" fill="#3c8c3c" opacity="0.8" r="15" /><circle cx="1319.5614511214635" cy="1110.0485035986453" fill="#2e7031" opacity="0.8" r="15" /><circle cx="1338.1374444252128" cy="1121.3238065066014" fill="#4da64d" opacity="0.8" r="15" /><circle cx="1355.5678026142496" cy="1133.7898444486898" fill="#3c8c3c" opacity="0.8" r="15" /><circle cx="1371.6960882788462" cy="1147.4038655064492" fill="#2e7031" opacity="0.8" r="15" /><circle cx="1289.7777478867206" cy="1146.5874281184538" fill="#4da64d" opacity="0.8" r="15" /><circle cx="1304.3380852144492" cy="1159.33126291999" fill="#3c8c3c" opacity="0.8" r="15" /><circle cx="1317.4173450090486" cy="1173.1070617072412" fill="#2e7031" opacity="0.8" r="15" /><circle cx="1328.8763647513363" cy="1187.8551149043728" fill="#4da64d" opacity="0.8" r="15" /><circle cx="1338.5824791915798" cy="1203.5098339406168" fill="#3c8c3c" opacity="0.8" r="15" /><circle cx="1259.8076211353316" cy="1190.0" fill="#2e7031" opacity="0.8" r="15" /><circle cx="1268.3745817425356" cy="1204.5706947228853" fill="#4da64d" opacity="0.8" r="15" /><circle cx="1275.0657780874822" cy="1219.9081914676644" fill="#3c8c3c" opacity="0.8" r="15" /><circle cx="1279.7725461245095" cy="1235.933204466765" fill="#2e7031" opacity="0.8" r="15" /><circle cx="1282.3950336814098" cy="1252.5617782498198" fill="#4da64d" opacity="0.8" r="15" /><circle cx="1212.1320343559642" cy="1227.2792206135784" fill="#3c8c3c" opacity="0.8" r="15" /><circle cx="1214.1217940348347" cy="1242.6838064916597" fill="#2e7031" opacity="0.8" r="15" /><circle cx="1213.9689329569446" cy="1258.537776137222" fill="#4da64d" opacity="0.8" r="15" /><circle cx="1211.6026908252902" cy="1274.7476707849887" fill="#3c8c3c" opacity="0.8" r="15" /><circle cx="1206.9628333057103" cy="1291.2168894915567" fill="#2e7031" opacity="0.8" r="15" /><circle cx="1150.0" cy="1255.884572681199" fill="#4da64d" opacity="0.8" r="15" /><circle cx="1145.276959916655" cy="1271.0732526441666" fill="#3c8c3c" opacity="0.8" r="15" /><circle cx="1138.290458645772" cy="1286.3632733590905" fill="#2e7031" opacity="0.8" r="15" /><circle cx="1129.0124618363081" cy="1301.6533721233957" fill="#4da64d" opacity="0.8" r="15" /><circle cx="1117.42645786248" cy="1316.840885715295" fill="#3c8c3c" opacity="0.8" r="15" /><circle cx="1077.6457135307562" cy="1273.8666487320322" fill="#2e7031" opacity="0.8" r="15" /><circle cx="1066.531741061683" cy="1287.8043393408907" fill="#4da64d" opacity="0.8" r="15" /><circle cx="1053.1877181136786" cy="1301.488421481408" fill="#3c8c3c" opacity="0.8" r="15" /><circle cx="1037.6302467763553" cy="1314.816729399547" fill="#2e7031" opacity="0.8" r="15" /><circle cx="1019.8876633723187" cy="1327.6875339240428" fill="#4da64d" opacity="0.8" r="15" /><circle cx="1000.0" cy="1280.0" fill="#3c8c3c" opacity="0.8" r="15" /><circle cx="983.252494002258" cy="1291.7368706728782" fill="#2e7031" opacity="0.8" r="15" /><circle cx="964.4603224889978" cy="1302.8824666551277" fill="#4da64d" opacity="0.8" r="15" /><circle cx="943.6835925855169" cy="1313.3406815685498" fill="#3c8c3c" opacity="0.8" r="15" /><circle cx="920.9935574892514" cy="1323.0176529673076" fill="#2e7031" opacity="0.8" r="15" /><circle cx="922.3542864692438" cy="1273.8666487320322" fill="#4da64d" opacity="0.8" r="15" /><circle cx="901.1145618000169" cy="1282.6028511286695" fill="#3c8c3c" opacity="0.8" r="15" /><circle cx="878.1548971545978" cy="1290.450407005429" fill="#2e7031" opacity="0.8" r="15" /><circle cx="853.5748084927119" cy="1297.3258188508019" fill="#4da64d" opacity="0.8" r="15" /><circle cx="827.4836100989722" cy="1303.1494875149479" fill="#3c8c3c" opacity="0.8" r="15" /><circle cx="850.0" cy="1255.884572681199" fill="#2e7031" opacity="0.8" r="15" /><circle cx="825.7155087951913" cy="1261.0247490455213" fill="#4da64d" opacity="0.8" r="15" /><circle cx="800.1530142205592" cy="1265.0394668524893" fill="#3c8c3c" opacity="0.8" r="15" /><circle cx="773.4446592220586" cy="1267.8635276747057" fill="#2e7031" opacity="0.8" r="15" /><circle cx="745.7303695836339" cy="1269.437020208846" fill="#4da64d" opacity="0.8" r="15" /><circle cx="787.8679656440357" cy="1227.2792206135787" fill="#3c8c3c" opacity="0.8" r="15" /><circle cx="762.1936558472339" cy="1228.4730764209007" fill="#2e7031" opacity="0.8" r="15" /><circle cx="735.7703731046299" cy="1228.3813597741669" fill="#4da64d" opacity="0.8" r="15" /><circle cx="708.753882025019" cy="1226.9616144951742" fill="#3c8c3c" opacity="0.8" r="15" /><circle cx="681.3051841807389" cy="1224.1776999834262" fill="#2e7031" opacity="0.8" r="15" /><circle cx="740.1923788646684" cy="1190.0" fill="#4da64d" opacity="0.8" r="15" /><circle cx="714.8779122597223" cy="1187.166175949993" fill="#3c8c3c" opacity="0.8" r="15" /><circle cx="689.3945444015158" cy="1182.9742751874633" fill="#2e7031" opacity="0.8" r="15" /><circle cx="663.9110464610073" cy="1177.407477101785" fill="#4da64d" opacity="0.8" r="15" /><circle cx="638.5985238078417" cy="1170.455874717488" fill="#3c8c3c" opacity="0.8" r="15" /><circle cx="710.2222521132795" cy="1146.5874281184538" fill="#2e7031" opacity="0.8" r="15" /><circle cx="686.9927677651822" cy="1139.9190446370098" fill="#4da64d" opacity="0.8" r="15" /><circle cx="664.1859641976532" cy="1131.912630868207" fill="#3c8c3c" opacity="0.8" r="15" /><circle cx="641.9721176674216" cy="1122.5781480658131" fill="#2e7031" opacity="0.8" r="15" /><circle cx="620.5207767932619" cy="1111.9325980233912" fill="#4da64d" opacity="0.8" r="15" /><circle cx="700.0" cy="1100.0" fill="#3c8c3c" opacity="0.8" r="15" /><circle cx="680.4385488785364" cy="1089.951496401355" fill="#2e7031" opacity="0.8" r="15" /><circle cx="661.8625555747872" cy="1078.6761934933986" fill="#4da64d" opacity="0.8" r="15" /><circle cx="644.4321973857504" cy="1066.2101555513102" fill="#3c8c3c" opacity="0.8" r="15" /><circle cx="628.3039117211539" cy="1052.5961344935508" fill="#2e7031" opacity="0.8" r="15" /><circle cx="710.2222521132795" cy="1053.4125718815462" fill="#4da64d" opacity="0.8" r="15" /><circle cx="695.6619147855508" cy="1040.66873708001" fill="#3c8c3c" opacity="0.8" r="15" /><circle cx="682.5826549909514" cy="1026.8929382927588" fill="#2e7031" opacity="0.8" r="15" /><circle cx="671.1236352486637" cy="1012.1448850956272" fill="#4da64d" opacity="0.8" r="15" /><circle cx="661.4175208084202" cy="996.4901660593833" fill="#3c8c3c" opacity="0.8" r="15" /><circle cx="740.1923788646684" cy="1010.0" fill="#2e7031" opacity="0.8" r="15" /><circle cx="731.6254182574643" cy="995.4293052771148" fill="#4da64d" opacity="0.8" r="15" /><circle cx="724.9342219125178" cy="980.0918085323356" fill="#3c8c3c" opacity="0.8" r="15" /><circle cx="720.2274538754905" cy="964.0667955332351" fill="#2e7031" opacity="0.8" r="15" /><circle cx="717.6049663185902" cy="947.4382217501803" fill="#4da64d" opacity="0.8" r="15" /><circle cx="787.8679656440357" cy="972.7207793864214" fill="#3c8c3c" opacity="0.8" r="15" /><circle cx="785.8782059651654" cy="957.3161935083403" fill="#2e7031" opacity="0.8" r="15" /><circle cx="786.0310670430551" cy="941.462223862778" fill="#4da64d" opacity="0.8" r="15" /><circle cx="788.3973091747096" cy="925.2523292150114" fill="#3c8c3c" opacity="0.8" r="15" /><circle cx="793.0371666942897" cy="908.7831105084433" fill="#2e7031" opacity="0.8" r="15" /><circle cx="849.9999999999999" cy="944.1154273188012" fill="#4da64d" opacity="0.8" r="15" /><circle cx="854.723040083345" cy="928.9267473558334" fill="#3c8c3c" opacity="0.8" r="15" /><circle cx="861.709541354228" cy="913.6367266409094" fill="#2e7031" opacity="0.8" r="15" /><circle cx="870.9875381636917" cy="898.3466278766044" fill="#4da64d" opacity="0.8" r="15" /><circle cx="882.5735421375199" cy="883.159114284705" fill="#3c8c3c" opacity="0.8" r="15" /><circle cx="922.3542864692438" cy="926.1333512679678" fill="#2e7031" opacity="0.8" r="15" /><circle cx="933.4682589383169" cy="912.1956606591093" fill="#4da64d" opacity="0.8" r="15" /><circle cx="946.8122818863214" cy="898.5115785185919" fill="#3c8c3c" opacity="0.8" r="15" /><circle cx="962.3697532236448" cy="885.1832706004529" fill="#2e7031" opacity="0.8" r="15" /><circle cx="980.1123366276812" cy="872.3124660759572" fill="#4da64d" opacity="0.8" r="15" /><circle cx="1000.0" cy="920.0" fill="#3c8c3c" opacity="0.8" r="15" /><circle cx="1016.7475059977421" cy="908.2631293271219" fill="#2e7031" opacity="0.8" r="15" /><circle cx="1035.539677511002" cy="897.1175333448723" fill="#4da64d" opacity="0.8" r="15" /><circle cx="1056.3164074144831" cy="886.6593184314502" fill="#3c8c3c" opacity="0.8" r="15" /><circle cx="1079.0064425107487" cy="876.9823470326924" fill="#2e7031" opacity="0.8" r="15" /><circle cx="1077.645713530756" cy="926.1333512679677" fill="#4da64d" opacity="0.8" r="15" /><circle cx="1098.8854381999831" cy="917.3971488713305" fill="#3c8c3c" opacity="0.8" r="15" /><circle cx="1121.8451028454022" cy="909.5495929945708" fill="#2e7031" opacity="0.8" r="15" /><circle cx="1146.425191507288" cy="902.6741811491981" fill="#4da64d" opacity="0.8" r="15" /><circle cx="1172.5163899010277" cy="896.8505124850521" fill="#3c8c3c" opacity="0.8" r="15" /><circle cx="1150.0" cy="944.115427318801" fill="#2e7031" opacity="0.8" r="15" /><circle cx="1174.2844912048085" cy="938.9752509544785" fill="#4da64d" opacity="0.8" r="15" /><circle cx="1199.8469857794407" cy="934.9605331475107" fill="#3c8c3c" opacity="0.8" r="15" /><circle cx="1226.5553407779414" cy="932.1364723252943" fill="#2e7031" opacity="0.8" r="15" /><circle cx="1254.269630416366" cy="930.562979791154" fill="#4da64d" opacity="0.8" r="15" /><circle cx="1212.1320343559642" cy="972.7207793864214" fill="#3c8c3c" opacity="0.8" r="15" /><circle cx="1237.806344152766" cy="971.5269235790993" fill="#2e7031" opacity="0.8" r="15" /><circle cx="1264.22962689537" cy="971.6186402258331" fill="#4da64d" opacity="0.8" r="15" /><circle cx="1291.246117974981" cy="973.0383855048258" fill="#3c8c3c" opacity="0.8" r="15" /><circle cx="1318.694815819261" cy="975.8223000165739" fill="#2e7031" opacity="0.8" r="15" /><circle cx="1259.8076211353314" cy="1009.9999999999999" fill="#4da64d" opacity="0.8" r="15" /><circle cx="1285.1220877402777" cy="1012.833824050007" fill="#3c8c3c" opacity="0.8" r="15" /><circle cx="1310.6054555984842" cy="1017.0257248125367" fill="#2e7031" opacity="0.8" r="15" /><circle cx="1336.0889535389924" cy="1022.5925228982151" fill="#4da64d" opacity="0.8" r="15" /><circle cx="1361.4014761921583" cy="1029.544125282512" fill="#3c8c3c" opacity="0.8" r="15" /><circle cx="1289.7777478867206" cy="1053.4125718815462" fill="#2e7031" opacity="0.8" r="15" /><circle cx="1313.0072322348178" cy="1060.0809553629902" fill="#4da64d" opacity="0.8" r="15" /><circle cx="1335.8140358023468" cy="1068.087369131793" fill="#3c8c3c" opacity="0.8" r="15" /><circle cx="1358.0278823325784" cy="1077.4218519341869" fill="#2e7031" opacity="0.8" r="15" /><circle cx="1379.479223206738" cy="1088.0674019766086" fill="#4da64d" opacity="0.8" r="15" /></svg>