<?xml version="1.0" encoding="utf-8" ?>
<svg baseProfile="full" height="2000px" version="1.1" width="2000px" xmlns="http://www.w3.org/2000/svg" xmlns:ev="http://www.w3.org/2001/xml-events" xmlns:xlink="http://www.w3.org/1999/xlink"><defs><radialGradient cx="50%" cy="50%" id="main_bg" r="70%"><stop offset="0.0" stop-color="#2a2a2a" /><stop offset="1.0" stop-color="#0e0e0e" /></radialGradient></defs><rect fill="url(#main_bg)" height="100%" width="100%" x="0" y="0" /><polyline fill="none" points="601.3,1400.0 601.3105116549248,1400.0686810055593 601.3174797824378,1400.138472705011 601.3208170502999,1400.2091968692828 601.3204448362301,1400.280669214264 601.3162936182305,1400.3526998120071 601.3083033463423,1400.425093525874 601.2964237944193,1400.4976504688418 601.2806148905318,1400.570166484098 601.2608470246523,1400.6424336469797 601.2371013323112,1400.7142407872248 601.209369952953,1400.7853740304326 601.1776562617773,1400.855617357553 601.1419750738952,1400.924753181147 601.1023528196909,1400.9925629370928 601.0588276903413,1401.0588276903413 601.01144975251,1401.1233287532584 600.9602810312983,1401.1858483150247 600.9053955606178,1401.246170080509 600.8468794002151,1401.3040799169676 600.7848306186698,1401.3593665068718 600.7193592417641,1401.4118220051182 600.6505871657135,1401.4612426988226 600.5786480348391,1401.507429667866 600.5036870833518,1401.5501894443196 600.4258609410189,1401.5893346688415 600.3453374025819,1401.6246847421157 600.2622951608922,1401.656066469375 600.1769235038386,1401.6833146960382 600.0894219752416,1401.706272932473 600.0,1401.7247939658978 599.9088764738767,1401.7387404574254 599.8162793184272,1401.7479855222623 599.722445001674,1401.7524132910862 599.6276180252494,1401.751919450639 599.5320503788283,1401.7464117615953 599.4360009627925,1401.7358105517962 599.3397349801659,1401.72004918297 599.2435232989774,1401.6990744890984 599.1476417863074,1401.6728471846466 599.0523706153821,1401.6413422409034 598.9579935471824,1401.6045492287626 598.8647971881346,1401.5624726263195 598.7730702255483,1401.5151320897387 598.6831026425605,1401.4625626859179 598.5951849144413,1401.4048150855588 598.5096071882002,1401.341955715337 598.4266584475193,1401.2740668679612 598.3466256651195,1401.2012467690033 598.2697929447429,1401.1236095994877 598.1964406550029,1401.0412854733336 598.1268445574232,1400.954420368852 598.0612749310449,1400.8631760136257 597.9999956960378,1400.7677297222072 597.9432635387992,1400.6682741862046 597.8913270410691,1400.565017216447 597.844425815625,1400.4581814370554 597.8027896511509,1400.3480039313777 597.7666376688971,1400.2347358398818 597.736177493766,1400.1186419102428 597.7116044424633,1400.0 597.6931007313616,1399.879100532301 597.6808347067116,1399.7562459053943 597.6749600998271,1399.6317498566789 597.6756153098452,1399.5059367822623 597.6829227166365,1399.3791410131223 597.6969880263999,1399.251706049117 597.7178996524356,1399.1239837522282 597.7457281335322,1398.9963335005646 597.7805255923479,1398.8691213047996 597.8223252360896,1398.742718888849 597.8711409017262,1398.6175027367335 597.9269666478796,1398.493853107711 597.9897763954466,1398.3721530218809 598.0595236189089,1398.252787218601 598.1361410901739,1398.1361410901739 598.2195406766806,1398.0225995933772 598.3096131953772,1397.912546141527 598.406228324053,1397.8063614798675 598.5092345713681,1397.7044225471836 598.6184593067825,1397.6071013266233 598.7337088514417,1397.5147636888114 598.854768630916,1397.4277682304087 598.9814033905359,1397.3464651113509 599.1133574738993,1397.2711948940605 599.2503551649569,1397.2022873879878 599.392101093908,1397.1400605028807 599.5382807069623,1397.0848191142281 599.68856079984,1397.0368539443464 599.8425901147007,1396.996440462603 600.0,1396.9638378082873 600.1604051325904,1396.9392877396294 600.3234043011838,1396.9230136124743 600.4885812501086,1396.9152193920845 600.655505582097,1396.916088701535 600.8237337186463,1396.9257839101044 600.9928099163083,1396.944445265034 601.1622673370656,1396.9721900699594 601.3316291707692,1397.0091119132487 601.5004098074185,1397.0552799493976 601.6681160568853,1397.1107382365533 601.8342484135019,1397.1755051331158 601.9983023627507,1397.2495727562753 602.1597697271268,1397.3329065052008 602.3181400480742,1397.4254446514822 602.472902000733,1397.527097999267 602.6235448380824,1397.6377496173939 602.7695598609113,1397.7572546456563 602.9104419099119,1397.8854401771598 603.045690876053,1398.0221052185589 603.1748132252654,1398.1670207297661 603.2973235333603,1398.319929744536 603.4127460269859,1398.4805475731132 603.5206161263394,1398.6485620879325 603.6204819852582,1398.8236340931333 603.7119060242424,1399.0053977784241 603.7944664518957,1399.1934612576129 603.8677587702153,1399.3874071918692 603.9313972591274,1399.5867934975538 603.9850164356287,1399.7911541382023 604.0282724828872,1400.0 604.0608446446435,1400.2128198498392 604.0824365802725,1400.4290813747903 604.0927776758855,1400.648232301568 604.0916243068896,1400.869701594318 604.0787610474755,1401.0929007287905 604.0540018225694,1401.317225040717 604.017190997861,1401.542055145947 603.9682044036189,1401.7667584296587 603.9069502881057,1401.9906906016995 603.8333701965325,1402.2131973148716 603.7474397716239,1402.433615842743 603.6491694720136,1402.6512768133166 603.5386052048578,1402.8655059946745 603.415828869226,1403.0756261284803 603.2809588070162,1403.2809588070163 603.134150158353,1403.4808263892207 602.9755951186288,1403.6745539509943 602.8055230945882,1403.8614712648557 602.624200757085,1404.040914803851 602.4319319883962,1404.2122297644542 602.2290577222375,1404.3747721030406 602.0159556748949,1404.5279105803747 601.7930399661689,1404.6710288084253 601.5607606291168,1404.8035272937038 601.3196030078791,1404.9248254712254 601.0700870431787,1405.0343637231013 600.8127664453973,1405.1316053757046 600.548227755453,1405.2160386693001 600.2770892940242,1405.2871786939816 600.0,1405.344569285751 599.7176381593647,1405.3877848765612 599.4307100260637,1405.4164322921652 599.1399483367351,1405.4301524916375 598.8461107215297,1405.4286222424953 598.5499780135821,1405.4115557254038 598.2523524600323,1405.3787060625434 597.9540558378377,1405.329866763823 597.6559274779426,1405.2648730852393 597.3588222017071,1405.1836032938365 597.0636081738216,1405.0859798338709 596.771164676249,1404.9719703889712 596.4823798080512,1404.8415888352827 596.1981481162624,1404.694896080795 595.9193681632611,1404.5320007862927 595.6469400363839,1404.3530599636163 595.3817628057955,1404.1582794471885 595.1247319368915,1403.9479142350508 594.8767366637609,1403.7222686959483 594.6386573304698,1403.4816966393269 594.4113627071494,1403.2266012454306 594.1957072880748,1402.957434853041 593.9925285791112,1402.674698602751 593.8026443820715,1402.3789419340474 593.6268500836876,1402.070761934855 593.4659159570233,1401.7508025425927 593.320584483277,1401.4197535962 593.1915677020122,1401.0783497390044 593.079544597924,1400.7273691727255 592.9851585323053,1400.3676322633444 592.9090147273952,1400.0 592.8516778118087,1399.6253723085172 592.8136694352148,1399.2446862216218 592.7954659603988,1398.8589139083388 592.7974962407732,1398.4690605655233 592.8201394913104,1398.0761621749286 592.8637232607591,1397.681283129652 592.9285215128605,1397.2855137342606 593.014752824124,1396.8899675833295 593.122578705525,1396.4957788235702 593.2521020552781,1396.1040993051506 593.4033657495997,1395.7160956282432 593.5763513781122,1395.3329460912355 593.7709781302517,1394.9558375474553 593.987101838737,1394.5859621776476 594.224514185818,1394.224514185818 594.4829420776709,1393.8726864264238 594.7620471919247,1393.531666971243 595.061425702906,1393.2026356245763 595.380608188771,1392.8867603957565 595.7190597242484,1392.5851939382303 596.0761801622608,1392.2990699647435 596.4513046072152,1392.0294996484208 596.8437040822566,1391.7775680197492 597.2525863922701,1391.5443303696786 597.6770971838904,1391.330808669234 598.1163212032403,1391.1379880161783 598.5692837515676,1390.9668131193896 599.034952338387,1390.8181848317188 599.5122385311647,1390.6929567421462 600.0,1390.5919318381082 600.4970427551752,1390.515859248857 601.0021235748508,1390.465431080701 601.5139526195903,1390.4412793549157 602.0311962298003,1390.4439730590223 602.5524799015764,1390.4740153220184 603.0763914358477,1390.5318407239847 603.6014842551232,1390.6178127503117 604.1262808815537,1390.7322214005724 604.6492765694445,1390.8752809618093 605.1689430847795,1391.04712795573 605.683732623761,1391.2478192689805 606.192081861813,1391.477330475323 606.6924161239673,1391.7355543581634 607.1831536670277,1392.0222996414577 607.6627100634075,1392.3372899365925 608.1295026760524,1392.6801629123522 608.5819552133983,1393.0504696945954 609.0185023528769,1393.4476745017184 609.4375944210651,1393.871154521442 609.8377021181869,1394.3202000338574 610.2173212743168,1394.7940147850748 610.5749776243002,1395.2917166151656 610.9092315881094,1395.8123383434524 611.2186830430801,1396.3548289135092 611.5019760742454,1396.9180547995438 611.757803688777,1397.5008016751224 611.984912480388,1398.1017763444552 612.1821072294161,1398.7196089357278 612.3482554242281,1399.3528553551964 612.4822916895281,1400.0 612.5832221071519,1400.6594587268612 612.6501284149571,1401.3295820730666 612.682172069496,1402.0086587253265 612.6785981582735,1402.6949192313184 612.6387391475521,1403.3865399479341 612.5620184518699,1404.0816472194538 612.4479538116816,1404.7783217780866 612.296160465823,1405.4746033585411 612.1063541058342,1406.168495517514 611.878353599548,1406.8579706482285 611.6120834717768,1407.5409751794152 611.3075761303878,1408.2154349473851 610.9649738265618,1408.879260729151 610.5845303385805,1409.530353923851 610.1666123690693,1410.1666123690693 609.7117006462538,1410.7859362780043 609.2203907204508,1411.3862342828268 608.6933934477189,1411.9654295689827 608.1315351533365,1412.5214660846495 607.5357574685459,1413.0523148090379 606.9071168348127,1413.5559800627548 606.2467836706919,1414.0305058429983 605.5560411972576,1414.4739821659641 604.8362839189575,1414.8845513984809 604.0890157576728,1415.2604145605844 603.315847838716,1415.5998375804725 602.5184959284678,1415.901157483067 601.6987775243433,1416.1627884932443 600.8586085987848,1416.3832280346724 600.0,1416.5610626051346 599.1250535131933,1416.694973509206 598.2359575870836,1416.783742429193 597.3349827315451,1416.8262568153423 596.4244765932614,1416.8215150764875 595.5068587173316,1416.7686315525036 594.5846150038172,1416.6668412502174 593.66029186926,1416.5155043247412 592.7364901242339,1416.314110288587 591.8158585790186,1416.062281931358 590.9010873904853,1415.7597789333086 589.9949011642764,1415.4065011566329 589.1000518273261,1415.002491598941 588.2193112867128,1414.5479389940629 587.3554638917468,1414.0431800460356 586.5112987170822,1413.4887012829179 585.6896016854919,1412.8851405178962 584.8931475497546,1412.2332879060416 584.1246917538791,1411.534086586001 583.3869621946169,1410.788632896893 582.6826509049017,1409.9981761617057 582.0144056814838,1409.1641180295665 581.384821679617,1408.2880113703682 580.7964329981786,1407.3715587163922 580.2517042790798,1406.416610246759 579.7530223452341,1405.4251613117656 579.3026879017036,1404.3993494954252 578.9029073249345,1403.3414512158151 578.5557845652071,1402.2538778641463 578.2633131875914,1401.1391714848094 578.027368576775,1400.0 577.8497003311516,1398.8391519839017 577.7319248714956,1397.65953099278 577.6755182894232,1396.464149458735 577.6818094606267,1395.2561221562544 577.751973447598,1394.0386592520977 577.8870252161904,1392.8150589504387 578.0878136899436,1391.5886997465739 578.3550161655792,1390.3630323038763 578.6891331124951,1389.1415709700282 579.0904833784194,1387.9278849499055 579.5591998226472,1386.725589153794 580.0952253974716,1385.5383347409022 580.698309697531,1384.3697993793858 581.3680059958313,1383.2236772453134 582.103668784173,1382.103668784173 582.9044518346054,1381.0134702596474 583.7693067973603,1379.9567631154673 584.6969823494785,1378.9372031771709 585.6860239070398,1377.9584097215711 586.7347739125432,1377.0239544426368 587.8413727075601,1376.1373503433358 589.0037599993049,1375.3020405837622 590.2196769282348,1374.521387316572 591.4866687422091,1373.7986605413776 592.802088081111,1373.137027010301 594.1630988741653,1372.5395392173493 595.5666808504769,1372.009124504661 597.0096346615767,1371.5485743189658 598.4885876129831,1371.1605336518048 600.0,1370.8474906971724 601.5401720411468,1370.6117667602623 603.1052514007878,1370.4555064509198 604.6912412906851,1370.380668195231 606.2940091383452,1370.389015098408 607.9092958081868,1370.4821061917553 609.5327253597039,1370.6612880960263 611.1598153249726,1370.9276871329118 612.7859874860205,1371.2822019157188 614.4065791307888,1371.7254964495226 616.0168547646366,1372.2579937701978 617.6120182526039,1372.8798701507524 619.1872253659435,1373.5910499023096 620.7375967047757,1374.391200795902 622.2582309671062,1375.279730129973 623.7442185328982,1376.2557814671018 625.1906553303846,1377.3182320620087 626.5926569503869,1378.4656910013443 627.9453729730368,1379.696498074117 629.2440014700206,1381.0087233898894 630.4838036442569,1382.4001677600645 631.6601185678066,1383.8683638556913 632.7683779777822,1385.410578153259 633.8041210890963,1387.0238136779137 634.7630093820565,1388.7048135514406 635.6408413220846,1390.4500653501816 636.4335669682234,1392.2558062758599 637.1373024265835,1394.1180291400024 637.7483441044913,1396.0324891603518 638.2631827208315,1397.9947115653 638.6785170279215,1400.0 638.9912672002293,1402.0434457253957 639.198587845355,1404.1199375989804 639.2978805929168,1406.2241728236495 639.2868062173524,1408.350668448557 639.1632962511338,1410.4937736034321 638.9255640455303,1412.6476824453682 638.5721152368062,1414.8064477946516 638.1017575766468,1416.963995433795 637.5136100866313,1419.1141390415494 636.8071114977411,1421.2505957313133 635.982027937191,1423.3670021610567 635.0384598263031,1425.4569311796165 633.9768479547062,1427.5139089720155 632.7979786978376,1429.5314326643274 631.5029883465406,1431.5029883465406 630.0933665194943,1433.4220694698922 628.5709586312774,1435.2821955732452 626.9379673910446,1437.076931291276 625.1969533090888,1438.799905595538 623.3508341909655,1440.4448312178686 621.4028836013563,1442.0055242041255 619.3567282824596,1443.4759235448757 617.2163445143851,1444.8501108284256 614.9860534078204,1446.1223298604777 612.6705151220965,1447.287006193734 610.2747220047237,1448.338766509944 607.8039906514697,1449.2724577962267 605.2639528891226,1450.0831662569708 602.6605456861964,1450.7662359022593 600.0,1451.3172867535663 597.2888285716905,1451.7322326074354 594.5338126841561,1452.0072982979884 591.7419879008185,1452.1390363994133 588.9206288067044,1452.1243433100672 586.0772327763864,1451.9604746604812 583.2195027966437,1451.6450599883854 580.3553293749259,1451.176116624892 577.4927715679013,1450.5520627371561 574.6400371675406,1449.771729474205 571.8054620853047,1448.8343721641793 568.997488978067,1447.73968051295 566.2246451624005,1446.4877877559704 563.4955198667731,1445.079278717312 560.8187408740382,1443.515196732059 558.2029506093359,1441.7970493906641 555.6567817311625,1439.9268130664432 553.1888322858762,1437.906936190111 550.8076404883063,1435.7403412381746 548.5216591933923,1433.4304254050203 546.3392301258948,1430.9810599317373 544.2685579371908,1428.3965880680255 542.3176841599707,1425.681821647008 540.4944611332935,1422.8420362563306 538.8065259719212,1419.8829649926395 537.2612746551335,1416.810790790315 535.8658363113107,1413.6321373192502 534.6270477754706,1410.3540584504449 533.5514284976293,1406.9840262922535 532.6451558803357,1403.5299178042671 531.9140411239995,1400.0 531.3635056586703,1396.402913753798 530.9985582407539,1392.7476562316654 530.8237727927415,1389.0435619700154 530.843267063391,1385.3002826306624 531.060682184934,1381.5277654647005 531.4791632027698,1377.7362305222193 532.1013406517704,1373.9361466490934 532.9293132517412,1370.1382063163323 533.9646317927626,1366.3532993316774 535.2082842790874,1362.5924854872735 536.6606823979793,1358.8669662012992 538.3216493773556,1355.188055215423 540.1904092933482,1351.567148413825 542.2655778859132,1348.0156928332776 544.5451549374216,1344.5451549374216 547.0265182657441,1341.1669882318597 549.7064193797089,1337.892600300036 552.5809808409743,1334.7333193430409 555.6456953723253,1331.7003603094847 558.8954267481693,1328.8047907043926 562.324412498602,1326.057496168678 565.9262684538276,1323.4691459231567 569.6939951509698,1321.0501581732344 573.619986120413,1318.810665572341 577.6960380637643,1316.7604808438862 581.9133629303587,1314.9090626629568 586.2626018939379,1313.2654819001566 590.7338412257304,1311.838388330907 595.3166300546807,1310.6359779141637 600.0000000000001,1309.6659607448503 604.7724866555875,1308.935529784379 609.6221529001848,1308.4513304733853 614.5366140014238,1308.219431330263 619.5030644761823,1308.2452956382522 624.5083066639494,1308.5337543226617 629.5387809641666,1309.0889801183584 634.5805976828385,1309.9144631258614 639.6195704280591,1311.0129878522912 644.6412509885339,1312.3866118310111 649.6309656236823,1314.036645911078 654.5738526885167,1315.963636304575 659.4549015112201,1318.1673484765624 664.2589924362006,1320.6467529587287 668.9709379404175,1323.4000131638645 673.5755247259501,1326.4244752740497 678.0575566871423,1329.716660270889 682.4018986462333,1333.2722581713267 686.5935207471575,1337.0861245274752 690.617543393229,1341.1522792435321 694.4592826106907,1345.4639077572588 698.1042957166483,1350.0133646276404 701.5384271667293,1354.7921795642606 704.747854454919,1359.7910659276324 707.719133935453,1364.999931723221 710.4392464343874,1370.4078931052043 712.8956425165569,1376.0032903991525 715.076287272052,1381.7737066457903 716.9697044851389,1387.7059886608372 718.5650200477018,1393.7862705986506 719.8520044788168,1399.9999999999998 720.8211144119903,1406.3319662968345 721.4635329119088,1412.7663317393735 721.771208483258,1419.2866647032633 721.7368926352951,1425.875975326951 721.3541758673871,1432.5167534218108 720.6175219426727,1439.1910085899792 719.5223003193707,1445.8803124773085 718.064816612036,1452.5658430813698 716.24234095826,1459.2284310270418 714.053134169933,1465.848607714931 711.4964715522049,1472.4066552407319 708.5726642777281,1478.8826579766178 705.2830782086047,1485.2565556989491 701.6301500637085,1491.5081981399594 697.6174008346821,1497.6174008346823 693.2494463599377,1503.5640021282404 688.5320049723729,1509.3279212027303 683.471902143276,1514.8892169773444 678.0770720519979,1520.2281477300985 672.3565560184068,1525.3252312845837 666.3204977429093,1530.1613056005638 659.98013530689,1534.717589603025 653.3477898947726,1538.975744080454 646.4368512075396,1542.9179324797008 639.2617595464216,1546.5268814217975 631.8379845545727,1549.7859407605524 624.1820006138652,1552.6791430036637 616.3112589034365,1555.1912619144784 608.244156136284,1557.3078701114105 599.9999999999999,1559.0153954814039 591.5989713376545,1560.301176223734 583.0620831148293,1561.1535143408423 574.4111362288593,1561.5617273938556 565.668672226426,1561.5161983419316 556.8579230057483,1561.0084232865966 548.0027575896565,1560.0310569448254 539.1276260658699,1558.5779556777547 530.2575008007075,1556.6442179055966 521.4178150422777,1554.2262217435746 512.6343990388555,1551.3216596984907 503.9334138076458,1547.9295702708798 495.3412826984197,1544.0503663135985 486.88462090555254,1539.6858600041173 478.59016309077924,1534.8392842947515 470.48468928746854,1529.515310712532 462.59494926536877,1523.7200633884122 454.9475855425966,1517.4611292039904 447.5690552390372,1510.7475639528757 440.48555097234726,1503.5898944232752 433.72292100430604,1496.0001163182287 427.3065888513552,1487.9916879402394 421.2614725787689,1479.5795195777384 415.6119040029763,1470.779958541915 410.381548031089,1461.6107698138924 405.5933223706571,1452.091112274 401.2693178460513,1442.2415104969812 397.4307195606358,1432.0838221093331 394.09772914602695,1421.6412007175734 391.28948834122866,1410.9380544290639 389.0240041452424,1400.0000000000002 387.3180757869046,1388.8538126583478 386.18722375514074,1377.527371662753 385.6456211315732,1366.0496016718107 385.70602746544336,1354.4504100114445 386.37972542811667,1342.760619941549 387.6764604810078,1331.0119000363934 389.60438378660956,1319.236689806565 392.1699985874151,1307.4681217034033 395.3781102718915,1295.7399396598867 399.2317803403042,1284.0864143347533 403.73228447609586,1272.542255239248 408.8790749207159,1261.142519938174 414.66974734126666,1249.9225205289615 421.10001237109833,1238.9177276141036 428.1636719935695,1228.1636719935696 435.8526009285905,1217.6958443146307 444.15673317031576,1207.5495929268895 453.06405381245725,1197.7600202001406 462.5605962851849,1188.3618775719879 472.63044511448317,1179.3894596008515 483.25574430115995,1170.8764973080781 494.4167114025127,1162.856051100303 506.09165738492663,1155.3604035699545 518.2570123005205,1148.4209524777937 530.8873568253055,1142.0681042266626 543.9554596803044,1136.3311681400821 557.4323209406791,1131.238251863012 571.2872212211892,1126.8161582049252 585.4877767092994,1123.0902837473063 600.0000000000002,1120.0845195387883 614.7883666689611,1117.821154201315 629.8158875030379,1116.3207797700002 645.0441862894528,1115.6022005876584 660.4335830472161,1115.6823455723982 675.9431825665761,1116.5761841730573 691.5309681046042,1118.2966463227453 707.1539000673632,1120.854546695219 722.7680194916641,1124.2585135623326 738.3285561221337,1128.5149225433415 753.7900408623088,1133.6278355283873 769.1064223617643,1139.5989450490883 784.2311874849374,1146.4275243587972 799.1174853913892,1154.1103834737644 813.7182549417755,1162.6418314142086 827.9863551288723,1172.0136448711266 841.8746982186353,1182.2150435106205 855.3363852725266,1193.2326721125785 868.3248437093074,1205.0505897247958 880.7939665521421,1217.6502659969908 892.6982529953185,1231.0105848418193 903.9929499141588,1245.1078555518507 914.634193931835,1259.9158314826182 924.5791536478672,1275.4057363923496 933.7861716250998,1291.5462985088282 942.2149057249578,1308.3037923731051 949.8264693748625,1325.6420884885163 956.5835703467953,1343.5227107816972 962.450647622259,1361.9049018601127 967.3940059162543,1380.745696028028" stroke="lime" stroke-width="2" /><polyline fill="none" points="601.3,1400.0 601.3105116549248,1399.9313189944407 601.3174797824378,1399.861527294989 601.3208170502999,1399.7908031307172 601.3204448362301,1399.719330785736 601.3162936182305,1399.6473001879929 601.3083033463423,1399.574906474126 601.2964237944193,1399.5023495311582 601.2806148905318,1399.429833515902 601.2608470246523,1399.3575663530203 601.2371013323112,1399.2857592127752 601.209369952953,1399.2146259695674 601.1776562617773,1399.144382642447 601.1419750738952,1399.075246818853 601.1023528196909,1399.0074370629072 601.0588276903413,1398.9411723096587 601.01144975251,1398.8766712467416 600.9602810312983,1398.8141516849753 600.9053955606178,1398.753829919491 600.8468794002151,1398.6959200830324 600.7848306186698,1398.6406334931282 600.7193592417641,1398.5881779948818 600.6505871657135,1398.5387573011774 600.5786480348391,1398.492570332134 600.5036870833518,1398.4498105556804 600.4258609410189,1398.4106653311585 600.3453374025819,1398.3753152578843 600.2622951608922,1398.343933530625 600.1769235038386,1398.3166853039618 600.0894219752416,1398.293727067527 600.0,1398.2752060341022 599.9088764738767,1398.2612595425746 599.8162793184272,1398.2520144777377 599.722445001674,1398.2475867089138 599.6276180252494,1398.248080549361 599.5320503788283,1398.2535882384047 599.4360009627925,1398.2641894482038 599.3397349801659,1398.27995081703 599.2435232989774,1398.3009255109016 599.1476417863074,1398.3271528153534 599.0523706153821,1398.3586577590966 598.9579935471824,1398.3954507712374 598.8647971881346,1398.4375273736805 598.7730702255483,1398.4848679102613 598.6831026425605,1398.5374373140821 598.5951849144413,1398.5951849144412 598.5096071882002,1398.658044284663 598.4266584475193,1398.7259331320388 598.3466256651195,1398.7987532309967 598.2697929447429,1398.8763904005123 598.1964406550029,1398.9587145266664 598.1268445574232,1399.045579631148 598.0612749310449,1399.1368239863743 597.9999956960378,1399.2322702777928 597.9432635387992,1399.3317258137954 597.8913270410691,1399.434982783553 597.844425815625,1399.5418185629446 597.8027896511509,1399.6519960686223 597.7666376688971,1399.7652641601182 597.736177493766,1399.8813580897572 597.7116044424633,1400.0 597.6931007313616,1400.120899467699 597.6808347067116,1400.2437540946057 597.6749600998271,1400.3682501433211 597.6756153098452,1400.4940632177377 597.6829227166365,1400.6208589868777 597.6969880263999,1400.748293950883 597.7178996524356,1400.8760162477718 597.7457281335322,1401.0036664994354 597.7805255923479,1401.1308786952004 597.8223252360896,1401.257281111151 597.8711409017262,1401.3824972632665 597.9269666478796,1401.506146892289 597.9897763954466,1401.6278469781191 598.0595236189089,1401.747212781399 598.1361410901739,1401.8638589098261 598.2195406766806,1401.9774004066228 598.3096131953772,1402.087453858473 598.406228324053,1402.1936385201325 598.5092345713681,1402.2955774528164 598.6184593067825,1402.3928986733767 598.7337088514417,1402.4852363111886 598.854768630916,1402.5722317695913 598.9814033905359,1402.6535348886491 599.1133574738993,1402.7288051059395 599.2503551649569,1402.7977126120122 599.392101093908,1402.8599394971193 599.5382807069623,1402.9151808857719 599.68856079984,1402.9631460556536 599.8425901147007,1403.003559537397 600.0,1403.0361621917127 600.1604051325904,1403.0607122603706 600.3234043011838,1403.0769863875257 600.4885812501086,1403.0847806079155 600.655505582097,1403.083911298465 600.8237337186463,1403.0742160898956 600.9928099163083,1403.055554734966 601.1622673370656,1403.0278099300406 601.3316291707692,1402.9908880867513 601.5004098074185,1402.9447200506024 601.6681160568853,1402.8892617634467 601.8342484135019,1402.8244948668842 601.9983023627507,1402.7504272437247 602.1597697271268,1402.6670934947992 602.3181400480742,1402.5745553485178 602.472902000733,1402.472902000733 602.6235448380824,1402.3622503826061 602.7695598609113,1402.2427453543437 602.9104419099119,1402.1145598228402 603.045690876053,1401.9778947814411 603.1748132252654,1401.8329792702339 603.2973235333603,1401.680070255464 603.4127460269859,1401.5194524268868 603.5206161263394,1401.3514379120675 603.6204819852582,1401.1763659068667 603.7119060242424,1400.9946022215759 603.7944664518957,1400.8065387423871 603.8677587702153,1400.6125928081308 603.9313972591274,1400.4132065024462 603.9850164356287,1400.2088458617977 604.0282724828872,1400.0 604.0608446446435,1399.7871801501608 604.0824365802725,1399.5709186252097 604.0927776758855,1399.351767698432 604.0916243068896,1399.130298405682 604.0787610474755,1398.9070992712095 604.0540018225694,1398.682774959283 604.017190997861,1398.457944854053 603.9682044036189,1398.2332415703413 603.9069502881057,1398.0093093983005 603.8333701965325,1397.7868026851284 603.7474397716239,1397.566384157257 603.6491694720136,1397.3487231866834 603.5386052048578,1397.1344940053255 603.415828869226,1396.9243738715197 603.2809588070162,1396.7190411929837 603.134150158353,1396.5191736107793 602.9755951186288,1396.3254460490057 602.8055230945882,1396.1385287351443 602.624200757085,1395.959085196149 602.4319319883962,1395.7877702355458 602.2290577222375,1395.6252278969594 602.0159556748949,1395.4720894196253 601.7930399661689,1395.3289711915747 601.5607606291168,1395.1964727062962 601.3196030078791,1395.0751745287746 601.0700870431787,1394.9656362768987 600.8127664453973,1394.8683946242954 600.548227755453,1394.7839613306999 600.2770892940242,1394.7128213060184 600.0,1394.655430714249 599.7176381593647,1394.6122151234388 599.4307100260637,1394.5835677078348 599.1399483367351,1394.5698475083625 598.8461107215297,1394.5713777575047 598.5499780135821,1394.5884442745962 598.2523524600323,1394.6212939374566 597.9540558378377,1394.670133236177 597.6559274779426,1394.7351269147607 597.3588222017071,1394.8163967061635 597.0636081738216,1394.9140201661291 596.771164676249,1395.0280296110288 596.4823798080512,1395.1584111647173 596.1981481162624,1395.305103919205 595.9193681632611,1395.4679992137073 595.6469400363839,1395.6469400363837 595.3817628057955,1395.8417205528115 595.1247319368915,1396.0520857649492 594.8767366637609,1396.2777313040517 594.6386573304698,1396.5183033606731 594.4113627071494,1396.7733987545694 594.1957072880748,1397.042565146959 593.9925285791112,1397.325301397249 593.8026443820715,1397.6210580659526 593.6268500836876,1397.929238065145 593.4659159570233,1398.2491974574073 593.320584483277,1398.5802464038 593.1915677020122,1398.9216502609956 593.079544597924,1399.2726308272745 592.9851585323053,1399.6323677366556 592.9090147273952,1400.0 592.8516778118087,1400.3746276914828 592.8136694352148,1400.7553137783782 592.7954659603988,1401.1410860916612 592.7974962407732,1401.5309394344767 592.8201394913104,1401.9238378250714 592.8637232607591,1402.318716870348 592.9285215128605,1402.7144862657394 593.014752824124,1403.1100324166705 593.122578705525,1403.5042211764298 593.2521020552781,1403.8959006948494 593.4033657495997,1404.2839043717568 593.5763513781122,1404.6670539087645 593.7709781302517,1405.0441624525447 593.987101838737,1405.4140378223524 594.224514185818,1405.775485814182 594.4829420776709,1406.1273135735762 594.7620471919247,1406.468333028757 595.061425702906,1406.7973643754237 595.380608188771,1407.1132396042435 595.7190597242484,1407.4148060617697 596.0761801622608,1407.7009300352565 596.4513046072152,1407.9705003515792 596.8437040822566,1408.2224319802508 597.2525863922701,1408.4556696303214 597.6770971838904,1408.669191330766 598.1163212032403,1408.8620119838217 598.5692837515676,1409.0331868806104 599.034952338387,1409.1818151682812 599.5122385311647,1409.3070432578538 600.0,1409.4080681618918 600.4970427551752,1409.484140751143 601.0021235748508,1409.534568919299 601.5139526195903,1409.5587206450843 602.0311962298003,1409.5560269409777 602.5524799015764,1409.5259846779816 603.0763914358477,1409.4681592760153 603.6014842551232,1409.3821872496883 604.1262808815537,1409.2677785994276 604.6492765694445,1409.1247190381907 605.1689430847795,1408.95287204427 605.683732623761,1408.7521807310195 606.192081861813,1408.522669524677 606.6924161239673,1408.2644456418366 607.1831536670277,1407.9777003585423 607.6627100634075,1407.6627100634075 608.1295026760524,1407.3198370876478 608.5819552133983,1406.9495303054046 609.0185023528769,1406.5523254982816 609.4375944210651,1406.128845478558 609.8377021181869,1405.6797999661426 610.2173212743168,1405.2059852149252 610.5749776243002,1404.7082833848344 610.9092315881094,1404.1876616565476 611.2186830430801,1403.6451710864908 611.5019760742454,1403.0819452004562 611.757803688777,1402.4991983248776 611.984912480388,1401.8982236555448 612.1821072294161,1401.2803910642722 612.3482554242281,1400.6471446448036 612.4822916895281,1400.0 612.5832221071519,1399.3405412731388 612.6501284149571,1398.6704179269334 612.682172069496,1397.9913412746735 612.6785981582735,1397.3050807686816 612.6387391475521,1396.6134600520659 612.5620184518699,1395.9183527805462 612.4479538116816,1395.2216782219134 612.296160465823,1394.5253966414589 612.1063541058342,1393.831504482486 611.878353599548,1393.1420293517715 611.6120834717768,1392.4590248205848 611.3075761303878,1391.7845650526149 610.9649738265618,1391.120739270849 610.5845303385805,1390.469646076149 610.1666123690693,1389.8333876309307 609.7117006462538,1389.2140637219957 609.2203907204508,1388.6137657171732 608.6933934477189,1388.0345704310173 608.1315351533365,1387.4785339153505 607.5357574685459,1386.9476851909621 606.9071168348127,1386.4440199372452 606.2467836706919,1385.9694941570017 605.5560411972576,1385.5260178340359 604.8362839189575,1385.1154486015191 604.0890157576728,1384.7395854394156 603.315847838716,1384.4001624195275 602.5184959284678,1384.098842516933 601.6987775243433,1383.8372115067557 600.8586085987848,1383.6167719653276 600.0,1383.4389373948654 599.1250535131933,1383.305026490794 598.2359575870836,1383.216257570807 597.3349827315451,1383.1737431846577 596.4244765932614,1383.1784849235125 595.5068587173316,1383.2313684474964 594.5846150038172,1383.3331587497826 593.66029186926,1383.4844956752588 592.7364901242339,1383.685889711413 591.8158585790186,1383.937718068642 590.9010873904853,1384.2402210666914 589.9949011642764,1384.5934988433671 589.1000518273261,1384.997508401059 588.2193112867128,1385.4520610059371 587.3554638917468,1385.9568199539644 586.5112987170822,1386.5112987170821 585.6896016854919,1387.1148594821038 584.8931475497546,1387.7667120939584 584.1246917538791,1388.465913413999 583.3869621946169,1389.211367103107 582.6826509049017,1390.0018238382943 582.0144056814838,1390.8358819704335 581.384821679617,1391.7119886296318 580.7964329981786,1392.6284412836078 580.2517042790798,1393.583389753241 579.7530223452341,1394.5748386882344 579.3026879017036,1395.6006505045748 578.9029073249345,1396.6585487841849 578.5557845652071,1397.7461221358537 578.2633131875914,1398.8608285151906 578.027368576775,1400.0 577.8497003311516,1401.1608480160983 577.7319248714956,1402.34046900722 577.6755182894232,1403.535850541265 577.6818094606267,1404.7438778437456 577.751973447598,1405.9613407479023 577.8870252161904,1407.1849410495613 578.0878136899436,1408.4113002534261 578.3550161655792,1409.6369676961237 578.6891331124951,1410.8584290299718 579.0904833784194,1412.0721150500945 579.5591998226472,1413.274410846206 580.0952253974716,1414.4616652590978 580.698309697531,1415.6302006206142 581.3680059958313,1416.7763227546866 582.103668784173,1417.896331215827 582.9044518346054,1418.9865297403526 583.7693067973603,1420.0432368845327 584.6969823494785,1421.0627968228291 585.6860239070398,1422.0415902784289 586.7347739125432,1422.9760455573632 587.8413727075601,1423.8626496566642 589.0037599993049,1424.6979594162378 590.2196769282348,1425.478612683428 591.4866687422091,1426.2013394586224 592.802088081111,1426.862972989699 594.1630988741653,1427.4604607826507 595.5666808504769,1427.990875495339 597.0096346615767,1428.4514256810342 598.4885876129831,1428.8394663481952 600.0,1429.1525093028276 601.5401720411468,1429.3882332397377 603.1052514007878,1429.5444935490802 604.6912412906851,1429.619331804769 606.2940091383452,1429.610984901592 607.9092958081868,1429.5178938082447 609.5327253597039,1429.3387119039737 611.1598153249726,1429.0723128670882 612.7859874860205,1428.7177980842812 614.4065791307888,1428.2745035504774 616.0168547646366,1427.7420062298022 617.6120182526039,1427.1201298492476 619.1872253659435,1426.4089500976904 620.7375967047757,1425.608799204098 622.2582309671062,1424.720269870027 623.7442185328982,1423.7442185328982 625.1906553303846,1422.6817679379913 626.5926569503869,1421.5343089986557 627.9453729730368,1420.303501925883 629.2440014700206,1418.9912766101106 630.4838036442569,1417.5998322399355 631.6601185678066,1416.1316361443087 632.7683779777822,1414.589421846741 633.8041210890963,1412.9761863220863 634.7630093820565,1411.2951864485594 635.6408413220846,1409.5499346498184 636.4335669682234,1407.7441937241401 637.1373024265835,1405.8819708599976 637.7483441044913,1403.9675108396482 638.2631827208315,1402.0052884347 638.6785170279215,1400.0 638.9912672002293,1397.9565542746043 639.198587845355,1395.8800624010196 639.2978805929168,1393.7758271763505 639.2868062173524,1391.649331551443 639.1632962511338,1389.5062263965679 638.9255640455303,1387.3523175546318 638.5721152368062,1385.1935522053484 638.1017575766468,1383.036004566205 637.5136100866313,1380.8858609584506 636.8071114977411,1378.7494042686867 635.982027937191,1376.6329978389433 635.0384598263031,1374.5430688203835 633.9768479547062,1372.4860910279845 632.7979786978376,1370.4685673356726 631.5029883465406,1368.4970116534594 630.0933665194943,1366.5779305301078 628.5709586312774,1364.7178044267548 626.9379673910446,1362.923068708724 625.1969533090888,1361.200094404462 623.3508341909655,1359.5551687821314 621.4028836013563,1357.9944757958745 619.3567282824596,1356.5240764551243 617.2163445143851,1355.1498891715744 614.9860534078204,1353.8776701395223 612.6705151220965,1352.712993806266 610.2747220047237,1351.661233490056 607.8039906514697,1350.7275422037733 605.2639528891226,1349.9168337430292 602.6605456861964,1349.2337640977407 600.0,1348.6827132464337 597.2888285716905,1348.2677673925646 594.5338126841561,1347.9927017020116 591.7419879008185,1347.8609636005867 588.9206288067044,1347.8756566899328 586.0772327763864,1348.0395253395188 583.2195027966437,1348.3549400116146 580.3553293749259,1348.823883375108 577.4927715679013,1349.4479372628439 574.6400371675406,1350.228270525795 571.8054620853047,1351.1656278358207 568.997488978067,1352.26031948705 566.2246451624005,1353.5122122440296 563.4955198667731,1354.920721282688 560.8187408740382,1356.484803267941 558.2029506093359,1358.2029506093359 555.6567817311625,1360.0731869335568 553.1888322858762,1362.093063809889 550.8076404883063,1364.2596587618254 548.5216591933923,1366.5695745949797 546.3392301258948,1369.0189400682627 544.2685579371908,1371.6034119319745 542.3176841599707,1374.318178352992 540.4944611332935,1377.1579637436694 538.8065259719212,1380.1170350073605 537.2612746551335,1383.189209209685 535.8658363113107,1386.3678626807498 534.6270477754706,1389.6459415495551 533.5514284976293,1393.0159737077465 532.6451558803357,1396.4700821957329 531.9140411239995,1400.0 531.3635056586703,1403.597086246202 530.9985582407539,1407.2523437683346 530.8237727927415,1410.9564380299846 530.843267063391,1414.6997173693376 531.060682184934,1418.4722345352995 531.4791632027698,1422.2637694777807 532.1013406517704,1426.0638533509066 532.9293132517412,1429.8617936836677 533.9646317927626,1433.6467006683226 535.2082842790874,1437.4075145127265 536.6606823979793,1441.1330337987008 538.3216493773556,1444.811944784577 540.1904092933482,1448.432851586175 542.2655778859132,1451.9843071667224 544.5451549374216,1455.4548450625784 547.0265182657441,1458.8330117681403 549.7064193797089,1462.107399699964 552.5809808409743,1465.2666806569591 555.6456953723253,1468.2996396905153 558.8954267481693,1471.1952092956074 562.324412498602,1473.942503831322 565.9262684538276,1476.5308540768433 569.6939951509698,1478.9498418267656 573.619986120413,1481.189334427659 577.6960380637643,1483.2395191561138 581.9133629303587,1485.0909373370432 586.2626018939379,1486.7345180998434 590.7338412257304,1488.161611669093 595.3166300546807,1489.3640220858363 600.0000000000001,1490.3340392551497 604.7724866555875,1491.064470215621 609.6221529001848,1491.5486695266147 614.5366140014238,1491.780568669737 619.5030644761823,1491.7547043617478 624.5083066639494,1491.4662456773383 629.5387809641666,1490.9110198816416 634.5805976828385,1490.0855368741386 639.6195704280591,1488.9870121477088 644.6412509885339,1487.6133881689889 649.6309656236823,1485.963354088922 654.5738526885167,1484.036363695425 659.4549015112201,1481.8326515234376 664.2589924362006,1479.3532470412713 668.9709379404175,1476.5999868361355 673.5755247259501,1473.5755247259503 678.0575566871423,1470.283339729111 682.4018986462333,1466.7277418286733 686.5935207471575,1462.9138754725248 690.617543393229,1458.8477207564679 694.4592826106907,1454.5360922427412 698.1042957166483,1449.9866353723596 701.5384271667293,1445.2078204357394 704.747854454919,1440.2089340723676 707.719133935453,1435.000068276779 710.4392464343874,1429.5921068947957 712.8956425165569,1423.9967096008475 715.076287272052,1418.2262933542097 716.9697044851389,1412.2940113391628 718.5650200477018,1406.2137294013494 719.8520044788168,1400.0000000000002 720.8211144119903,1393.6680337031655 721.4635329119088,1387.2336682606265 721.771208483258,1380.7133352967367 721.7368926352951,1374.124024673049 721.3541758673871,1367.4832465781892 720.6175219426727,1360.8089914100208 719.5223003193707,1354.1196875226915 718.064816612036,1347.4341569186302 716.24234095826,1340.7715689729582 714.053134169933,1334.151392285069 711.4964715522049,1327.5933447592681 708.5726642777281,1321.1173420233822 705.2830782086047,1314.7434443010509 701.6301500637085,1308.4918018600406 697.6174008346821,1302.3825991653177 693.2494463599377,1296.4359978717596 688.5320049723729,1290.6720787972697 683.471902143276,1285.1107830226556 678.0770720519979,1279.7718522699015 672.3565560184068,1274.6747687154163 666.3204977429093,1269.8386943994362 659.98013530689,1265.282410396975 653.3477898947726,1261.024255919546 646.4368512075396,1257.0820675202992 639.2617595464216,1253.4731185782025 631.8379845545727,1250.2140592394476 624.1820006138652,1247.3208569963363 616.3112589034365,1244.8087380855216 608.244156136284,1242.6921298885895 599.9999999999999,1240.9846045185961 591.5989713376545,1239.698823776266 583.0620831148293,1238.8464856591577 574.4111362288593,1238.4382726061444 565.668672226426,1238.4838016580684 556.8579230057483,1238.9915767134034 548.0027575896565,1239.9689430551746 539.1276260658699,1241.4220443222453 530.2575008007075,1243.3557820944034 521.4178150422777,1245.7737782564254 512.6343990388555,1248.6783403015093 503.9334138076458,1252.0704297291202 495.3412826984197,1255.9496336864015 486.88462090555254,1260.3141399958827 478.59016309077924,1265.1607157052485 470.48468928746854,1270.484689287468 462.59494926536877,1276.2799366115878 454.9475855425966,1282.5388707960096 447.5690552390372,1289.2524360471243 440.48555097234726,1296.4101055767248 433.72292100430604,1303.9998836817713 427.3065888513552,1312.0083120597606 421.2614725787689,1320.4204804222616 415.6119040029763,1329.220041458085 410.381548031089,1338.3892301861076 405.5933223706571,1347.908887726 401.2693178460513,1357.7584895030188 397.4307195606358,1367.9161778906669 394.09772914602695,1378.3587992824266 391.28948834122866,1389.0619455709361 389.0240041452424,1399.9999999999998 387.3180757869046,1411.1461873416522 386.18722375514074,1422.472628337247 385.6456211315732,1433.9503983281893 385.70602746544336,1445.5495899885555 386.37972542811667,1457.239380058451 387.6764604810078,1468.9880999636066 389.60438378660956,1480.763310193435 392.1699985874151,1492.5318782965967 395.3781102718915,1504.2600603401133 399.2317803403042,1515.9135856652467 403.73228447609586,1527.457744760752 408.8790749207159,1538.857480061826 414.66974734126666,1550.0774794710385 421.10001237109833,1561.0822723858964 428.1636719935695,1571.8363280064304 435.8526009285905,1582.3041556853693 444.15673317031576,1592.4504070731105 453.06405381245725,1602.2399797998594 462.5605962851849,1611.6381224280121 472.63044511448317,1620.6105403991485 483.25574430115995,1629.1235026919219 494.4167114025127,1637.143948899697 506.09165738492663,1644.6395964300455 518.2570123005205,1651.5790475222063 530.8873568253055,1657.9318957733374 543.9554596803044,1663.6688318599179 557.4323209406791,1668.761748136988 571.2872212211892,1673.1838417950748 585.4877767092994,1676.9097162526937 600.0000000000002,1679.9154804612117 614.7883666689611,1682.178845798685 629.8158875030379,1683.6792202299998 645.0441862894528,1684.3977994123416 660.4335830472161,1684.3176544276018 675.9431825665761,1683.4238158269427 691.5309681046042,1681.7033536772547 707.1539000673632,1679.145453304781 722.7680194916641,1675.7414864376674 738.3285561221337,1671.4850774566585 753.7900408623088,1666.3721644716127 769.1064223617643,1660.4010549509117 784.2311874849374,1653.5724756412028 799.1174853913892,1645.8896165262356 813.7182549417755,1637.3581685857914 827.9863551288723,1627.9863551288734 841.8746982186353,1617.7849564893795 855.3363852725266,1606.7673278874215 868.3248437093074,1594.9494102752042 880.7939665521421,1582.3497340030092 892.6982529953185,1568.9894151581807 903.9929499141588,1554.8921444481493 914.634193931835,1540.0841685173818 924.5791536478672,1524.5942636076504 933.7861716250998,1508.4537014911718 942.2149057249578,1491.6962076268949 949.8264693748625,1474.3579115114837 956.5835703467953,1456.4772892183028 962.450647622259,1438.0950981398873 967.3940059162543,1419.254303971972" stroke="red" stroke-width="2" /><circle cx="1400" cy="400" fill="none" opacity="0.8" r="30" stroke="gold" stroke-width="3" /><circle cx="1400" cy="500" fill="none" opacity="0.75" r="34" stroke="gold" stroke-width="3" /><circle cx="1400" cy="600" fill="none" opacity="0.7000000000000001" r="38" stroke="gold" stroke-width="3" /><circle cx="1400" cy="700" fill="none" opacity="0.65" r="42" stroke="gold" stroke-width="3" /><circle cx="1400" cy="800" fill="none" opacity="0.6000000000000001" r="46" stroke="gold" stroke-width="3" /><circle cx="1400" cy="900" fill="none" opacity="0.55" r="50" stroke="gold" stroke-width="3" /><circle cx="1400" cy="1000" fill="none" opacity="0.5" r="54" stroke="gold" stroke-width="3" /><circle cx="1400" cy="1100" fill="none" opacity="0.45" r="58" stroke="gold" stroke-width="3" /><circle cx="1400" cy="1200" fill="none" opacity="0.4" r="62" stroke="gold" stroke-width="3" /><circle cx="1400" cy="1300" fill="none" opacity="0.35000000000000003" r="66" stroke="gold" stroke-width="3" /><path d="M 900,600 A 100,100 0 0,1 1100,600" fill="none" opacity="0.6" stroke="white" stroke-width="2" /><path d="M 870,600 A 130,130 0 0,1 1130,600" fill="none" opacity="0.52" stroke="white" stroke-width="2" /><path d="M 840,600 A 160,160 0 0,1 1160,600" fill="none" opacity="0.43999999999999995" stroke="white" stroke-width="2" /><path d="M 810,600 A 190,190 0 0,1 1190,600" fill="none" opacity="0.36" stroke="white" stroke-width="2" /><path d="M 780,600 A 220,220 0 0,1 1220,600" fill="none" opacity="0.27999999999999997" stroke="white" stroke-width="2" /><path d="M 750,600 A 250,250 0 0,1 1250,600" fill="none" opacity="0.19999999999999996" stroke="white" stroke-width="2" /><rect fill="none" height="20" opacity="0.15" stroke="white" stroke-width="1.5" width="20" x="1000" y="200" /><rect fill="none" height="30" opacity="0.25" stroke="white" stroke-width="1.5" width="30" x="1030" y="220" /><rect fill="none" height="40" opacity="0.35" stroke="white" stroke-width="1.5" width="40" x="1060" y="240" /><rect fill="none" height="50" opacity="0.45000000000000007" stroke="white" stroke-width="1.5" width="50" x="1090" y="260" /><rect fill="none" height="60" opacity="0.55" stroke="white" stroke-width="1.5" width="60" x="1120" y="280" /><rect fill="none" height="70" opacity="0.65" stroke="white" stroke-width="1.5" width="70" x="1150" y="300" /></svg>