<?xml version="1.0" encoding="UTF-8"?>
<svg id="Layer_1" xmlns="http://www.w3.org/2000/svg" xmlns:xlink="http://www.w3.org/1999/xlink" xmlns:ev="http://www.w3.org/2001/xml-events" version="1.1" viewBox="0 0 1400 1000">
  <!-- Generator: Adobe Illustrator 29.3.1, SVG Export Plug-In . SVG Version: 2.1.0 Build 151)  -->
  <defs>
    <style>
      .st0 {
        fill: url(#linear-gradient);
      }

      .st1 {
        stroke: aqua;
        stroke-width: 1.5px;
      }

      .st1, .st2, .st3, .st4, .st5 {
        fill: none;
      }

      .st2 {
        stroke: #0fc;
      }

      .st2, .st4, .st5 {
        stroke-width: 2px;
      }

      .st3, .st5 {
        stroke: gold;
      }

      .st4, .st6 {
        stroke: #fff;
      }

      .st6 {
        fill: #0fc;
      }
    </style>
    <linearGradient id="linear-gradient" x1="40" y1="1934.1" x2="41" y2="1933.1" gradientTransform="translate(-55960 1934067) scale(1400 -1000)" gradientUnits="userSpaceOnUse">
      <stop offset="0" stop-color="#1a0033"/>
      <stop offset="1" stop-color="#ffc87c"/>
    </linearGradient>
  </defs>
  <rect class="st0" width="1400" height="1000"/>
  <polyline class="st4" points="400.4 500 400.4 500 400.4 500 400.4 500 400.4 500 400.4 500 400.4 500 400.4 500.1 400.4 500.1 400.4 500.1 400.4 500.1 400.4 500.1 400.4 500.1 400.4 500.1 400.5 500.1 400.5 500.1 400.5 500.1 400.5 500.1 400.5 500.2 400.5 500.2 400.5 500.2 400.5 500.2 400.5 500.2 400.5 500.2 400.5 500.2 400.5 500.2 400.5 500.2 400.5 500.2 400.5 500.3 400.5 500.3 400.5 500.3 400.5 500.3 400.5 500.3 400.5 500.3 400.5 500.3 400.5 500.3 400.5 500.3 400.5 500.4 400.5 500.4 400.5 500.4 400.5 500.4 400.5 500.4 400.5 500.4 400.5 500.4 400.5 500.4 400.5 500.5 400.5 500.5 400.5 500.5 400.4 500.5 400.4 500.5 400.4 500.5 400.4 500.5 400.4 500.6 400.4 500.6 400.4 500.6 400.4 500.6 400.4 500.6 400.4 500.6 400.4 500.6 400.4 500.6 400.4 500.7 400.4 500.7 400.4 500.7 400.4 500.7 400.3 500.7 400.3 500.7 400.3 500.7 400.3 500.8 400.3 500.8 400.3 500.8 400.3 500.8 400.3 500.8 400.3 500.8 400.3 500.8 400.2 500.9 400.2 500.9 400.2 500.9 400.2 500.9 400.2 500.9 400.2 500.9 400.2 500.9 400.1 500.9 400.1 501 400.1 501 400.1 501 400.1 501 400.1 501 400.1 501 400 501 400 501 400 501.1 400 501.1 400 501.1 399.9 501.1 399.9 501.1 399.9 501.1 399.9 501.1 399.9 501.1 399.8 501.1 399.8 501.1 399.8 501.2 399.8 501.2 399.8 501.2 399.7 501.2 399.7 501.2 399.7 501.2 399.7 501.2 399.6 501.2 399.6 501.2 399.6 501.2 399.6 501.2 399.5 501.2 399.5 501.2 399.5 501.2 399.4 501.2 399.4 501.3 399.4 501.3 399.4 501.3 399.3 501.3 399.3 501.3 399.3 501.3 399.2 501.3 399.2 501.3 399.2 501.3 399.1 501.3 399.1 501.3 399.1 501.3 399.1 501.3 399 501.3 399 501.2 399 501.2 398.9 501.2 398.9 501.2 398.9 501.2 398.8 501.2 398.8 501.2 398.8 501.2 398.7 501.2 398.7 501.2 398.6 501.2 398.6 501.2 398.6 501.2 398.5 501.1 398.5 501.1 398.5 501.1 398.4 501.1 398.4 501.1 398.4 501.1 398.3 501 398.3 501 398.3 501 398.2 501 398.2 501 398.1 500.9 398.1 500.9 398.1 500.9 398 500.9 398 500.9 398 500.8 397.9 500.8 397.9 500.8 397.9 500.7 397.8 500.7 397.8 500.7 397.7 500.6 397.7 500.6 397.7 500.6 397.6 500.5 397.6 500.5 397.6 500.5 397.5 500.4 397.5 500.4 397.5 500.4 397.4 500.3 397.4 500.3 397.4 500.2 397.3 500.2 397.3 500.1 397.3 500.1 397.2 500 397.2 500 397.2 500 397.2 499.9 397.1 499.8 397.1 499.8 397.1 499.7 397 499.7 397 499.6 397 499.6 397 499.5 396.9 499.5 396.9 499.4 396.9 499.3 396.9 499.3 396.9 499.2 396.8 499.2 396.8 499.1 396.8 499 396.8 499 396.8 498.9 396.7 498.8 396.7 498.7 396.7 498.7 396.7 498.6 396.7 498.5 396.7 498.5 396.7 498.4 396.7 498.3 396.7 498.2 396.7 498.2 396.7 498.1 396.7 498 396.7 497.9 396.7 497.8 396.7 497.8 396.7 497.7 396.7 497.6 396.7 497.5 396.7 497.4 396.7 497.3 396.7 497.2 396.7 497.2 396.7 497.1 396.8 497 396.8 496.9 396.8 496.8 396.8 496.7 396.8 496.6 396.9 496.5 396.9 496.4 396.9 496.3 397 496.2 397 496.2 397 496.1 397.1 496 397.1 495.9 397.1 495.8 397.2 495.7 397.2 495.6 397.3 495.5 397.3 495.4 397.4 495.3 397.4 495.2 397.5 495.1 397.6 495 397.6 494.9 397.7 494.8 397.8 494.7 397.8 494.6 397.9 494.5 398 494.4 398 494.3 398.1 494.2 398.2 494.1 398.3 494 398.4 494 398.5 493.9 398.6 493.8 398.7 493.7 398.8 493.6 398.9 493.5 399 493.4 399.1 493.3 399.2 493.2 399.3 493.1 399.4 493.1 399.5 493 399.6 492.9 399.7 492.8 399.9 492.7 400 492.6 400.1 492.6 400.3 492.5 400.4 492.4 400.5 492.3 400.7 492.3 400.8 492.2 401 492.1 401.1 492.1 401.3 492 401.4 491.9 401.6 491.9 401.7 491.8 401.9 491.7 402.1 491.7 402.2 491.6 402.4 491.6 402.6 491.5 402.8 491.5 402.9 491.5 403.1 491.4 403.3 491.4 403.5 491.3 403.7 491.3 403.9 491.3 404.1 491.3 404.3 491.2 404.5 491.2 404.7 491.2 404.9 491.2 405.1 491.2 405.3 491.2 405.5 491.2 405.7 491.2 405.9 491.2 406.2 491.2 406.4 491.2 406.6 491.2 406.8 491.3 407.1 491.3 407.3 491.3 407.5 491.4 407.7 491.4 408 491.4 408.2 491.5 408.5 491.5 408.7 491.6 408.9 491.7 409.2 491.7 409.4 491.8 409.7 491.9 409.9 492 410.2 492.1 410.4 492.2 410.7 492.3 410.9 492.4 411.2 492.5 411.4 492.6 411.7 492.7 411.9 492.8 412.2 493 412.4 493.1 412.7 493.3 412.9 493.4 413.2 493.6 413.4 493.7 413.7 493.9 414 494.1 414.2 494.3 414.5 494.4 414.7 494.6 415 494.8 415.2 495.1 415.5 495.3 415.7 495.5 416 495.7 416.2 496 416.5 496.2 416.7 496.5 416.9 496.7 417.2 497 417.4 497.2 417.7 497.5 417.9 497.8 418.1 498.1 418.3 498.4 418.6 498.7 418.8 499 419 499.3 419.2 499.7 419.4 500 419.6 500.3 419.8 500.7 420 501.1 420.2 501.4 420.4 501.8 420.6 502.2 420.8 502.6 421 502.9 421.1 503.3 421.3 503.8 421.5 504.2 421.6 504.6 421.8 505 421.9 505.5 422.1 505.9 422.2 506.4 422.3 506.8 422.4 507.3 422.6 507.8 422.7 508.2 422.8 508.7 422.8 509.2 422.9 509.7 423 510.2 423.1 510.8 423.1 511.3 423.2 511.8 423.2 512.3 423.2 512.9 423.3 513.4 423.3 514 423.3 514.5 423.3 515.1 423.2 515.7 423.2 516.3 423.2 516.8 423.1 517.4 423.1 518 423 518.6 422.9 519.2 422.8 519.8 422.7 520.5 422.6 521.1 422.5 521.7 422.3 522.3 422.2 523 422 523.6 421.8 524.2 421.6 524.9 421.4 525.5 421.2 526.2 421 526.8 420.7 527.5 420.5 528.1 420.2 528.8 419.9 529.5 419.6 530.1 419.3 530.8 418.9 531.5 418.6 532.1 418.2 532.8 417.8 533.5 417.4 534.2 417 534.8 416.6 535.5 416.1 536.2 415.6 536.8 415.2 537.5 414.7 538.2 414.1 538.9 413.6 539.5 413.1 540.2 412.5 540.8 411.9 541.5 411.3 542.2 410.7 542.8 410 543.4 409.4 544.1 408.7 544.7 408 545.4 407.3 546 406.5 546.6 405.8 547.2 405 547.8 404.2 548.4 403.4 549 402.6 549.6 401.8 550.2 400.9 550.7 400 551.3 399.1 551.9 398.2 552.4 397.2 552.9 396.3 553.4 395.3 553.9 394.3 554.4 393.3 554.9 392.2 555.4 391.2 555.8 390.1 556.3 389 556.7 387.9 557.1 386.7 557.5 385.6 557.9 384.4 558.3 383.2 558.6 382 558.9 380.7 559.2 379.5 559.5 378.2 559.8 376.9 560.1 375.6 560.3 374.3 560.5 373 560.7 371.6 560.9 370.2 561 368.8 561.2 367.4 561.3 366 561.3 364.5 561.4 363.1 561.4 361.6 561.4 360.1 561.4 358.6 561.4 357.1 561.3 355.5 561.2 354 561.1 352.4 560.9 350.8 560.7 349.2 560.5 347.6 560.3 346 560 344.4 559.7 342.7 559.3 341.1 558.9 339.4 558.5 337.7 558.1 336 557.6 334.3 557.1 332.6 556.6 330.9 556 329.2 555.3 327.4 554.7 325.7 554 323.9 553.3 322.2 552.5 320.4 551.7 318.7 550.8 316.9 549.9 315.1 549 313.4 548 311.6 547 309.8 546 308 544.9 306.3 543.7 304.5 542.5 302.7 541.3 300.9 540 299.2 538.7 297.4 537.3 295.7 535.9 293.9 534.5 292.2 533 290.4 531.4 288.7 529.8 287 528.2 285.3 526.5 283.6 524.7 281.9 523 280.3 521.1 278.6 519.2 277 517.3 275.3 515.3 273.7 513.3 272.2 511.2 270.6 509 269.1 506.9 267.5 504.6 266 502.3 264.6 500 263.1 497.6 261.7 495.2 260.3 492.7 258.9 490.1 257.6 487.5 256.3 484.9 255 482.2 253.8 479.5 252.6 476.7 251.4 473.8 250.3 470.9 249.2 467.9 248.2 464.9 247.2 461.9 246.2 458.8 245.3 455.6 244.4 452.4 243.6 449.2 242.8 445.9 242.1 442.5 241.4 439.1 240.8 435.7 240.2 432.2 239.7 428.6 239.3 425 238.9 421.4 238.5 417.7 238.2 414 238 410.2 237.9 406.4 237.8 402.5 237.8 398.6 237.8 394.7 238 390.7 238.2 386.7 238.4 382.6 238.8 378.5 239.2 374.4 239.7 370.2 240.3 366 240.9 361.7 241.7 357.4 242.5 353.1 243.4 348.8 244.4 344.4 245.5 340 246.6 335.5 247.9 331.1 249.3 326.6 250.7 322.1 252.2 317.5 253.9 313 255.6 308.4 257.5 303.8 259.4 299.2 261.4 294.6 263.6 289.9 265.8 285.3 268.2 280.6 270.6 275.9 273.2 271.3 275.9 266.6 278.7 261.9 281.6 257.2 284.6 252.5 287.7 247.8 291 243.2 294.3 238.5 297.8 233.8 301.4 229.2 305.2 224.6 309 219.9 313 215.3 317.1 210.8 321.3 206.2 325.6 201.7 330.1 197.2 334.7 192.7 339.4 188.3 344.3 183.9 349.2 179.5 354.3 175.2 359.6 170.9 365 166.7 370.5 162.5 376.1 158.4 381.9 154.3 387.8 150.3 393.8 146.3 400 142.4 406.3 138.6 412.8 134.8 419.3 131.2 426 127.6 432.9 124 439.9 120.6 447 117.3 454.3 114 461.6 110.8 469.2 107.7 476.8 104.8 484.6 101.9 492.5 99.1 500.6 96.5 508.8 93.9 517.1 91.5 525.6 89.2 534.2 87 542.9 85 551.7 83.1 560.7 81.3 569.8 79.7 579.1 78.2 588.4 76.8 597.9 75.6 607.5 74.6 617.2 73.7 627.1 73 637 72.4 647.1 72 657.3 71.8 667.6 71.8 678 71.9 688.5 72.2 699.2 72.7 709.9 73.4 720.7 74.4 731.7 75.5 742.7 76.8 753.9 78.3 765.1 80 776.4 82 787.8 84.2 799.3 86.5 810.8 89.2 822.5 92 834.2 95.1 846 98.4 857.8 102 869.7 105.8 881.7 109.9 893.7 114.2 905.8 118.8 918 123.7 930.1 128.8 942.4 134.2 954.6 139.8 966.9 145.8 979.2 152 991.5 158.5 1003.9 165.3 1016.2 172.3 1028.6 179.7 1041 187.4 1053.3 195.3 1065.7 203.6 1078.1 212.2 1090.4 221.1 1102.7 230.3 1115 239.8 1127.2 249.6 1139.4 259.8 1151.5 270.2 1163.6 281 1175.6 292.2 1187.6 303.6 1199.5 315.4 1211.3 327.6 1223 340 1234.6 352.8 1246.1 366 1257.6 379.5 1268.8 393.3 1280 407.5 1291.1 422 1302 436.9 1312.7 452.2 1323.3 467.8 1333.8 483.7 1344 500 1354.1 516.7 1364 533.7 1373.7 551 1383.2 568.8 1392.5 586.8 1401.6 605.3 1410.5 624.1 1419.1 643.2 1427.5 662.7 1435.6 682.6 1443.4 702.8 1451 723.4 1458.3 744.3 1465.3 765.6 1472 787.2 1478.4 809.2 1484.5 831.6 1490.2 854.2 1495.6 877.3 1500.7 900.6 1505.4 924.3 1509.7 948.4 1513.7 972.7 1517.2 997.4 1520.4 1022.5 1523.2 1047.8 1525.5 1073.5 1527.4 1099.5 1528.9 1125.8 1529.9 1152.4 1530.5 1179.3 1530.6 1206.5 1530.2 1234 1529.4 1261.8 1528 1289.8 1526.1 1318.2 1523.7 1346.8 1520.8 1375.7 1517.3 1404.8 1513.3 1434.2 1508.7 1463.8 1503.6 1493.7 1497.9 1523.8 1491.5 1554.1 1484.6 1584.6 1477.1 1615.3 1468.9 1646.3 1460.1 1677.4 1450.7 1708.7 1440.6 1740.1 1429.8 1771.8 1418.4 1803.5 1406.3 1835.4 1393.5 1867.4 1380 1899.6 1365.8 1931.8 1350.9 1964.2 1335.2 1996.6 1318.8 2029.1 1301.6 2061.7 1283.7 2094.3 1265 2126.9 1245.6 2159.6 1225.4 2192.2 1204.3 2224.9 1182.5 2257.5 1159.9 2290.1 1136.4 2322.7 1112.1 2355.1 1087 2387.5 1061 2419.8 1034.2 2452 1006.6 2484.1 978.1 2516 948.7 2547.7 918.4 2579.3 887.3 2610.7 855.3 2641.8 822.3 2672.8 788.5 2703.5 753.8 2733.9 718.2 2764 681.6 2793.8 644.2 2823.3 605.8 2852.5 566.5 2881.2 526.3 2909.6 485.1 2937.6 443 2965.2 400 2992.3 356 3018.9 311.1 3045.1 265.3 3070.7 218.5 3095.8 170.7 3120.4 122.1 3144.4 72.4 3167.7 21.9 3190.5 -29.6 3212.6 -82.1 3234 -135.5 3254.7 -189.8 3274.7 -245 3294 -301.2 3312.5 -358.3 3330.2 -416.4 3347 -475.3 3363.1 -535.2 3378.3 -596 3392.5 -657.7 3405.9 -720.2 3418.3 -783.7 3429.7 -848 3440.2 -913.2 3449.6 -979.3 3457.9 -1046.2 3465.2 -1114 3471.4 -1182.6 3476.5 -1252.1 3480.4 -1322.3 3483.1 -1393.3 3484.6 -1465.2 3484.9 -1537.8 3483.9 -1611.1 3481.6 -1685.2 3478 -1760.1 3473.1 -1835.6 3466.7 -1911.8 3459 -1988.8 3449.9 -2066.3 3439.3 -2144.6 3427.2 -2223.4 3413.6 -2302.8 3398.4 -2382.9 3381.8 -2463.5 3363.5 -2544.6 3343.6 -2626.2 3322 -2708.4 3298.8 -2791 3273.9 -2874 3247.2 -2957.5 3218.9 -3041.4 3188.7 -3125.6 3156.7 -3210.2 3122.9 -3295 3087.3 -3380.2 3049.8 -3465.6 3010.3 -3551.2 2969 -3637 2925.7 -3722.9 2880.4 -3809 2833.1 -3895.2 2783.8 -3981.4 2732.4 -4067.6 2679 -4153.8 2623.5 -4240 2565.8 -4326 2506.1 -4411.9 2444.1 -4497.7 2380 -4583.2 2313.7 -4668.5 2245.2 -4753.4 2174.5 -4838.1 2101.4 -4922.3 2026.2 -5006.2 1948.6 -5089.5 1868.7 -5172.4 1786.5 -5254.6 1701.9 -5336.3 1615 -5417.3 1525.7 -5497.6 1434.1 -5577.1 1340 -5655.8 1243.6 -5733.7 1144.7 -5810.6 1043.4 -5886.6 939.6 -5961.6 833.4 -6035.5 724.7 -6108.2 613.6 -6179.8 500 -6250.2 383.9 -6319.2 265.4 -6386.9 144.3 -6453.2 20.8 -6518 -105.2 -6581.3 -233.8 -6643 -364.8 -6703 -498.3 -6761.4 -634.2 -6817.9 -772.7 -6872.6 -913.7 -6925.5 -1057.1 -6976.3 -1203 -7025.1 -1351.3 -7071.8 -1502.1 -7116.4 -1655.3 -7158.7 -1810.9 -7198.8 -1969 -7236.5 -2129.4 -7271.7 -2292.3 -7304.5 -2457.5 -7334.7 -2625 -7362.2 -2794.9 -7387.1 -2967 -7409.2 -3141.5 -7428.4 -3318.2 -7444.8 -3497.1 -7458.1 -3678.2 -7468.4 -3861.5 -7475.6 -4047 -7479.6 -4234.5 -7480.3 -4424.2 -7477.7 -4615.8 -7471.7 -4809.5 -7462.1 -5005.1 -7449.1 -5202.7 -7432.4 -5402.1 -7412 -5603.4 -7387.8 -5806.5 -7359.9 -6011.3 -7327.9 -6217.8 -7292.1 -6426 -7252.1 -6635.7 -7208 -6847 -7159.8 -7059.8 -7107.2 -7273.9 -7050.3 -7489.5 -6989 -7706.3 -6923.3 -7924.4 -6852.9 -8143.7 -6778 -8364.1 -6698.3 -8585.5 -6613.9 -8807.8 -6524.7 -9031.1 -6430.6 -9255.1 -6331.5 -9479.9 -6227.5 -9705.4 -6118.3 -9931.4 -6003.9 -10157.9 -5884.4 -10384.8 -5759.5 -10612.1 -5629.3 -10839.6 -5493.8 -11067.2 -5352.7 -11294.8 -5206.1 -11522.4 -5054 -11749.8 -4896.2 -11977 -4732.7 -12203.8 -4563.4 -12430.2 -4388.4 -12656 -4207.5 -12881.1 -4020.7 -13105.5 -3827.9 -13328.9 -3629.2 -13551.3 -3424.3 -13772.7 -3213.4 -13992.7 -2996.4 -14211.4 -2773.2 -14428.6 -2543.7 -14644.2 -2308 -14858 -2066 -15070 -1817.7 -15280 -1563.1 -15487.8 -1302 -15693.4 -1034.5 -15896.5 -760.6 -16097.1 -480.2 -16295 -193.3 -16490.1 100.1 -16682.2 400 -16871.2 706.5 -17056.9 1019.5 -17239.2 1339 -17418 1665.2 -17593 1997.9 -17764.1 2337.2 -17931.1 2683.1 -18094 3035.5 -18252.5 3394.5 -18406.5 3760.1 -18555.8 4132.2 -18700.3 4510.8 -18839.7 4895.9 -18974 5287.5 -19102.8 5685.6 -19226.2 6090.1 -19343.8 6501 -19455.6 6918.3 -19561.3 7341.9 -19660.8 7771.8 -19753.9 8207.9 -19840.4 8650.3 -19920.1 9098.7 -19992.9 9553.2 -20058.5 10013.8 -20116.8 10480.3 -20167.6 10952.7 -20210.7 11430.8 -20246 11914.8 -20273.2 12404.4 -20292.2 12899.5 -20302.7 13400.1 -20304.6 13906.1 -20297.6 14417.4 -20281.7 14933.9 -20256.6 15455.5 -20222.1 15982 -20178.1 16513.4 -20124.2 17049.5 -20060.5 17590.3 -19986.6 18135.5 -19902.3 18685 -19807.6 19238.8 -19702.1 19796.6 -19585.7 20358.3 -19458.3 20923.8 -19319.6 21492.8 -19169.4 22065.3 -19007.6 22641.1 -18833.9 23220 -18648.2 23801.7 -18450.4 24386.3 -18240.1 24973.3 -18017.3 25562.7 -17781.8 26154.2 -17533.3 26747.7 -17271.8 27342.9 -16996.9 27939.7 -16708.7 28537.7 -16406.8 29136.8 -16091.2 29736.7 -15761.6 30337.2 -15417.9 30938.1 -15059.9 31539.1 -14687.5 32139.9 -14300.6 32740.4 -13898.9 33340.2 -13482.3 33939 -13050.6 34536.6 -12603.8 35132.8 -12141.7 35727.1 -11664.1 36319.4 -11170.9 36909.3 -10662 37496.6 -10137.3 38080.8 -9596.5 38661.8 -9039.7 39239.1 -8466.7 39812.6 -7877.4 40381.7 -7271.7 40946.3 -6649.4 41505.9 -6010.5 42060.2 -5355 42608.9 -4682.6 43151.6 -3993.4 43687.9 -3287.2 44217.5 -2564 44740.1 -1823.8 45255.1 -1066.4 45762.3 -291.8 46261.2 500 46751.5 1309.1 47232.8 2135.4 47704.7 2979.1 48166.7 3840.2 48618.4 4718.6 49059.5 5614.3 49489.5 6527.4 49908 7457.9 50314.6 8405.7 50708.7 9370.8 51090.1 10353.2 51458.2 11352.8 51812.6 12369.5 52152.9 13403.4 52478.5 14454.4 52789.1 15522.3 53084.2 16607.2 53363.3 17708.8 53626 18827.2 53871.7 19962.1 54100 21113.5 54310.5 22281.2 54502.6 23465.2 54675.9 24665.2 54829.8 25881 54964 27112.6 55077.8 28359.7 55170.9 29622.2 55242.7 30899.8 55292.7 32192.3 55320.5 33499.6 55325.5 34821.3 55307.2 36157.2 55265.2 37507 55198.9 38870.6 55107.8 40247.6 54991.5 41637.7 54849.4 43040.6 54681.1 44455.9 54485.9 45883.5 54263.5 47322.9 54013.4 48773.7 53734.9 50235.6 53427.7 51708.3 53091.2 53191.2 52725 54684.1 52328.5 56186.5 51901.3 57698 51442.8 59218.1 50952.7 60746.3 50430.3 62282.3 49875.2 63825.4 49287 65375.2 48665.2 66931.3 48009.2 68493 47318.7 70059.8 46593.2 71631.2 45832.1 73206.6 45035.2 74785.4 44201.9 76367.1 43331.8 77950.9 42424.4 79536.4 41479.3 81122.7 40496.2 82709.4 39474.6 84295.7 38414 85880.9 37314.2 87464.3 36174.6 89045.3 34995 90623.1 33774.9 92196.9 32514.1 93766 31212 95329.7 29868.5 96887.1 28483.1 98437.5 27055.6 99980 25585.6 101513.8 24072.8 103038.1 22516.9 104552 20917.7 106054.6 19274.9 107545 17588.3 109022.5 15857.5 110485.9 14082.4 111934.5 12262.8 113367.2 10398.5 114783.2 8489.2 116181.4 6534.9 117560.9 4535.3 118920.6 2490.4 120259.6 400 121576.9 -1736 122871.3 -3917.7 124141.9 -6145.1 125387.6 -8418.3 126607.4 -10737.3 127800 -13102.2 128964.5 -15512.9 130099.8 -17969.3 131204.6 -20471.6 132277.9 -23019.5 133318.6 -25613 134325.4 -28252 135297.2 -30936.4 136232.9 -33666 137131.2 -36440.6 137991 -39260 138811 -42124.1 139590 -45032.5 140326.9 -47985 141020.3 -50981.3 141669 -54021.1 142271.8 -57104 142827.5 -60229.7 143334.6 -63397.7 143792.1 -66607.7 144198.5 -69859.2 144552.7 -73151.7 144853.3 -76484.7 145099 -79857.6 145288.6 -83270 145420.7 -86721.2 145494 -90210.5 145507.2 -93737.4 145458.9 -97301.2 145348 -100901.1 145173 -104536.4 144932.5 -108206.3 144625.4 -111910.1 144250.3 -115646.8 143805.8 -119415.6 143290.7 -123215.6 142703.5 -127045.9 142043.1 -130905.5 141308 -134793.4 140496.9 -138708.6 139608.6 -142649.9 138641.7 -146616.4 137595 -150606.7 136467.1 -154619.8 135256.7 -158654.5 133962.6 -162709.5 132583.5 -166783.5 131118.1 -170875.2 129565.1 -174983.3 127923.4 -179106.3 126191.7 -183242.8 124368.6 -187391.4 122453.2 -191550.6 120444 -195718.8 118340.1 -199894.4 116140 -204075.9 113842.8 -208261.5 111447.3 -212449.7 108952.3 -216638.5 106356.8 -220826.4 103659.6 -225011.5 100859.7 -229191.9 97956 -233365.8 94947.5 -237531.3 91833.2 -241686.3 88612.2 -245828.9 85283.4 -249957.1 81846 -254068.8 78298.9 -258161.9 74641.4 -262234.2 70872.6 -266283.5 66991.7 -270307.7 62997.8 -274304.5 58890.2 -278271.5 54668.2 -282206.4 50331.1 -286106.9 45878.2 -289970.5 41308.9 -293794.9 36622.6 -297577.4 31818.7 -301315.7 26896.7 -305007 21856.1 -308648.9 16696.6 -312238.8 11417.6 -315773.8 6018.8 -319251.5 500 -322668.9 -5139.2 -326023.4 -10899 -329312.2 -16779.5 -332532.3 -22780.9 -335681 -28903.3 -338755.4 -35146.7 -341752.5 -41511 -344669.4 -47996.3 -347503 -54602.4 -350250.4 -61329.1 -352908.5 -68176.2 -355474.2 -75143.4 -357944.4 -82230.3 -360316 -89436.6 -362585.9 -96761.8 -364750.8 -104205.3 -366807.5 -111766.6 -368752.8 -119445 -370583.4 -127239.8 -372296.1 -135150.3 -373887.6 -143175.5 -375354.4 -151314.7 -376693.4 -159566.7 -377901.2 -167930.5 -378974.2 -176405.1 -379909.3 -184989.2 -380702.9 -193681.6 -381351.6 -202480.9 -381852.1 -211385.8 -382200.8 -220394.7 -382394.2 -229506 -382429.1 -238718.2 -382301.8 -248029.4 -382008.8 -257438 -381546.8 -266942 -380912.1 -276539.4 -380101.3 -286228.3 -379110.9 -296006.4 -377937.5 -305871.6 -376577.4 -315821.6 -375027.3 -325854 -373283.6 -335966.2 -371342.9 -346155.9 -369201.7 -356420.2 -366856.5 -366756.5 -364303.8 -377161.9 -361540.4 -387633.5 -358562.6 -398168.3 -355367.2 -408763.3 -351950.6 -419415.1 -348309.7 -430120.5 -344440.9 -440876.2 -340341 -451678.6 -336006.8 -462524.2 -331434.8 -473409.2 -326621.9 -484330 -321565 -495282.6 -316260.7 -506263.1 -310706 -517267.4 -304897.8 -528291.3 -298833 -539330.7 -292508.7 -550381.1 -285921.7 -561438.1 -279069.3 -572497 -271948.5 -583553.3 -264556.6 -594602.2 -256890.7 -605638.8 -248948.1 -616658.2 -240726.2 -627655.2 -232222.4 -638624.8 -223434.2 -649561.6 -214359 -660460.4 -204994.6 -671315.5 -195338.6 -682121.5 -185388.7 -692872.7 -175142.7 -703563.2 -164598.6 -714187.4 -153754.3 -724739.1 -142608 -735212.2 -131157.7 -745600.8 -119401.7 -755898.4 -107338.4 -766098.6 -94966.2 -776195.1 -82283.5 -786181.3 -69289.1 -796050.6 -55981.7 -805796 -42360.1 -815410.9 -28423.2 -824888.3 -14170.1 -834221.2 400 -843402.3 15287.9 -852424.6 30494 -861280.8 46019 -869963.2 61863.2 -878464.8 78026.7 -886777.6 94509.7 -894894.1 111312.1 -902806.7 128433.7 -910507.4 145874.3 -917988.4 163633.2 -925241.7 181710 -932259.2 200103.9 -939032.9 218813.9 -945554.4 237839 -951815.7 257177.9 -957808.2 276829.3 -963523.7 296791.7 -968953.5 317063.2 -974089.2 337642.1 -978922.2 358526.3 -983443.9 379713.5 -987645.4 401201.3 -991518.1 422987.2 -995053.1 445068.4 -998241.6 467441.9 -1001074.6 490104.6 -1003543.2 513053.1 -1005638.4 536283.9 -1007351.1 559793.4 -1008672.3 583577.4 -1009592.9 607632 -1010103.8 631952.8 -1010195.7 656535.1 -1009859.5 681374.4 -1009086.1 706465.6 -1007866.2 731803.6 -1006190.6 757382.8 -1004050.1 783197.8 -1001435.5 809242.6 -998337.5 835511.2 -994746.9 861997.4 -990654.4 888694.5 -986051 915595.8 -980927.4 942694.4 -975274.4 969982.9 -969082.9 997453.9 -962343.8 1025099.8 -955048 1052912.5 -947186.4 1080883.8 -938750.2 1109005.4 -929730.4 1137268.5 -920117.9 1165664.1 -909904.1 1194183.2 -899080.2 1222816.2 -887637.4 1251553.5 -875567.1 1280385.1 -862860.9 1309300.8 -849510.1 1338290.1 -835506.5 1367342.2 -820841.8 1396446.2 -805507.7 1425591 -789496.2 1454764.8 -772799.4 1483955.9 -755409.5 1513152.4 -737318.6 1542341.8 -718519.2 1571511.6 -699003.9 1600649 -678765.4 1629741 -657796.5 1658774 -636090.1 1687734.4 -613639.5 1716608.4 -590437.9 1745381.8 -566478.9 1774040.1 -541756.2 1802568.8 -516263.6 1830952.5 -489995.1 1859176.5 -462945 1887224.9 -435107.8 1915082.1 -406478.2 1942732 -377051.1 1970158.4 -346821.6 1997344.8 -315785 2024274.2 -283937 2050929.8 -251273.4 2077294 -217790.3 2103349.2 -183484.2 2129078 -148351.7 2154462.2 -112389.6 2179483.2 -75595.3 2204122.5 -37966.1 2228361.5 500 2252181 39805 2275561.8 79950.4 2298484.2 120937.5 2320928.5 162767.2 2342875 205440 2364303.2 248956.2 2385193 293315.8 2405523.5 338518.1 2425273.8 384562.3 2444423 431447.2 2462949.8 479171.2 2480832.8 527732.2 2498050.2 577128 2514580.2 627355.6 2530401 678411.8 2545490.2 730292.9 2559825.2 782994.9 2573384 836513.2 2586143.5 890842.9 2598081 945978.6 2609173.5 1001914.2 2619397.5 1058643.8 2628730.2 1116160 2637148 1174455.9 2644627.2 1233523.5 2651144.5 1293354.5 2656676 1353940.2 2661197.8 1415271.2 2664685.8 1477337.8 2667116.2 1540129.2 2668464.8 1603635.1 2668707.5 1667843.6 2667820 1732742.9 2665778.2 1798320.2 2662557.8 1864562.9 2658134 1931456.8 2652483 1998987.9 2645580 2067141.1 2637401 2135901.2 2627921.5 2205252.5 2617117.2 2275177.8 2604964 2345660 2591437.2 2416681.2 2576512.8 2488223.2 2560166.8 2560266.8 2542375.2 2632792.2 2523113.8 2705779.2 2502358.8 2779206.8 2480086.5 2853053 2456273.5 2927296 2430896 3001912.8 2403931 3076879.2 2375355 3152171.5 2345145.2 3227764.8 2313278.8 3303633.2 2279733.2 3379750.8 2244486.5 3456090 2207515.8 3532623.8 2168800 3609323.5 2128317 3686160.2 2086045.5 3763104.2 2041964.9 3840125 1996054.1 3917191.8 1948293 3994272.5 1898661.4 4071334.5 1847139.6 4148345 1793708.4 4225270 1738348.9 4302074.5 1681042.6 4378723.5 1621771.4 4455181.5 1560517.6 4531410.5 1497264.2 4607374.5 1431994.5 4683034.5 1364692.1 4758352 1295341.5 4833287.5 1223927.4 4907800.5 1150435.2 4981850 1074851.1 5055395 997161.4 5128393 917353.3 5200800.5 835414.6 5272574.5 751333.6 5343670 665099.4 5414042.5 576701.9 5483646 486131.3 5552434 393378.9 5620359.5 298436.5 5687375.5 201296.8 5753432.5 101953.3 5818482 400 5882474.5 -103367.9 5945360 -209354.6 6007086.5 -317563.4 6067603.5 -427996.7 6126858.5 -540656.1 6184798.5 -655541.9 6241371 -772654.2 6296521 -891991.4 6350195 -1013551.4 6402337 -1137330.9 6452892.5 -1263325.6 6501804.5 -1391530.2 6549017 -1521938.4 6594472 -1654542.8 6638112.5 -1789334.6 6679880.5 -1926304.4 6719717 -2065441.4 6757562.5 -2206733.5 6793358.5 -2350167.8 6827044.5 -2495729.8 6858560.5 -2643404 6887845 -2793173.8 6914837.5 -2945020.8 6939476.5 -3098926 6961700 -3254868.5 6981446 -3412826.8 6998652 -3572777.2 7013255 -3734695.5 7025193 -3898555.2 7034401.5 -4064329.5 7040818 -4231989 7044378.5 -4401504 7045019.5 -4572843 7042676.5 -4745972 7037285.5 -4920857 7028783 -5097461.5 7017104.5 -5275748 7002185 -5455678 6983961 -5637209.5 6962368 -5820301 6937341.5 -6004909 6908817.5 -6190987 6876731.5 -6378488 6841020 -6567364 6801619 -6757564.5 6758464.5 -6949036.5 6711493 -7141727.5 6660641.5 -7335581 6605847 -7530540.5 6547047 -7726547 6484178.5 -7923540 6417180 -8121457 6345990.5 -8320234.5 6270548 -8519806 6190792 -8720104 6106662.5 -8921059 6018100 -9122600 5925045.5 -9324655 5827441 -9527147 5725228 -9730002 5618350 -9933139 5506750.5 -10136480 5390374.5 -10339941 5269167 -10543440 5143074 -10746889 5012043 -10950202 4876022 -11153289 4734960 -11356059 4588807 -11558418 4437514.5 -11760272 4281034.5 -11961523 4119320.2 -12162072 3952326.8 -12361820 3780010 -12560663 3602327 -12758498 3419236.5 -12955218 3230698.2 -13150714 3036674 -13344878 2837126.5 -13537597 2632020.2 -13728759 2421321 -13918247 2204997 -14105944 1983017.4 -14291732 1755353.1 -14475490 1521977.4 -14657096 1282864.8 -14836424 1037991.8 -15013350 787337.3 -15187746 530881.8 -15359482 268607.7 -15528426 500 -15694447 -273454.6 -15857411 -553266.9 -16017179 -838945.8 -16173617 -1130497.4 -16326583 -1427925.9 -16475938 -1731232.9 -16621538 -2040417.4 -16763241 -2355476 -16900900 -2676403 -17034370 -3003189.5 -17163500 -3335824.2 -17288144 -3674293.5 -17408150 -4018580.2 -17523364 -4368665 -17633634 -4724525 -17738804 -5086135 -17838720 -5453466.5 -17933224 -5826487.5 -18022158 -6205164 -18105360 -6589458 -18182674 -6979328.5 -18253936 -7374730.5 -18318986 -7775617.5 -18377656 -8181938 -18429788 -8593638 -18475212 -9010658 -18513766 -9432939 -18545282 -9860414 -18569594 -10293016 -18586534 -10730671 -18595934 -11173305 -18597626 -11620836 -18591440 -12073182 -18577208 -12530255 -18554762 -12991964 -18523928 -13458212 -18484540 -13928902 -18436428 -14403929 -18379420 -14883185 -18313348 -15366560 -18238044 -15853937 -18153334 -16345196 -18059054 -16840212 -17955032 -17338858 -17841100 -17841000 -17717092 -18346500 -17582842 -18855218 -17438180 -19367006 -17282944 -19881712 -17116966 -20399184 -16940086 -20919258 -16752140 -21441774 -16552966 -21966560 -16342405 -22493442 -16120298 -23022242 -15886487 -23552778 -15640817 -24084862 -15383133 -24618300 -15113284 -25152894 -14831119 -25688444 -14536489 -26224742 -14229248 -26761574 -13909251 -27298728 -13576357 -27835978 -13230426 -28373098 -12871321 -28909858 -12498907 -29446022 -12113053 -29981348 -11713630 -30515592 -11300511 -31048498 -10873575 -31579816 -10432700 -32109280 -9977772 -32636630 -9508676 -33161590 -9025304 -33683888 -8527550 -34203240 -8015312.5 -34719364 -7488493 -35231972 -6946998 -35740764 -6390737.5 -36245444 -5819627 -36745704 -5233585 -37241240 -4632535.5 -37731732 -4016407.2 -38216868 -3385133 -38696320 -2738651.2 -39169760 -2076905.8 -39636856 -1399845 -40097272 -707423.2 -40550664 400 -40996692 723659.3 -41435000 1462383.6 -41865232 2216595.8 -42287036 2986312.8 -42700040 3771544.8 -43103880 4572296.5 -43498188 5388565 -43882584 6220342 -44256688 7067611.5 -44620120 7930351 -44972488 8808530 -45313404 9702113 -45642472 10611054 -45959292 11535302 -46263468 12474798 -46554588 13429473 -46832244 14399254 -47096028 15384056 -47345528 16383789 -47580316 17398352 -47799980 18427636 -48004092 19471528 -48192232 20529896 -48363964 21602612 -48518860 22689526 -48656488 23790490 -48776416 24905342 -48878200 26033906 -48961404 27176004 -49025588 28331446 -49070312 29500030 -49095128 30681544 -49099592 31875768 -49083264 33082474 -49045692 34301416 -48986428 35532344 -48905028 36775000 -48801040 38029104 -48674020 39294376 -48523516 40570516 -48349084 41857228 -48150272 43154184 -47926636 44461064 -47677724 45777524 -47403100 47103216 -47102316 48437772 -46774924 49780820 -46420492 51131972 -46038576 52490836 -45628740 53856996 -45190548 55230032 -44723572 56609508 -44227384 57994980 -43701548 59385984 -43145652 60782056 -42559276 62182708 -41941996 63587448 -41293412 64995760 -40613108 66407128 -39900688 67821016 -39155752 69236880 -38377908 70654160 -37566768 72072280 -36721956 73490656 -35843092 74908688 -34929812 76325776 -33981748 77741288 -32998550 79154584 -31979868 80565024 -30925362 81971936 -29834700 83374648 -28707556 84772480 -27543618 86164712 -26342574 87550648 -25104128 88929544 -23827992 90300680 -22513888 91663280 -21161544 93016600 -19770704 94359848 -18341118 95692232 -16872552 97012960 -15364780 98321208 -13817588 99616144 -12230776 100896936 -10604153 102162720 -8937545 103412632 -7230788 104645800 -5483733 105861336 -3696245.2 107058328 -1868203"/>
  <circle class="st5" cx="1000" cy="600" r="100"/>
  <line class="st3" x1="900" y1="600" x2="1100" y2="600"/>
  <line class="st3" x1="1000" y1="500" x2="1000" y2="700"/>
  <rect class="st4" x="850" y="300" width="320" height="197.8"/>
  <polyline class="st2" points="200 850 205 847.4 210 844.8 215 842.2 220 839.5 225 836.9 230 834.4 235 831.8 240 829.2 245 826.7 250 824.1 255 821.6 260 819.1 265 816.6 270 814.2 275 811.7 280 809.3 285 806.9 290 804.6 295 802.3 300 800 305 797.8 310 795.5 315 793.4 320 791.2 325 789.1 330 787.1 335 785.1 340 783.1 345 781.2 350 779.3 355 777.5 360 775.7 365 774 370 772.3 375 770.7 380 769.1 385 767.6 390 766.1 395 764.7 400 763.4 405 762.1 410 760.9 415 759.7 420 758.6 425 757.6 430 756.6 435 755.7 440 754.9 445 754.1 450 753.4 455 752.8 460 752.2 465 751.7 470 751.2 475 750.9 480 750.5 485 750.3 490 750.1 495 750 500 750 505 750 510 750.1 515 750.3 520 750.5 525 750.9 530 751.2 535 751.7 540 752.2 545 752.8 550 753.4 555 754.1 560 754.9 565 755.7 570 756.6 575 757.6 580 758.6 585 759.7 590 760.9 595 762.1 600 763.4 605 764.7 610 766.1 615 767.6 620 769.1 625 770.7 630 772.3 635 774 640 775.7 645 777.5 650 779.3 655 781.2 660 783.1 665 785.1 670 787.1 675 789.1 680 791.2 685 793.4 690 795.5 695 797.8 700 800 705 802.3 710 804.6 715 806.9 720 809.3 725 811.7 730 814.2 735 816.6 740 819.1 745 821.6 750 824.1 755 826.7 760 829.2 765 831.8 770 834.4 775 836.9 780 839.5 785 842.2 790 844.8 795 847.4"/>
  <circle class="st6" cx="200" cy="850" r="10"/>
  <circle class="st6" cx="260" cy="819.1" r="10"/>
  <circle class="st6" cx="320" cy="791.2" r="10"/>
  <circle class="st6" cx="380" cy="769.1" r="10"/>
  <circle class="st6" cx="440" cy="754.9" r="10"/>
  <circle class="st6" cx="500" cy="750" r="10"/>
  <circle class="st6" cx="560" cy="754.9" r="10"/>
  <circle class="st6" cx="620" cy="769.1" r="10"/>
  <circle class="st6" cx="680" cy="791.2" r="10"/>
  <circle class="st6" cx="740" cy="819.1" r="10"/>
  <polygon class="st1" points="700 196.1 640 352 760 352 700 196.1"/>
  <polygon class="st1" points="700 213.4 650 343.3 750 343.3 700 213.4"/>
  <polygon class="st1" points="700 230.7 660 334.6 740 334.6 700 230.7"/>
  <polygon class="st1" points="700 248 670 326 730 326 700 248"/>
  <polygon class="st1" points="700 265.4 680 317.3 720 317.3 700 265.4"/>
  <polygon class="st1" points="700 282.7 690 308.7 710 308.7 700 282.7"/>
</svg>