<?xml version="1.0" encoding="utf-8" ?>
<svg baseProfile="tiny" height="1000px" version="1.2" width="1200px" xmlns="http://www.w3.org/2000/svg" xmlns:ev="http://www.w3.org/2001/xml-events" xmlns:xlink="http://www.w3.org/1999/xlink"><defs><linearGradient id="grad1" x1="0" x2="0" y1="0" y2="1"><stop offset="0.0" stop-color="black" /><stop offset="1.0" stop-color="darkslategray" /></linearGradient></defs><rect fill="url(#grad1)" height="100%" width="100%" x="0" y="0" /><polyline fill="none" points="301.0,600.0 301.0093,600.0883 301.0109,600.1783 301.0046,600.2692 300.9902,600.3604 300.9676,600.4512 300.9368,600.5409 300.8978,600.6286 300.8506,600.7138 300.7955,600.7955 300.7327,600.8732 300.6624,600.946 300.585,601.0133 300.501,601.0744 300.4108,601.1287 300.315,601.1755 300.2141,601.2143 300.1089,601.2445 300.0,601.2657 299.8882,601.2775 299.7744,601.2795 299.6593,601.2715 299.5438,601.2533 299.4289,601.2247 299.3154,601.1857 299.2044,601.1363 299.0966,601.0766 298.9931,601.0069 298.8948,600.9274 298.8026,600.8384 298.7174,600.7405 298.6401,600.6341 298.5714,600.52 298.5122,600.3987 298.4631,600.271 298.4249,600.1378 298.398,600.0 298.3831,599.8585 298.3805,599.7144 298.3906,599.5688 298.4137,599.4226 298.4499,599.2772 298.4993,599.1336 298.5618,598.993 298.6373,598.8566 298.7256,598.7256 298.8263,598.6012 298.9388,598.4845 299.0628,598.3767 299.1974,598.2788 299.3419,598.1919 299.4954,598.1169 299.657,598.0548 299.8256,598.0064 300.0,597.9724 300.179,597.9535 300.3614,597.9502 300.5458,597.963 300.7308,597.9922 300.9149,598.0381 301.0966,598.1006 301.2746,598.1797 301.4472,598.2753 301.613,598.387 301.7705,598.5144 301.9182,598.6569 302.0546,598.8138 302.1785,598.9841 302.2885,599.167 302.3834,599.3614 302.462,599.5659 302.5233,599.7792 302.5663,600.0 302.5903,600.2266 302.5944,600.4575 302.5782,600.6908 302.5412,600.9249 302.4832,601.1579 302.4041,601.388 302.3039,601.6132 302.183,601.8317 302.0416,602.0416 301.8803,602.2409 301.7,602.4278 301.5014,602.6005 301.2858,602.7574 301.0543,602.8966 300.8083,603.0167 300.5495,603.1162 300.2794,603.1937 300.0,603.2482 299.7132,603.2785 299.421,603.2837 299.1256,603.2632 298.8293,603.2164 298.5344,603.143 298.2432,603.0429 297.9581,602.9161 297.6816,602.763 297.416,602.584 297.1638,602.3799 296.9272,602.1516 296.7085,601.9003 296.51,601.6274 296.3338,601.3344 296.1818,601.0231 296.0559,600.6955 295.9577,600.3537 295.8888,600.0 295.8505,599.637 295.8439,599.2672 295.8698,598.8933 295.9291,598.5183 296.022,598.145 296.1487,597.7764 296.3091,597.4156 296.5029,597.0656 296.7295,596.7295 296.9878,596.4102 297.2767,596.1107 297.5948,595.834 297.9402,595.5828 298.3111,595.3597 298.7051,595.1673 299.1198,595.0079 299.5524,594.8837 300.0,594.7965 300.4595,594.748 300.9276,594.7396 301.4007,594.7725 301.8754,594.8474 302.3479,594.965 302.8143,595.1254 303.271,595.3285 303.714,595.5738 304.1395,595.8605 304.5436,596.1875 304.9226,596.5531 305.2729,596.9557 305.5908,597.3929 305.8732,597.8623 306.1167,598.361 306.3184,598.8859 306.4757,599.4335 306.5861,600.0 306.6474,600.5816 306.6581,601.174 306.6164,601.7729 306.5216,602.3737 306.3727,602.9717 306.1697,603.5621 305.9127,604.1401 305.6022,604.7008 305.2393,605.2393 304.8255,605.7508 304.3627,606.2305 303.8531,606.6738 303.2997,607.0763 302.7056,607.4336 302.0744,607.7418 301.4101,607.9972 300.7171,608.1962 300.0,608.3359 299.2639,608.4136 298.5141,608.427 297.7561,608.3744 296.9957,608.2543 296.2388,608.0659 295.4915,607.809 294.7599,607.4836 294.0502,607.0907 293.3686,606.6314 292.7212,606.1076 292.1141,605.5218 291.553,604.8769 291.0436,604.1764 290.5913,603.4245 290.2012,602.6256 289.8781,601.7848 289.6261,600.9076 289.4493,600.0 289.3509,599.0683 289.334,598.1193 289.4006,597.1599 289.5526,596.1975 289.791,595.2395 290.1162,594.2936 290.528,593.3676 291.0254,592.4694 291.6067,591.6067 292.2697,590.7873 293.0111,590.0188 293.8274,589.3087 294.7139,588.664 295.6657,588.0915 296.6768,587.5978 297.741,587.1887 298.8513,586.8698 300.0,586.646 301.1792,586.5216 302.3804,586.5001 303.5947,586.5844 304.8128,586.7768 306.0254,587.0786 307.2225,587.4902 308.3945,588.0114 309.5314,588.6409 310.6233,589.3767 311.6604,590.2158 312.6331,591.1542 313.5319,592.1873 314.348,593.3094 315.0725,594.5141 315.6974,595.7939 316.2151,597.1408 316.6187,598.546 316.902,600.0 317.0596,601.4925 317.0868,603.0129 316.98,604.5498 316.7365,606.0916 316.3546,607.6263 315.8336,609.1415 315.1739,610.6249 314.3771,612.0638 313.4458,613.4458 312.3838,614.7585 311.196,615.9896 309.8884,617.1273 308.4682,618.1601 306.9435,619.0771 305.3236,619.8681 303.6188,620.5234 301.8403,621.0342 300.0,621.3928 298.1109,621.5922 296.1866,621.6266 294.2414,621.4914 292.2899,621.1832 290.3475,620.6998 288.4297,620.0404 286.5522,619.2055 284.7309,618.197 282.9817,617.0183 281.3203,615.6741 279.7621,614.1707 278.3221,612.5157 277.0149,610.7181 275.8542,608.7883 274.8531,606.7381 274.0237,604.5803 273.3772,602.3292 272.9233,600.0 272.671,597.609 272.6274,595.1735 272.7984,592.7114 273.1885,590.2414 273.8004,587.7829 274.635,585.3555 275.6917,582.9792 276.9682,580.674 278.4601,578.4601 280.1614,576.3572 282.0642,574.385 284.1589,572.5625 286.4341,570.9079 288.8767,569.4389 291.4717,568.1718 294.2027,567.122 297.052,566.3037 300.0,565.7293 303.0262,565.4098 306.1089,565.3547 309.2252,565.5712 312.3514,566.0649 315.4631,566.8393 318.5354,567.8957 321.5431,569.2332 324.4608,570.8488 327.2629,572.7371 329.9245,574.8904 332.4207,577.2988 334.7274,579.9501 336.8216,582.8298 338.681,585.9213 340.2848,589.2057 341.6134,592.6624 342.6492,596.2687" stroke="green" stroke-width="2" /><polyline fill="none" points="301.0,600.0 301.0093,600.0883 301.0109,600.1783 301.0046,600.2692 300.9902,600.3604 300.9676,600.4512 300.9368,600.5409 300.8978,600.6286 300.8506,600.7138 300.7955,600.7955 300.7327,600.8732 300.6624,600.946 300.585,601.0133 300.501,601.0744 300.4108,601.1287 300.315,601.1755 300.2141,601.2143 300.1089,601.2445 300.0,601.2657 299.8882,601.2775 299.7744,601.2795 299.6593,601.2715 299.5438,601.2533 299.4289,601.2247 299.3154,601.1857 299.2044,601.1363 299.0966,601.0766 298.9931,601.0069 298.8948,600.9274 298.8026,600.8384 298.7174,600.7405 298.6401,600.6341 298.5714,600.52 298.5122,600.3987 298.4631,600.271 298.4249,600.1378 298.398,600.0 298.3831,599.8585 298.3805,599.7144 298.3906,599.5688 298.4137,599.4226 298.4499,599.2772 298.4993,599.1336 298.5618,598.993 298.6373,598.8566 298.7256,598.7256 298.8263,598.6012 298.9388,598.4845 299.0628,598.3767 299.1974,598.2788 299.3419,598.1919 299.4954,598.1169 299.657,598.0548 299.8256,598.0064 300.0,597.9724 300.179,597.9535 300.3614,597.9502 300.5458,597.963 300.7308,597.9922 300.9149,598.0381 301.0966,598.1006 301.2746,598.1797 301.4472,598.2753 301.613,598.387 301.7705,598.5144 301.9182,598.6569 302.0546,598.8138 302.1785,598.9841 302.2885,599.167 302.3834,599.3614 302.462,599.5659 302.5233,599.7792 302.5663,600.0 302.5903,600.2266 302.5944,600.4575 302.5782,600.6908 302.5412,600.9249 302.4832,601.1579 302.4041,601.388 302.3039,601.6132 302.183,601.8317 302.0416,602.0416 301.8803,602.2409 301.7,602.4278 301.5014,602.6005 301.2858,602.7574 301.0543,602.8966 300.8083,603.0167 300.5495,603.1162 300.2794,603.1937 300.0,603.2482 299.7132,603.2785 299.421,603.2837 299.1256,603.2632 298.8293,603.2164 298.5344,603.143 298.2432,603.0429 297.9581,602.9161 297.6816,602.763 297.416,602.584 297.1638,602.3799 296.9272,602.1516 296.7085,601.9003 296.51,601.6274 296.3338,601.3344 296.1818,601.0231 296.0559,600.6955 295.9577,600.3537 295.8888,600.0 295.8505,599.637 295.8439,599.2672 295.8698,598.8933 295.9291,598.5183 296.022,598.145 296.1487,597.7764 296.3091,597.4156 296.5029,597.0656 296.7295,596.7295 296.9878,596.4102 297.2767,596.1107 297.5948,595.834 297.9402,595.5828 298.3111,595.3597 298.7051,595.1673 299.1198,595.0079 299.5524,594.8837 300.0,594.7965 300.4595,594.748 300.9276,594.7396 301.4007,594.7725 301.8754,594.8474 302.3479,594.965 302.8143,595.1254 303.271,595.3285 303.714,595.5738 304.1395,595.8605 304.5436,596.1875 304.9226,596.5531 305.2729,596.9557 305.5908,597.3929 305.8732,597.8623 306.1167,598.361 306.3184,598.8859 306.4757,599.4335 306.5861,600.0 306.6474,600.5816 306.6581,601.174 306.6164,601.7729 306.5216,602.3737 306.3727,602.9717 306.1697,603.5621 305.9127,604.1401 305.6022,604.7008 305.2393,605.2393 304.8255,605.7508 304.3627,606.2305 303.8531,606.6738 303.2997,607.0763 302.7056,607.4336 302.0744,607.7418 301.4101,607.9972 300.7171,608.1962 300.0,608.3359 299.2639,608.4136 298.5141,608.427 297.7561,608.3744 296.9957,608.2543 296.2388,608.0659 295.4915,607.809 294.7599,607.4836 294.0502,607.0907 293.3686,606.6314 292.7212,606.1076 292.1141,605.5218 291.553,604.8769 291.0436,604.1764 290.5913,603.4245 290.2012,602.6256 289.8781,601.7848 289.6261,600.9076 289.4493,600.0 289.3509,599.0683 289.334,598.1193 289.4006,597.1599 289.5526,596.1975 289.791,595.2395 290.1162,594.2936 290.528,593.3676 291.0254,592.4694 291.6067,591.6067 292.2697,590.7873 293.0111,590.0188 293.8274,589.3087 294.7139,588.664 295.6657,588.0915 296.6768,587.5978 297.741,587.1887 298.8513,586.8698 300.0,586.646 301.1792,586.5216 302.3804,586.5001 303.5947,586.5844 304.8128,586.7768 306.0254,587.0786 307.2225,587.4902 308.3945,588.0114 309.5314,588.6409 310.6233,589.3767 311.6604,590.2158 312.6331,591.1542 313.5319,592.1873 314.348,593.3094 315.0725,594.5141 315.6974,595.7939 316.2151,597.1408 316.6187,598.546 316.902,600.0 317.0596,601.4925 317.0868,603.0129 316.98,604.5498 316.7365,606.0916 316.3546,607.6263 315.8336,609.1415 315.1739,610.6249 314.3771,612.0638 313.4458,613.4458 312.3838,614.7585 311.196,615.9896 309.8884,617.1273 308.4682,618.1601 306.9435,619.0771 305.3236,619.8681 303.6188,620.5234 301.8403,621.0342 300.0,621.3928 298.1109,621.5922 296.1866,621.6266 294.2414,621.4914 292.2899,621.1832 290.3475,620.6998 288.4297,620.0404 286.5522,619.2055 284.7309,618.197 282.9817,617.0183 281.3203,615.6741 279.7621,614.1707 278.3221,612.5157 277.0149,610.7181 275.8542,608.7883 274.8531,606.7381 274.0237,604.5803 273.3772,602.3292 272.9233,600.0 272.671,597.609 272.6274,595.1735 272.7984,592.7114 273.1885,590.2414 273.8004,587.7829 274.635,585.3555 275.6917,582.9792 276.9682,580.674 278.4601,578.4601 280.1614,576.3572 282.0642,574.385 284.1589,572.5625 286.4341,570.9079 288.8767,569.4389 291.4717,568.1718 294.2027,567.122 297.052,566.3037 300.0,565.7293 303.0262,565.4098 306.1089,565.3547 309.2252,565.5712 312.3514,566.0649 315.4631,566.8393 318.5354,567.8957 321.5431,569.2332 324.4608,570.8488 327.2629,572.7371 329.9245,574.8904 332.4207,577.2988 334.7274,579.9501 336.8216,582.8298 338.681,585.9213 340.2848,589.2057 341.6134,592.6624 342.6492,596.2687" stroke="red" stroke-width="2" /><circle cx="800" cy="600" fill="none" r="20" stroke="gold" stroke-width="2" /><circle cx="800" cy="570" fill="none" r="25" stroke="gold" stroke-width="2" /><circle cx="800" cy="540" fill="none" r="30" stroke="gold" stroke-width="2" /><circle cx="800" cy="510" fill="none" r="35" stroke="gold" stroke-width="2" /><circle cx="800" cy="480" fill="none" r="40" stroke="gold" stroke-width="2" /><circle cx="800" cy="450" fill="none" r="45" stroke="gold" stroke-width="2" /><circle cx="800" cy="420" fill="none" r="50" stroke="gold" stroke-width="2" /><circle cx="800" cy="390" fill="none" r="55" stroke="gold" stroke-width="2" /><path d="M 650.0,300.0 A 50,50 0 0,1 550.0,300.0" fill="none" stroke="white" stroke-width="2" /><path d="M 664.0125039457935,288.7128684516495 A 65,65 0 0,1 535.9874960542065,288.7128684516495" fill="none" stroke="white" stroke-width="2" /><path d="M 675.1754096628727,272.6383885339465 A 80,80 0 0,1 524.8245903371273,272.6383885339465" fill="none" stroke="white" stroke-width="2" /><path d="M 682.2724133595217,252.5 A 95,95 0 0,1 517.7275866404783,252.5" fill="none" stroke="white" stroke-width="2" /><path d="M 684.2648887430876,229.29336293448068 A 110,110 0 0,1 515.7351112569124,229.29336293448065" fill="none" stroke="white" stroke-width="2" /></svg>