<?xml version="1.0" encoding="utf-8" ?>
<svg baseProfile="tiny" height="1000px" version="1.2" width="1200px" xmlns="http://www.w3.org/2000/svg" xmlns:ev="http://www.w3.org/2001/xml-events" xmlns:xlink="http://www.w3.org/1999/xlink"><defs><linearGradient id="grad2" x1="1" x2="0" y1="0" y2="1"><stop offset="0.0" stop-color="darkslategray" /><stop offset="1.0" stop-color="black" /></linearGradient></defs><rect fill="url(#grad2)" height="100%" width="100%" x="0" y="0" /><polyline fill="none" points="351.2,550.0 351.2101,550.1059 351.211,550.2135 351.2024,550.3222 351.1841,550.431 351.1561,550.5391 351.1183,550.6456 351.0707,550.7497 351.0136,550.8505 350.9472,550.9472 350.8716,551.0387 350.7873,551.1244 350.6947,551.2033 350.5944,551.2748 350.487,551.338 350.373,551.3922 350.2534,551.4369 350.1287,551.4714 350.0,551.4952 349.8681,551.5078 349.7339,551.5089 349.5986,551.4981 349.463,551.4754 349.3283,551.4404 349.1956,551.3933 349.0658,551.3341 348.9403,551.263 348.8199,551.1801 348.7058,551.086 348.5991,550.9809 348.5007,550.8656 348.4117,550.7406 348.3329,550.6068 348.2653,550.4648 348.2097,550.3157 348.1667,550.1604 348.1371,550.0 348.1214,549.8356 348.12,549.6685 348.1334,549.4998 348.1618,549.3309 348.2053,549.1631 348.264,548.9977 348.3377,548.8361 348.4264,548.6796 348.5296,548.5296 348.6469,548.3875 348.7778,548.2545 348.9215,548.1319 349.0772,548.021 349.244,547.9229 349.4209,547.8386 349.6067,547.7693 349.8002,547.7158 350.0,547.6789 350.2048,547.6593 350.413,547.6576 350.6232,547.6743 350.8336,547.7096 351.0427,547.7638 351.2488,547.837 351.4502,547.9289 351.6452,548.0393 351.8321,548.1679 352.0092,548.3141 352.1749,548.4772 352.3276,548.6562 352.4658,548.8502 352.588,549.058 352.693,549.2784 352.7794,549.5099 352.8461,549.751 352.8921,550.0 352.9165,550.2552 352.9186,550.5146 352.8978,550.7765 352.8538,551.0387 352.7862,551.2992 352.6951,551.556 352.5806,551.8069 352.4429,552.0498 352.2827,552.2827 352.1006,552.5033 351.8974,552.7098 351.6744,552.9001 351.4326,553.0723 351.1737,553.2246 350.8991,553.3554 350.6106,553.463 350.3102,553.5461 350.0,553.6034 349.6821,553.6338 349.3588,553.6364 349.0326,553.6106 348.7058,553.5557 348.3812,553.4715 348.0613,553.358 347.7486,553.2153 347.446,553.0438 347.1559,552.8441 346.8809,552.6172 346.6237,552.3641 346.3866,552.0862 346.1721,551.785 345.9823,551.4623 345.8193,551.1202 345.6852,550.7608 345.5817,550.3866 345.5103,550.0 345.4724,549.6039 345.4691,549.2011 345.5014,548.7946 345.5697,548.3875 345.6746,547.983 345.8161,547.5844 345.9939,547.1949 346.2075,546.8178 346.4563,546.4563 346.739,546.1137 347.0544,545.7932 347.4007,545.4978 347.776,545.2305 348.178,544.994 348.6043,544.791 349.0521,544.6239 349.5184,544.4949 350.0,544.406 350.4935,544.3587 350.9954,544.3547 351.5019,544.3949 352.0091,544.4801 352.5131,544.6107 353.0098,544.787 353.4951,545.0085 353.965,545.2747 354.4153,545.5847 354.8422,545.9369 355.2415,546.3299 355.6095,546.7613 355.9426,547.2289 356.2373,547.7298 356.4902,548.261 356.6984,548.8189 356.8592,549.3999 356.97,550.0 357.0288,550.6149 357.0339,551.2403 356.9838,551.8713 356.8777,552.5033 356.7149,553.1312 356.4953,553.7501 356.2192,554.3548 355.8875,554.9402 355.5014,555.5014 355.0624,556.0332 354.5729,556.5307 354.0353,556.9893 353.4527,557.4043 352.8286,557.7714 352.1668,558.0866 351.4716,558.346 350.7477,558.5463 350.0,558.6844 349.2338,558.7577 348.4547,558.764 347.6684,558.7016 346.881,558.5693 346.0986,558.3665 345.3276,558.0929 344.5741,557.749 343.8446,557.3357 343.1455,556.8545 342.4829,556.3076 341.8629,555.6976 341.2916,555.0278 340.7745,554.3019 340.3171,553.5243 339.9244,552.6997 339.6012,551.8336 339.3516,550.9316 339.1796,550.0 339.0882,549.0453 339.0804,548.0746 339.1581,547.0949 339.3229,546.1138 339.5756,545.139 339.9165,544.1783 340.345,543.2395 340.86,542.3306 341.4595,541.4595 342.1409,540.6339 342.9009,539.8615 343.7355,539.1496 344.6399,538.5053 345.6088,537.9354 346.6362,537.4461 347.7154,537.0434 348.8392,536.7325 350.0,536.5181 351.1895,536.4043 352.399,536.3945 353.6196,536.4913 354.842,536.6967 356.0566,537.0116 357.2536,537.4363 358.4233,537.9702 359.5558,538.6119 360.6412,539.3588 361.6698,540.2079 362.6322,541.1548 363.5192,542.1947 364.322,543.3215 365.0321,544.5288 365.6417,545.8088 366.1435,547.1535 366.5309,548.5537 366.798,550.0 366.9398,551.482 366.952,552.9891 366.8313,554.5099 366.5755,556.033 366.1831,557.5463 365.6539,559.0378 364.9887,560.4952 364.1892,561.9062 363.2585,563.2585 362.2007,564.5402 361.0208,565.7394 359.7252,566.8445 358.3211,567.8447 356.817,568.7295 355.2221,569.489 353.5467,570.1142 351.802,570.5969 350.0,570.9297 348.1534,571.1064 346.2757,571.1216 344.3808,570.9713 342.4831,570.6525 340.5975,570.1636 338.7392,569.5043 336.9234,568.6754 335.1653,567.6793 333.4803,566.5197 331.8834,565.2016 330.3893,563.7316 329.0123,562.1173 327.7661,560.3679 326.6637,558.4937 325.7173,556.5065 324.9383,554.419 324.3369,552.2452 323.9223,550.0 323.7022,547.6992 323.6832,545.3596 323.8705,542.9986 324.2676,540.6342 324.8768,538.2848 325.6983,535.9694 326.7311,533.7069 327.9722,531.5165 329.417,529.417 331.0593,527.4273 332.8909,525.5657 334.9023,523.85 337.082,522.2973 339.4171,520.9237 341.8931,519.7446 344.494,518.774 347.2025,518.0247 350.0,517.508 352.8667,517.2338 355.7817,517.2101 358.7235,517.4435 361.6695,517.9384 364.5967,518.6973 367.4816,519.7209 370.3006,521.0077 373.0299,522.5541 375.6457,524.3543 378.1248,526.4005 380.4443,528.6827 382.582,531.1888 384.5167,533.9046 386.228,536.8141 387.6972,539.8991 388.9065,543.1397 389.8402,546.5144 390.4839,550.0 390.8256,553.5718 390.8551,557.2039 390.5643,560.8692 389.9477,564.5398 389.0021,568.187 387.7267,571.7815 386.1234,575.2939 384.1967,578.6944 381.9537,581.9537 379.4042,585.0426 376.5607,587.9326 373.4382,590.5961 370.0543,593.0066 366.4292,595.1389 362.5854,596.9694 358.5477,598.4762 354.3429,599.6395 350.0,600.4416 345.5497,600.8674 341.0242,600.9041 336.4574,600.5418 331.8839,599.7735 327.3396,598.5953 322.861,597.0062 318.4847,595.0085 314.2477,592.6079 310.1868,589.8132 306.3381,586.6366 302.7373,583.0937 299.4186,579.2032 296.4152,574.987 293.7584,570.4703 291.4777,565.681 289.6003,560.6501 288.1508,555.4111" stroke="green" stroke-width="2" /><polyline fill="none" points="361.2,560.0 361.2101,560.1059 361.211,560.2135 361.2024,560.3222 361.1841,560.431 361.1561,560.5391 361.1183,560.6456 361.0707,560.7497 361.0136,560.8505 360.9472,560.9472 360.8716,561.0387 360.7873,561.1244 360.6947,561.2033 360.5944,561.2748 360.487,561.338 360.373,561.3922 360.2534,561.4369 360.1287,561.4714 360.0,561.4952 359.8681,561.5078 359.7339,561.5089 359.5986,561.4981 359.463,561.4754 359.3283,561.4404 359.1956,561.3933 359.0658,561.3341 358.9403,561.263 358.8199,561.1801 358.7058,561.086 358.5991,560.9809 358.5007,560.8656 358.4117,560.7406 358.3329,560.6068 358.2653,560.4648 358.2097,560.3157 358.1667,560.1604 358.1371,560.0 358.1214,559.8356 358.12,559.6685 358.1334,559.4998 358.1618,559.3309 358.2053,559.1631 358.264,558.9977 358.3377,558.8361 358.4264,558.6796 358.5296,558.5296 358.6469,558.3875 358.7778,558.2545 358.9215,558.1319 359.0772,558.021 359.244,557.9229 359.4209,557.8386 359.6067,557.7693 359.8002,557.7158 360.0,557.6789 360.2048,557.6593 360.413,557.6576 360.6232,557.6743 360.8336,557.7096 361.0427,557.7638 361.2488,557.837 361.4502,557.9289 361.6452,558.0393 361.8321,558.1679 362.0092,558.3141 362.1749,558.4772 362.3276,558.6562 362.4658,558.8502 362.588,559.058 362.693,559.2784 362.7794,559.5099 362.8461,559.751 362.8921,560.0 362.9165,560.2552 362.9186,560.5146 362.8978,560.7765 362.8538,561.0387 362.7862,561.2992 362.6951,561.556 362.5806,561.8069 362.4429,562.0498 362.2827,562.2827 362.1006,562.5033 361.8974,562.7098 361.6744,562.9001 361.4326,563.0723 361.1737,563.2246 360.8991,563.3554 360.6106,563.463 360.3102,563.5461 360.0,563.6034 359.6821,563.6338 359.3588,563.6364 359.0326,563.6106 358.7058,563.5557 358.3812,563.4715 358.0613,563.358 357.7486,563.2153 357.446,563.0438 357.1559,562.8441 356.8809,562.6172 356.6237,562.3641 356.3866,562.0862 356.1721,561.785 355.9823,561.4623 355.8193,561.1202 355.6852,560.7608 355.5817,560.3866 355.5103,560.0 355.4724,559.6039 355.4691,559.2011 355.5014,558.7946 355.5697,558.3875 355.6746,557.983 355.8161,557.5844 355.9939,557.1949 356.2075,556.8178 356.4563,556.4563 356.739,556.1137 357.0544,555.7932 357.4007,555.4978 357.776,555.2305 358.178,554.994 358.6043,554.791 359.0521,554.6239 359.5184,554.4949 360.0,554.406 360.4935,554.3587 360.9954,554.3547 361.5019,554.3949 362.0091,554.4801 362.5131,554.6107 363.0098,554.787 363.4951,555.0085 363.965,555.2747 364.4153,555.5847 364.8422,555.9369 365.2415,556.3299 365.6095,556.7613 365.9426,557.2289 366.2373,557.7298 366.4902,558.261 366.6984,558.8189 366.8592,559.3999 366.97,560.0 367.0288,560.6149 367.0339,561.2403 366.9838,561.8713 366.8777,562.5033 366.7149,563.1312 366.4953,563.7501 366.2192,564.3548 365.8875,564.9402 365.5014,565.5014 365.0624,566.0332 364.5729,566.5307 364.0353,566.9893 363.4527,567.4043 362.8286,567.7714 362.1668,568.0866 361.4716,568.346 360.7477,568.5463 360.0,568.6844 359.2338,568.7577 358.4547,568.764 357.6684,568.7016 356.881,568.5693 356.0986,568.3665 355.3276,568.0929 354.5741,567.749 353.8446,567.3357 353.1455,566.8545 352.4829,566.3076 351.8629,565.6976 351.2916,565.0278 350.7745,564.3019 350.3171,563.5243 349.9244,562.6997 349.6012,561.8336 349.3516,560.9316 349.1796,560.0 349.0882,559.0453 349.0804,558.0746 349.1581,557.0949 349.3229,556.1138 349.5756,555.139 349.9165,554.1783 350.345,553.2395 350.86,552.3306 351.4595,551.4595 352.1409,550.6339 352.9009,549.8615 353.7355,549.1496 354.6399,548.5053 355.6088,547.9354 356.6362,547.4461 357.7154,547.0434 358.8392,546.7325 360.0,546.5181 361.1895,546.4043 362.399,546.3945 363.6196,546.4913 364.842,546.6967 366.0566,547.0116 367.2536,547.4363 368.4233,547.9702 369.5558,548.6119 370.6412,549.3588 371.6698,550.2079 372.6322,551.1548 373.5192,552.1947 374.322,553.3215 375.0321,554.5288 375.6417,555.8088 376.1435,557.1535 376.5309,558.5537 376.798,560.0 376.9398,561.482 376.952,562.9891 376.8313,564.5099 376.5755,566.033 376.1831,567.5463 375.6539,569.0378 374.9887,570.4952 374.1892,571.9062 373.2585,573.2585 372.2007,574.5402 371.0208,575.7394 369.7252,576.8445 368.3211,577.8447 366.817,578.7295 365.2221,579.489 363.5467,580.1142 361.802,580.5969 360.0,580.9297 358.1534,581.1064 356.2757,581.1216 354.3808,580.9713 352.4831,580.6525 350.5975,580.1636 348.7392,579.5043 346.9234,578.6754 345.1653,577.6793 343.4803,576.5197 341.8834,575.2016 340.3893,573.7316 339.0123,572.1173 337.7661,570.3679 336.6637,568.4937 335.7173,566.5065 334.9383,564.419 334.3369,562.2452 333.9223,560.0 333.7022,557.6992 333.6832,555.3596 333.8705,552.9986 334.2676,550.6342 334.8768,548.2848 335.6983,545.9694 336.7311,543.7069 337.9722,541.5165 339.417,539.417 341.0593,537.4273 342.8909,535.5657 344.9023,533.85 347.082,532.2973 349.4171,530.9237 351.8931,529.7446 354.494,528.774 357.2025,528.0247 360.0,527.508 362.8667,527.2338 365.7817,527.2101 368.7235,527.4435 371.6695,527.9384 374.5967,528.6973 377.4816,529.7209 380.3006,531.0077 383.0299,532.5541 385.6457,534.3543 388.1248,536.4005 390.4443,538.6827 392.582,541.1888 394.5167,543.9046 396.228,546.8141 397.6972,549.8991 398.9065,553.1397 399.8402,556.5144 400.4839,560.0 400.8256,563.5718 400.8551,567.2039 400.5643,570.8692 399.9477,574.5398 399.0021,578.187 397.7267,581.7815 396.1234,585.2939 394.1967,588.6944 391.9537,591.9537 389.4042,595.0426 386.5607,597.9326 383.4382,600.5961 380.0543,603.0066 376.4292,605.1389 372.5854,606.9694 368.5477,608.4762 364.3429,609.6395 360.0,610.4416 355.5497,610.8674 351.0242,610.9041 346.4574,610.5418 341.8839,609.7735 337.3396,608.5953 332.861,607.0062 328.4847,605.0085 324.2477,602.6079 320.1868,599.8132 316.3381,596.6366 312.7373,593.0937 309.4186,589.2032 306.4152,584.987 303.7584,580.4703 301.4777,575.681 299.6003,570.6501 298.1508,565.4111" stroke="red" stroke-width="2" /><circle cx="850" cy="400" fill="none" r="20" stroke="gold" stroke-width="2" /><circle cx="850" cy="370" fill="none" r="26" stroke="gold" stroke-width="2" /><circle cx="850" cy="340" fill="none" r="32" stroke="gold" stroke-width="2" /><circle cx="850" cy="310" fill="none" r="38" stroke="gold" stroke-width="2" /><circle cx="850" cy="280" fill="none" r="44" stroke="gold" stroke-width="2" /><circle cx="850" cy="250" fill="none" r="50" stroke="gold" stroke-width="2" /><circle cx="850" cy="220" fill="none" r="56" stroke="gold" stroke-width="2" /><circle cx="850" cy="190" fill="none" r="62" stroke="gold" stroke-width="2" /><circle cx="850" cy="160" fill="none" r="68" stroke="gold" stroke-width="2" /><circle cx="850" cy="130" fill="none" r="74" stroke="gold" stroke-width="2" /><path d="M 650.0,250.0 A 50,50 0 0,1 550.0,250.0" fill="none" stroke="white" stroke-width="2" /><path d="M 666.9669272048302,238.19192391864874 A 68,68 0 0,1 533.0330727951698,238.19192391864874" fill="none" stroke="white" stroke-width="2" /><path d="M 680.8135653875881,220.5862676739925 A 86,86 0 0,1 519.1864346124119,220.58626767399247" fill="none" stroke="white" stroke-width="2" /><path d="M 690.0666419935816,198.0 A 104,104 0 0,1 509.93335800641836,198.0" fill="none" stroke="white" stroke-width="2" /><path d="M 693.4574220605153,171.5799116182422 A 122,122 0 0,1 506.5425779394847,171.5799116182422" fill="none" stroke="white" stroke-width="2" /><path d="M 689.9902653561155,142.75377796334308 A 140,140 0 0,1 510.0097346438845,142.75377796334308" fill="none" stroke="white" stroke-width="2" /><rect fill="black" height="100px" width="100%" x="0" y="900" /></svg>