<?xml version="1.0" encoding="utf-8" ?>
<svg baseProfile="tiny" height="1000px" version="1.2" width="1000px" xmlns="http://www.w3.org/2000/svg" xmlns:ev="http://www.w3.org/2001/xml-events" xmlns:xlink="http://www.w3.org/1999/xlink"><defs /><circle cx="800" cy="200" fill="yellow" r="40" stroke="orange" stroke-width="2" /><line stroke="orange" stroke-width="2" x1="840.0" x2="870.0" y1="200.0" y2="200.0" /><line stroke="orange" stroke-width="2" x1="838.637" x2="867.6148" y1="210.3528" y2="218.1173" /><line stroke="orange" stroke-width="2" x1="834.641" x2="860.6218" y1="220.0" y2="235.0" /><line stroke="orange" stroke-width="2" x1="828.2843" x2="849.4975" y1="228.2843" y2="249.4975" /><line stroke="orange" stroke-width="2" x1="820.0" x2="835.0" y1="234.641" y2="260.6218" /><line stroke="orange" stroke-width="2" x1="810.3528" x2="818.1173" y1="238.637" y2="267.6148" /><line stroke="orange" stroke-width="2" x1="800.0" x2="800.0" y1="240.0" y2="270.0" /><line stroke="orange" stroke-width="2" x1="789.6472" x2="781.8827" y1="238.637" y2="267.6148" /><line stroke="orange" stroke-width="2" x1="780.0" x2="765.0" y1="234.641" y2="260.6218" /><line stroke="orange" stroke-width="2" x1="771.7157" x2="750.5025" y1="228.2843" y2="249.4975" /><line stroke="orange" stroke-width="2" x1="765.359" x2="739.3782" y1="220.0" y2="235.0" /><line stroke="orange" stroke-width="2" x1="761.363" x2="732.3852" y1="210.3528" y2="218.1173" /><line stroke="orange" stroke-width="2" x1="760.0" x2="730.0" y1="200.0" y2="200.0" /><line stroke="orange" stroke-width="2" x1="761.363" x2="732.3852" y1="189.6472" y2="181.8827" /><line stroke="orange" stroke-width="2" x1="765.359" x2="739.3782" y1="180.0" y2="165.0" /><line stroke="orange" stroke-width="2" x1="771.7157" x2="750.5025" y1="171.7157" y2="150.5025" /><line stroke="orange" stroke-width="2" x1="780.0" x2="765.0" y1="165.359" y2="139.3782" /><line stroke="orange" stroke-width="2" x1="789.6472" x2="781.8827" y1="161.363" y2="132.3852" /><line stroke="orange" stroke-width="2" x1="800.0" x2="800.0" y1="160.0" y2="130.0" /><line stroke="orange" stroke-width="2" x1="810.3528" x2="818.1173" y1="161.363" y2="132.3852" /><line stroke="orange" stroke-width="2" x1="820.0" x2="835.0" y1="165.359" y2="139.3782" /><line stroke="orange" stroke-width="2" x1="828.2843" x2="849.4975" y1="171.7157" y2="150.5025" /><line stroke="orange" stroke-width="2" x1="834.641" x2="860.6218" y1="180.0" y2="165.0" /><line stroke="orange" stroke-width="2" x1="838.637" x2="867.6148" y1="189.6472" y2="181.8827" /><line stroke="sienna" stroke-width="10" x1="500" x2="500" y1="700" y2="500" /><line stroke="green" stroke-width="2" x1="500" x2="500.0" y1="500" y2="400.0" /><line stroke="green" stroke-width="2" x1="500.0" x2="523.9414" y1="400.0" y2="334.2215" /><line stroke="green" stroke-width="2" x1="523.9414" x2="555.438" y1="334.2215" y2="296.6853" /><line stroke="green" stroke-width="2" x1="555.438" x2="585.1427" y1="296.6853" y2="279.5353" /><line stroke="green" stroke-width="2" x1="555.438" x2="567.1693" y1="296.6853" y2="264.4539" /><line stroke="green" stroke-width="2" x1="523.9414" x2="523.9414" y1="334.2215" y2="285.2215" /><line stroke="green" stroke-width="2" x1="523.9414" x2="535.6727" y1="285.2215" y2="252.9901" /><line stroke="green" stroke-width="2" x1="523.9414" x2="512.2101" y1="285.2215" y2="252.9901" /><line stroke="green" stroke-width="2" x1="500.0" x2="476.0586" y1="400.0" y2="334.2215" /><line stroke="green" stroke-width="2" x1="476.0586" x2="476.0586" y1="334.2215" y2="285.2215" /><line stroke="green" stroke-width="2" x1="476.0586" x2="487.7899" y1="285.2215" y2="252.9901" /><line stroke="green" stroke-width="2" x1="476.0586" x2="464.3273" y1="285.2215" y2="252.9901" /><line stroke="green" stroke-width="2" x1="476.0586" x2="444.562" y1="334.2215" y2="296.6853" /><line stroke="green" stroke-width="2" x1="444.562" x2="432.8307" y1="296.6853" y2="264.4539" /><line stroke="green" stroke-width="2" x1="444.562" x2="414.8573" y1="296.6853" y2="279.5353" /><line stroke="gray" stroke-width="2" x1="0" x2="1000" y1="750" y2="750" /><polygon fill="peru" points="200,700 300,700 300,650 200,650" stroke="black" stroke-width="2" /><polygon fill="maroon" points="200,650 250,600 300,650" stroke="black" stroke-width="2" /></svg>