<?xml version="1.0" encoding="utf-8" ?>
<svg baseProfile="tiny" height="1000px" version="1.2" width="1200px" xmlns="http://www.w3.org/2000/svg" xmlns:ev="http://www.w3.org/2001/xml-events" xmlns:xlink="http://www.w3.org/1999/xlink"><defs /><circle cx="1000" cy="150" fill="yellow" r="40" stroke="orange" stroke-width="2" /><rect fill="none" height="247.2136" stroke="black" stroke-width="2" width="400" x="400" y="600" /><line stroke="gray" stroke-width="4" x1="480.0" x2="480.0" y1="600" y2="352.7864" /><line stroke="gray" stroke-width="4" x1="560.0" x2="560.0" y1="600" y2="352.7864" /><line stroke="gray" stroke-width="4" x1="640.0" x2="640.0" y1="600" y2="352.7864" /><line stroke="gray" stroke-width="4" x1="720.0" x2="720.0" y1="600" y2="352.7864" /><path d="M 480.0,352.78640450004207 A 40.0,40.0 0 0,1 400.0,352.78640450004207" fill="none" stroke="black" stroke-width="2" /><path d="M 560.0,352.78640450004207 A 40.0,40.0 0 0,1 480.0,352.78640450004207" fill="none" stroke="black" stroke-width="2" /><path d="M 640.0,352.78640450004207 A 40.0,40.0 0 0,1 560.0,352.78640450004207" fill="none" stroke="black" stroke-width="2" /><path d="M 720.0,352.78640450004207 A 40.0,40.0 0 0,1 640.0,352.78640450004207" fill="none" stroke="black" stroke-width="2" /><circle cx="550.0" cy="300" fill="none" r="100" stroke="blue" stroke-width="2" /><circle cx="650.0" cy="300" fill="none" r="100" stroke="blue" stroke-width="2" /><circle cx="600" cy="500" fill="none" r="60" stroke="purple" stroke-width="2" /><line stroke="purple" stroke-width="1" x1="600" x2="600" y1="440" y2="560" /><line stroke="purple" stroke-width="1" x1="540" x2="660" y1="500" y2="500" /></svg>