<?xml version="1.0" encoding="utf-8" ?>
<svg baseProfile="full" height="1000px" version="1.1" width="1400px" xmlns="http://www.w3.org/2000/svg" xmlns:ev="http://www.w3.org/2001/xml-events" xmlns:xlink="http://www.w3.org/1999/xlink"><defs><linearGradient id="dusk_grad" x1="0" x2="0" y1="0" y2="1"><stop offset="0.0" stop-color="#0a0a1f" /><stop offset="0.5" stop-color="#3e4765" /><stop offset="1.0" stop-color="#f4e8ce" /></linearGradient><radialGradient id="sun_radial"><stop offset="0.0" stop-color="#ffd59f" /><stop offset="1.0" stop-color="#ffebb0" stop-opacity="0.1" /></radialGradient></defs><rect fill="url(#dusk_grad)" height="100%" width="100%" x="0" y="0" /><path d="M 0,800 Q 350,700 700,800 T 1400,800 L 1400,1000 L 0,1000 Z" fill="#1e2735" opacity="1.0" /><path d="M 0,740 Q 350,630 700,750 T 1400,740 L 1400,1000 L 0,1000 Z" fill="#2c374a" opacity="0.8" /><path d="M 0,680 Q 350,560 700,700 T 1400,680 L 1400,1000 L 0,1000 Z" fill="#3f506a" opacity="0.6" /><circle cx="421.0" cy="650.0" fill="white" r="12" /><line stroke="white" stroke-width="3" x1="421.0" x2="421.0" y1="662.0" y2="690.0" /><line stroke="white" stroke-width="2" x1="421.0" x2="411.0" y1="690.0" y2="720.0" /><line stroke="white" stroke-width="2" x1="421.0" x2="431.0" y1="690.0" y2="720.0" /><path d="M 620,500 A 80,80 0 0,1 780,500" fill="none" stroke="rgb(160,160,210)" stroke-width="2" /><path d="M 580,500 A 120,120 0 0,1 820,500" fill="none" stroke="rgb(170,170,220)" stroke-width="2" /><path d="M 540,500 A 160,160 0 0,1 860,500" fill="none" stroke="rgb(180,180,230)" stroke-width="2" /><path d="M 500,500 A 200,200 0 0,1 900,500" fill="none" stroke="rgb(190,190,240)" stroke-width="2" /><path d="M 460,500 A 240,240 0 0,1 940,500" fill="none" stroke="rgb(200,200,250)" stroke-width="2" /><path d="M 500,280 q 20,-10 40,0" fill="none" stroke="white" stroke-width="2" /><path d="M 570,260 q 20,-10 40,0" fill="none" stroke="white" stroke-width="2" /><path d="M 640,240 q 20,-10 40,0" fill="none" stroke="white" stroke-width="2" /><path d="M 710,220 q 20,-10 40,0" fill="none" stroke="white" stroke-width="2" /><path d="M 780,200 q 20,-10 40,0" fill="none" stroke="white" stroke-width="2" /><circle cx="1100" cy="200" fill="url(#sun_radial)" r="120" /><text fill="white" font-family="serif" font-size="28px" opacity="0.8" x="520" y="950">From stillness, emergence.</text></svg>