<?xml version="1.0" encoding="utf-8" ?>
<svg baseProfile="tiny" height="1000px" version="1.2" width="1200px" xmlns="http://www.w3.org/2000/svg" xmlns:ev="http://www.w3.org/2001/xml-events" xmlns:xlink="http://www.w3.org/1999/xlink"><defs><linearGradient id="bg_grad" x1="0" x2="0" y1="0" y2="1"><stop offset="0.0" stop-color="#0d0d0d" /><stop offset="1.0" stop-color="#1e2b30" /></linearGradient></defs><rect fill="url(#bg_grad)" height="100%" width="100%" x="0" y="0" /><polyline fill="none" points="300.8,600.0 300.8073,600.0423 300.8125,600.0854 300.8154,600.1291 300.816,600.1734 300.8143,600.2182 300.8102,600.2632 300.8037,600.3085 300.7947,600.3538 300.7833,600.3991 300.7693,600.4442 300.7529,600.4889 300.7339,600.5332 300.7124,600.5769 300.6884,600.6198 300.6619,600.6619 300.6329,600.703 300.6016,600.7429 300.5678,600.7815 300.5316,600.8186 300.4932,600.8542 300.4525,600.8881 300.4097,600.9202 300.3648,600.9503 300.3179,600.9782 300.269,601.004 300.2184,601.0274 300.166,601.0483 300.1121,601.0667 300.0567,601.0824 300.0,601.0953 299.9421,601.1053 299.8831,601.1123 299.8232,601.1163 299.7625,601.1172 299.7013,601.1148 299.6396,601.1092 299.5776,601.1003 299.5156,601.088 299.4536,601.0724 299.3919,601.0533 299.3306,601.0307 299.27,601.0048 299.2102,600.9753 299.1514,600.9425 299.0938,600.9062 299.0376,600.8666 298.9829,600.8236 298.9301,600.7773 298.8792,600.7279 298.8305,600.6752 298.7841,600.6196 298.7402,600.5609 298.699,600.4994 298.6607,600.4352 298.6254,600.3683 298.5934,600.299 298.5647,600.2273 298.5396,600.1535 298.5181,600.0777 298.5004,600.0 298.4867,599.9207 298.4771,599.8399 298.4716,599.7579 298.4705,599.6749 298.4737,599.591 298.4813,599.5066 298.4936,599.4217 298.5104,599.3368 298.5318,599.2519 298.558,599.1674 298.5888,599.0836 298.6244,599.0006 298.6647,598.9187 298.7096,598.8382 298.7593,598.7593 298.8136,598.6823 298.8724,598.6075 298.9357,598.5352 299.0035,598.4655 299.0755,598.3988 299.1518,598.3352 299.2321,598.2752 299.3163,598.2188 299.4042,598.1663 299.4957,598.1181 299.5907,598.0742 299.6888,598.0349 299.7898,598.0005 299.8937,597.9711 300.0,597.9469 300.1086,597.9282 300.2191,597.915 300.3314,597.9075 300.4451,597.9059 300.5599,597.9103 300.6756,597.9208 300.7917,597.9375 300.908,597.9605 301.0242,597.9899 301.1399,598.0257 301.2547,598.0679 301.3683,598.1166 301.4805,598.1718 301.5907,598.2334 301.6987,598.3013 301.804,598.3756 301.9064,598.4562 302.0055,598.5429 302.1009,598.6357 302.1923,598.7343 302.2792,598.8387 302.3615,598.9486 302.4387,599.0639 302.5105,599.1843 302.5766,599.3096 302.6367,599.4396 302.6904,599.5739 302.7375,599.7123 302.7778,599.8544 302.8109,600.0 302.8366,600.1487 302.8546,600.3 302.8649,600.4538 302.8671,600.6094 302.861,600.7666 302.8467,600.9249 302.8238,601.0839 302.7922,601.2432 302.752,601.4022 302.703,601.5606 302.6452,601.7178 302.5785,601.8734 302.503,602.0269 302.4187,602.1778 302.3256,602.3256 302.2239,602.4699 302.1136,602.6101 301.9949,602.7457 301.8679,602.8764 301.7329,603.0014 301.59,603.1205 301.4395,603.2331 301.2817,603.3388 301.1168,603.4371 300.9452,603.5276 300.7673,603.6099 300.5834,603.6834 300.3939,603.748 300.1993,603.8031 300.0,603.8484 299.7965,603.8836 299.5892,603.9083 299.3788,603.9223 299.1656,603.9253 298.9504,603.9171 298.7337,603.8974 298.516,603.866 298.2979,603.8229 298.0802,603.7678 297.8634,603.7007 297.6481,603.6216 297.4351,603.5303 297.2249,603.4269 297.0183,603.3115 296.8159,603.1841 296.6184,603.0448 296.4265,602.8938 296.2408,602.7312 296.062,602.5574 295.8907,602.3725 295.7277,602.1769 295.5735,601.9708 295.4288,601.7547 295.2942,601.529 295.1703,601.2941 295.0577,601.0505 294.957,600.7987 294.8686,600.5393 294.7932,600.2729 294.7312,600.0 294.683,599.7213 294.6491,599.4376 294.6299,599.1495 294.6258,598.8577 294.6371,598.563 294.6641,598.2663 294.707,597.9682 294.7661,597.6697 294.8414,597.3716 294.9333,597.0747 295.0417,596.78 295.1666,596.4884 295.3082,596.2006 295.4662,595.9178 295.6407,595.6407 295.8314,595.3703 296.0381,595.1075 296.2606,594.8532 296.4987,594.6084 296.7518,594.3739 297.0196,594.1507 297.3017,593.9396 297.5976,593.7415 297.9066,593.5572 298.2282,593.3876 298.5617,593.2335 298.9064,593.0955 299.2616,592.9746 299.6264,592.8713 300.0,592.7864 300.3815,592.7204 300.77,592.6741 301.1645,592.6478 301.564,592.6422 301.9674,592.6576 302.3737,592.6945 302.7817,592.7533 303.1904,592.8342 303.5986,592.9374 304.005,593.0631 304.4085,593.2115 304.8078,593.3826 305.2017,593.5764 305.589,593.7928 305.9684,594.0316 306.3386,594.2927 306.6984,594.5757 307.0465,594.8804 307.3817,595.2063 307.7027,595.5528 308.0083,595.9196 308.2973,596.3058 308.5686,596.7108 308.8208,597.1339 309.0531,597.5742 309.2641,598.0309 309.4529,598.5028 309.6185,598.989 309.7599,599.4885 309.8762,600.0 309.9665,600.5223 310.03,601.0542 310.0659,601.5943 310.0737,602.1412 310.0525,602.6936 310.002,603.2498 309.9215,603.8085 309.8108,604.3681 309.6695,604.9268 309.4973,605.4833 309.2941,606.0357 309.0599,606.5824 308.7946,607.1217 308.4984,607.652 308.1714,608.1714 307.8139,608.6782 307.4264,609.1708 307.0093,609.6474 306.5631,610.1063 306.0886,610.5458 305.5866,610.9642 305.0578,611.3599 304.5032,611.7313 303.924,612.0767 303.3211,612.3946 302.696,612.6836 302.0498,612.9421 301.3841,613.1688 300.7003,613.3624 300.0,613.5216 299.2849,613.6452 298.5567,613.7322 297.8172,613.7814 297.0684,613.7919 296.3122,613.763 295.5506,613.6938 294.7857,613.5836 294.0197,613.432 293.2546,613.2386 292.4928,613.0028 291.7365,612.7247 290.988,612.404 290.2496,612.0408 289.5236,611.6352 288.8125,611.1875 288.1186,610.6981 287.4442,610.1675 286.7916,609.5964 286.1634,608.9856 285.5616,608.336 284.9888,607.6486 284.447,606.9246 283.9386,606.1654 283.4657,605.3723 283.0304,604.547 282.6348,603.6911 282.2809,602.8064 281.9705,601.895 281.7054,600.9588 281.4874,600.0 281.3182,599.0209 281.1992,598.024 281.1318,597.0116 281.1174,595.9864 281.157,594.951 281.2518,593.9083 281.4025,592.8611 281.6101,591.8123 281.875,590.7648 282.1977,589.7218 282.5785,588.6864 283.0176,587.6616 283.5149,586.6506 284.0702,585.6567 284.6831,584.6831 285.3532,583.733 286.0796,582.8097 286.8614,581.9163 287.6977,581.0562 288.5871,580.2323 289.5282,579.448 290.5194,578.7063 291.5589,578.0103 292.6447,577.3628 293.7747,576.7668 294.9465,576.2252 296.1577,575.7406 297.4056,575.3156 298.6873,574.9527 300.0,574.6543 301.3405,574.4226 302.7054,574.2597 304.0915,574.1674 305.4951,574.1476 306.9126,574.2019 308.3402,574.3317 309.7739,574.5381 311.2099,574.8222 312.6439,575.1849 314.0719,575.6267 315.4896,576.1481 316.8926,576.7493 318.2767,577.4301 319.6375,578.1904 320.9705,579.0295 322.2712,579.9469 323.5354,580.9414 324.7585,582.0119 325.9362,583.1569 327.0641,584.3746 328.1379,585.663 329.1533,587.0201 330.1063,588.4433 330.9928,589.9298 331.8087,591.4769 332.5502,593.0812 333.2137,594.7395 333.7956,596.4479 334.2924,598.2028 334.701,600.0 335.0182,601.8352 335.2413,603.704 335.3676,605.6017 335.3947,607.5234 335.3203,609.4641 335.1427,611.4186 334.8601,613.3815 334.4711,615.3475 333.9746,617.3109 333.3696,619.266 332.6558,621.2069 331.8328,623.1279 330.9006,625.0228 329.8597,626.8858 328.7108,628.7108 327.4549,630.4917 326.0932,632.2225 324.6276,633.897 323.0601,635.5094 321.3929,637.0536 319.6288,638.5238 317.7709,639.9141 315.8224,641.2188 313.7871,642.4324 311.6691,643.5495 309.4725,644.5648 307.2022,645.4732 304.8632,646.2698 302.4605,646.95 300.0,647.5094 297.4874,647.9437 294.9288,648.2491 292.3307,648.422 289.6997,648.4591 287.0427,648.3574 284.3668,648.1142 281.6792,647.7273 278.9876,647.1947 276.2995,646.5148 273.6228,645.6866 270.9654,644.7093 268.3355,643.5825 265.7411,642.3063 263.1904,640.8812 260.6918,639.3082 258.2536,637.5887 255.884,635.7245 253.5913,633.7179 251.3838,631.5717 249.2696,629.2892 247.2568,626.874 245.3533,624.3303 243.567,621.6626 241.9054,618.8761 240.376,615.9762 238.986,612.9689 237.7423,609.8607 236.6516,606.6582 235.7204,603.3688 234.9546,600.0 234.3599,596.5599 233.9417,593.057 233.705,589.4999 233.6543,585.8978 233.7936,582.26 234.1265,578.5964 234.6562,574.9169 235.3854,571.2317 236.3162,567.5515 237.4501,563.8868 238.7882,560.2486 240.3309,556.6479 242.0781,553.0958 244.0292,549.6037 246.1828,546.1828 248.5371,542.8446 251.0894,539.6004 253.8366,536.4615 256.7749,533.4392 259.8999,530.5446 263.2066,527.7889 266.6892,525.1828 270.3416,522.7371 274.1566,520.4622 278.1269,518.3683 282.2441,516.4652 286.4997,514.7625 290.8842,513.2693 295.3878,511.9943 300.0,510.9458 304.7098,510.1316 309.5057,509.5591 314.3758,509.235 319.3075,509.1655 324.2879,509.3562 329.3038,509.8121 334.3415,510.5374 339.3868,511.5357 344.4255,512.81 349.4429,514.3624 354.424,516.1944 359.3538,518.3066 364.2169,520.6987 368.998,523.37 373.6815,526.3185 378.2519,529.5417 382.6936,533.0361 386.9911,536.7973 391.129,540.8202 395.0919,545.0987 398.8648,549.6259 402.4328,554.394 405.7812,559.3944 408.8958,564.6176 411.7626,570.0533 414.3681,575.6903 416.6993,581.5166 418.7437,587.5195 420.4893,593.6854" stroke="lime" stroke-width="1.8" /><polyline fill="none" points="300.8,600.0 300.8073,600.0423 300.8125,600.0854 300.8154,600.1291 300.816,600.1734 300.8143,600.2182 300.8102,600.2632 300.8037,600.3085 300.7947,600.3538 300.7833,600.3991 300.7693,600.4442 300.7529,600.4889 300.7339,600.5332 300.7124,600.5769 300.6884,600.6198 300.6619,600.6619 300.6329,600.703 300.6016,600.7429 300.5678,600.7815 300.5316,600.8186 300.4932,600.8542 300.4525,600.8881 300.4097,600.9202 300.3648,600.9503 300.3179,600.9782 300.269,601.004 300.2184,601.0274 300.166,601.0483 300.1121,601.0667 300.0567,601.0824 300.0,601.0953 299.9421,601.1053 299.8831,601.1123 299.8232,601.1163 299.7625,601.1172 299.7013,601.1148 299.6396,601.1092 299.5776,601.1003 299.5156,601.088 299.4536,601.0724 299.3919,601.0533 299.3306,601.0307 299.27,601.0048 299.2102,600.9753 299.1514,600.9425 299.0938,600.9062 299.0376,600.8666 298.9829,600.8236 298.9301,600.7773 298.8792,600.7279 298.8305,600.6752 298.7841,600.6196 298.7402,600.5609 298.699,600.4994 298.6607,600.4352 298.6254,600.3683 298.5934,600.299 298.5647,600.2273 298.5396,600.1535 298.5181,600.0777 298.5004,600.0 298.4867,599.9207 298.4771,599.8399 298.4716,599.7579 298.4705,599.6749 298.4737,599.591 298.4813,599.5066 298.4936,599.4217 298.5104,599.3368 298.5318,599.2519 298.558,599.1674 298.5888,599.0836 298.6244,599.0006 298.6647,598.9187 298.7096,598.8382 298.7593,598.7593 298.8136,598.6823 298.8724,598.6075 298.9357,598.5352 299.0035,598.4655 299.0755,598.3988 299.1518,598.3352 299.2321,598.2752 299.3163,598.2188 299.4042,598.1663 299.4957,598.1181 299.5907,598.0742 299.6888,598.0349 299.7898,598.0005 299.8937,597.9711 300.0,597.9469 300.1086,597.9282 300.2191,597.915 300.3314,597.9075 300.4451,597.9059 300.5599,597.9103 300.6756,597.9208 300.7917,597.9375 300.908,597.9605 301.0242,597.9899 301.1399,598.0257 301.2547,598.0679 301.3683,598.1166 301.4805,598.1718 301.5907,598.2334 301.6987,598.3013 301.804,598.3756 301.9064,598.4562 302.0055,598.5429 302.1009,598.6357 302.1923,598.7343 302.2792,598.8387 302.3615,598.9486 302.4387,599.0639 302.5105,599.1843 302.5766,599.3096 302.6367,599.4396 302.6904,599.5739 302.7375,599.7123 302.7778,599.8544 302.8109,600.0 302.8366,600.1487 302.8546,600.3 302.8649,600.4538 302.8671,600.6094 302.861,600.7666 302.8467,600.9249 302.8238,601.0839 302.7922,601.2432 302.752,601.4022 302.703,601.5606 302.6452,601.7178 302.5785,601.8734 302.503,602.0269 302.4187,602.1778 302.3256,602.3256 302.2239,602.4699 302.1136,602.6101 301.9949,602.7457 301.8679,602.8764 301.7329,603.0014 301.59,603.1205 301.4395,603.2331 301.2817,603.3388 301.1168,603.4371 300.9452,603.5276 300.7673,603.6099 300.5834,603.6834 300.3939,603.748 300.1993,603.8031 300.0,603.8484 299.7965,603.8836 299.5892,603.9083 299.3788,603.9223 299.1656,603.9253 298.9504,603.9171 298.7337,603.8974 298.516,603.866 298.2979,603.8229 298.0802,603.7678 297.8634,603.7007 297.6481,603.6216 297.4351,603.5303 297.2249,603.4269 297.0183,603.3115 296.8159,603.1841 296.6184,603.0448 296.4265,602.8938 296.2408,602.7312 296.062,602.5574 295.8907,602.3725 295.7277,602.1769 295.5735,601.9708 295.4288,601.7547 295.2942,601.529 295.1703,601.2941 295.0577,601.0505 294.957,600.7987 294.8686,600.5393 294.7932,600.2729 294.7312,600.0 294.683,599.7213 294.6491,599.4376 294.6299,599.1495 294.6258,598.8577 294.6371,598.563 294.6641,598.2663 294.707,597.9682 294.7661,597.6697 294.8414,597.3716 294.9333,597.0747 295.0417,596.78 295.1666,596.4884 295.3082,596.2006 295.4662,595.9178 295.6407,595.6407 295.8314,595.3703 296.0381,595.1075 296.2606,594.8532 296.4987,594.6084 296.7518,594.3739 297.0196,594.1507 297.3017,593.9396 297.5976,593.7415 297.9066,593.5572 298.2282,593.3876 298.5617,593.2335 298.9064,593.0955 299.2616,592.9746 299.6264,592.8713 300.0,592.7864 300.3815,592.7204 300.77,592.6741 301.1645,592.6478 301.564,592.6422 301.9674,592.6576 302.3737,592.6945 302.7817,592.7533 303.1904,592.8342 303.5986,592.9374 304.005,593.0631 304.4085,593.2115 304.8078,593.3826 305.2017,593.5764 305.589,593.7928 305.9684,594.0316 306.3386,594.2927 306.6984,594.5757 307.0465,594.8804 307.3817,595.2063 307.7027,595.5528 308.0083,595.9196 308.2973,596.3058 308.5686,596.7108 308.8208,597.1339 309.0531,597.5742 309.2641,598.0309 309.4529,598.5028 309.6185,598.989 309.7599,599.4885 309.8762,600.0 309.9665,600.5223 310.03,601.0542 310.0659,601.5943 310.0737,602.1412 310.0525,602.6936 310.002,603.2498 309.9215,603.8085 309.8108,604.3681 309.6695,604.9268 309.4973,605.4833 309.2941,606.0357 309.0599,606.5824 308.7946,607.1217 308.4984,607.652 308.1714,608.1714 307.8139,608.6782 307.4264,609.1708 307.0093,609.6474 306.5631,610.1063 306.0886,610.5458 305.5866,610.9642 305.0578,611.3599 304.5032,611.7313 303.924,612.0767 303.3211,612.3946 302.696,612.6836 302.0498,612.9421 301.3841,613.1688 300.7003,613.3624 300.0,613.5216 299.2849,613.6452 298.5567,613.7322 297.8172,613.7814 297.0684,613.7919 296.3122,613.763 295.5506,613.6938 294.7857,613.5836 294.0197,613.432 293.2546,613.2386 292.4928,613.0028 291.7365,612.7247 290.988,612.404 290.2496,612.0408 289.5236,611.6352 288.8125,611.1875 288.1186,610.6981 287.4442,610.1675 286.7916,609.5964 286.1634,608.9856 285.5616,608.336 284.9888,607.6486 284.447,606.9246 283.9386,606.1654 283.4657,605.3723 283.0304,604.547 282.6348,603.6911 282.2809,602.8064 281.9705,601.895 281.7054,600.9588 281.4874,600.0 281.3182,599.0209 281.1992,598.024 281.1318,597.0116 281.1174,595.9864 281.157,594.951 281.2518,593.9083 281.4025,592.8611 281.6101,591.8123 281.875,590.7648 282.1977,589.7218 282.5785,588.6864 283.0176,587.6616 283.5149,586.6506 284.0702,585.6567 284.6831,584.6831 285.3532,583.733 286.0796,582.8097 286.8614,581.9163 287.6977,581.0562 288.5871,580.2323 289.5282,579.448 290.5194,578.7063 291.5589,578.0103 292.6447,577.3628 293.7747,576.7668 294.9465,576.2252 296.1577,575.7406 297.4056,575.3156 298.6873,574.9527 300.0,574.6543 301.3405,574.4226 302.7054,574.2597 304.0915,574.1674 305.4951,574.1476 306.9126,574.2019 308.3402,574.3317 309.7739,574.5381 311.2099,574.8222 312.6439,575.1849 314.0719,575.6267 315.4896,576.1481 316.8926,576.7493 318.2767,577.4301 319.6375,578.1904 320.9705,579.0295 322.2712,579.9469 323.5354,580.9414 324.7585,582.0119 325.9362,583.1569 327.0641,584.3746 328.1379,585.663 329.1533,587.0201 330.1063,588.4433 330.9928,589.9298 331.8087,591.4769 332.5502,593.0812 333.2137,594.7395 333.7956,596.4479 334.2924,598.2028 334.701,600.0 335.0182,601.8352 335.2413,603.704 335.3676,605.6017 335.3947,607.5234 335.3203,609.4641 335.1427,611.4186 334.8601,613.3815 334.4711,615.3475 333.9746,617.3109 333.3696,619.266 332.6558,621.2069 331.8328,623.1279 330.9006,625.0228 329.8597,626.8858 328.7108,628.7108 327.4549,630.4917 326.0932,632.2225 324.6276,633.897 323.0601,635.5094 321.3929,637.0536 319.6288,638.5238 317.7709,639.9141 315.8224,641.2188 313.7871,642.4324 311.6691,643.5495 309.4725,644.5648 307.2022,645.4732 304.8632,646.2698 302.4605,646.95 300.0,647.5094 297.4874,647.9437 294.9288,648.2491 292.3307,648.422 289.6997,648.4591 287.0427,648.3574 284.3668,648.1142 281.6792,647.7273 278.9876,647.1947 276.2995,646.5148 273.6228,645.6866 270.9654,644.7093 268.3355,643.5825 265.7411,642.3063 263.1904,640.8812 260.6918,639.3082 258.2536,637.5887 255.884,635.7245 253.5913,633.7179 251.3838,631.5717 249.2696,629.2892 247.2568,626.874 245.3533,624.3303 243.567,621.6626 241.9054,618.8761 240.376,615.9762 238.986,612.9689 237.7423,609.8607 236.6516,606.6582 235.7204,603.3688 234.9546,600.0 234.3599,596.5599 233.9417,593.057 233.705,589.4999 233.6543,585.8978 233.7936,582.26 234.1265,578.5964 234.6562,574.9169 235.3854,571.2317 236.3162,567.5515 237.4501,563.8868 238.7882,560.2486 240.3309,556.6479 242.0781,553.0958 244.0292,549.6037 246.1828,546.1828 248.5371,542.8446 251.0894,539.6004 253.8366,536.4615 256.7749,533.4392 259.8999,530.5446 263.2066,527.7889 266.6892,525.1828 270.3416,522.7371 274.1566,520.4622 278.1269,518.3683 282.2441,516.4652 286.4997,514.7625 290.8842,513.2693 295.3878,511.9943 300.0,510.9458 304.7098,510.1316 309.5057,509.5591 314.3758,509.235 319.3075,509.1655 324.2879,509.3562 329.3038,509.8121 334.3415,510.5374 339.3868,511.5357 344.4255,512.81 349.4429,514.3624 354.424,516.1944 359.3538,518.3066 364.2169,520.6987 368.998,523.37 373.6815,526.3185 378.2519,529.5417 382.6936,533.0361 386.9911,536.7973 391.129,540.8202 395.0919,545.0987 398.8648,549.6259 402.4328,554.394 405.7812,559.3944 408.8958,564.6176 411.7626,570.0533 414.3681,575.6903 416.6993,581.5166 418.7437,587.5195 420.4893,593.6854" stroke="red" stroke-width="1.2" /><circle cx="850" cy="600" fill="none" r="18" stroke="gold" stroke-width="2" /><circle cx="850" cy="564" fill="none" r="22" stroke="gold" stroke-width="2" /><circle cx="850" cy="528" fill="none" r="26" stroke="gold" stroke-width="2" /><circle cx="850" cy="492" fill="none" r="30" stroke="gold" stroke-width="2" /><circle cx="850" cy="456" fill="none" r="34" stroke="gold" stroke-width="2" /><circle cx="850" cy="420" fill="none" r="38" stroke="gold" stroke-width="2" /><circle cx="850" cy="384" fill="none" r="42" stroke="gold" stroke-width="2" /><circle cx="850" cy="348" fill="none" r="46" stroke="gold" stroke-width="2" /><circle cx="850" cy="312" fill="none" r="50" stroke="gold" stroke-width="2" /><circle cx="850" cy="276" fill="none" r="54" stroke="gold" stroke-width="2" /><path d="M 660.0,320.0 A 60,60 0 0,1 540.0,320.0" fill="none" stroke="white" stroke-width="2" /><path d="M 678.7846202409767,306.1081457866456 A 80,80 0 0,1 521.2153797590233,306.1081457866456" fill="none" stroke="white" stroke-width="2" /><path d="M 693.9692620785909,285.7979856674331 A 100,100 0 0,1 506.0307379214092,285.7979856674331" fill="none" stroke="white" stroke-width="2" /><path d="M 703.9230484541326,260.0 A 120,120 0 0,1 496.07695154586736,260.0" fill="none" stroke="white" stroke-width="2" /><path d="M 707.246222036657,230.00973464388449 A 140,140 0 0,1 492.7537779633431,230.00973464388449" fill="none" stroke="white" stroke-width="2" /><polygon fill="none" opacity="0.15" points="685,85 715,85 715,115 685,115" stroke="white" stroke-width="1" /><polygon fill="none" opacity="0.25" points="721,111 759,111 759,149 721,149" stroke="white" stroke-width="1" /><polygon fill="none" opacity="0.35" points="757,137 803,137 803,183 757,183" stroke="white" stroke-width="1" /><polygon fill="none" opacity="0.45" points="793,163 847,163 847,217 793,217" stroke="white" stroke-width="1" /><polygon fill="none" opacity="0.55" points="829,189 891,189 891,251 829,251" stroke="white" stroke-width="1" /></svg>